<?xml version="1.0" standalone="no"?>
<!DOCTYPE svg PUBLIC "-//W3C//DTD SVG 1.1//EN" "http://www.w3.org/Graphics/SVG/1.1/DTD/svg11.dtd" >
<svg>
<metadata>
Created by FontForge 20090914 at Mon Dec  4 04:28:01 2017
 By www-data
Copyright 2012 The Encode Project Authors (impallari@gmail.com), with Reserved Font Name "Encode Sans".
</metadata>
<defs>
<font id="EncodeSans-Black" horiz-adv-x="1321" >
  <font-face 
    font-family="Encode Sans Black"
    font-weight="900"
    font-stretch="normal"
    units-per-em="2000"
    panose-1="0 0 10 0 0 0 0 0 0 0"
    ascent="1600"
    descent="-400"
    x-height="1100"
    cap-height="1480"
    bbox="-1167 -518.003 3141 2330"
    underline-thickness="50"
    underline-position="-50"
    unicode-range="U+000D-U+FB02"
  />
<missing-glyph horiz-adv-x="1028" 
d="M843 1616v-2056h-652v2056h652zM685 1478h-340v-68h134v-76h-136v-68h342v68h-136v76h136v68zM549 1213h-206v-214h342v70h-136v144zM479 1143v-74h-68v74h68zM685 944h-342v-68h136v-76h-136v-68h206v144h136v68zM685 820h-68v-135h-274v-70h342v205zM685 569h-206v-115
h70v48h68v-97h-206v164h-68v-232h342v232zM685 214h-342v-233h342v233zM617 146v-97h-206v97h206zM685 -66h-342v-68h144l-144 -96v-68h342v68h-210l144 96h66v68z" />
    <glyph glyph-name="fi" unicode="fi" horiz-adv-x="1482" 
d="M251.5 1400.5c41.667 75 101.5 133 179.5 174s170 61.5 276 61.5c62.667 0 115.334 -5.66699 158.001 -17v-327c-24.667 7.33301 -53.334 11 -86.001 11c-54.667 0 -96.167 -12.5 -124.5 -37.5s-42.5 -60.167 -42.5 -105.5v-60h253v-331h-253v-769h-423v769h-160v331h160
v38c0 100 20.833 187.5 62.5 262.5zM916 1418c0 140 85 210 255 210s255 -70 255 -210s-85 -210 -255 -210s-255 70 -255 210zM958 0v1100h427v-1100h-427z" />
    <glyph glyph-name="fl" unicode="fl" horiz-adv-x="1481" 
d="M251.5 1400.5c41.667 75 101.5 133 179.5 174s170 61.5 276 61.5c62.667 0 115.334 -5.66699 158.001 -17v-327c-24.667 7.33301 -53.334 11 -86.001 11c-54.667 0 -96.167 -12.5 -124.5 -37.5s-42.5 -60.167 -42.5 -105.5v-60h253v-331h-253v-769h-423v769h-160v331h160
v38c0 100 20.833 187.5 62.5 262.5zM958 1616h426v-1616h-426v1616z" />
    <glyph glyph-name="f_j" unicode="fj" horiz-adv-x="1482" 
d="M612 769v-769h-423v769h-160v331h160v38c0 100 20.833 187.5 62.5 262.5s101.5 133 179.5 174s170 61.5 276 61.5c62.667 0 115.334 -5.66699 158.001 -17v-327c-24.667 7.33301 -53.334 11 -86.001 11c-54.667 0 -96.167 -12.5 -124.5 -37.5s-42.5 -60.167 -42.5 -105.5
v-60h253v-331h-253zM911 1418c0 140 85 210 255 210s255 -70 255 -210s-85 -210 -255 -210s-255 70 -255 210zM958 1100l427 -0.00195312v-904c0 -129.333 -22.5 -247.166 -67.5 -353.499s-121.167 -212.5 -228.5 -318.5l-273 180c53.333 70.667 90.333 141.334 111 212.001
s31 158.667 31 264v920z" />
    <glyph glyph-name=".notdef" horiz-adv-x="1028" 
d="M843 1616v-2056h-652v2056h652zM685 1478h-340v-68h134v-76h-136v-68h342v68h-136v76h136v68zM549 1213h-206v-214h342v70h-136v144zM479 1143v-74h-68v74h68zM685 944h-342v-68h136v-76h-136v-68h206v144h136v68zM685 820h-68v-135h-274v-70h342v205zM685 569h-206v-115
h70v48h68v-97h-206v164h-68v-232h342v232zM685 214h-342v-233h342v233zM617 146v-97h-206v97h206zM685 -66h-342v-68h144l-144 -96v-68h342v68h-210l144 96h66v68z" />
    <glyph glyph-name="NULL" horiz-adv-x="0" 
 />
    <glyph glyph-name="NULL" horiz-adv-x="0" 
 />
    <glyph glyph-name="nonmarkingreturn" unicode="&#xd;" horiz-adv-x="512" 
 />
    <glyph glyph-name="space" unicode=" " horiz-adv-x="512" 
 />
    <glyph glyph-name="exclam" unicode="!" horiz-adv-x="661" 
d="M204 533l-100 463v484h453v-484l-95 -463h-258zM188.5 9c-40.333 19.333 -71.499 46.6709 -93.499 82.0039s-33 77 -33 125c0 73.333 23.833 131.166 71.5 173.499s113.167 63.5 196.5 63.5c55.333 0 103.166 -9.83301 143.499 -29.5s71.333 -47.334 93 -83.001
s32.5 -77.167 32.5 -124.5c0 -46.667 -11 -87.834 -33 -123.501s-53.333 -63.334 -94 -83.001s-88 -29.5 -142 -29.5s-101.167 9.66699 -141.5 29z" />
    <glyph glyph-name="quotedbl" unicode="&#x22;" horiz-adv-x="1015" 
d="M127 798l-77 818h415l-78 -818h-260zM628 798l-77 818h415l-78 -818h-260z" />
    <glyph glyph-name="numbersign" unicode="#" 
d="M1221 814h-167l-16 -148h183v-316h-216l-36 -350h-322l36 350h-127l-36 -350h-322l36 350h-134v316h167l16 148h-183v316h216l36 350h322l-36 -350h127l36 350h322l-36 -350h134v-316zM716 666l16 148h-127l-16 -148h127z" />
    <glyph glyph-name="dollar" unicode="$" horiz-adv-x="1215" 
d="M1078.5 183c-63 -76.667 -153.167 -131.999 -270.5 -165.999v-257h-401v224c-117.333 8 -224.333 27 -321 57v348c61.333 -18.667 132.166 -33.834 212.499 -45.501s151.5 -17.5 213.5 -17.5c85.333 0 145 9 179 27s51 44 51 78c0 18.667 -4.33301 34.334 -13 47.001
s-24.667 24.5 -48 35.5s-57.333 22.167 -102 33.5l-132 34c-134.667 32.667 -235.834 85.167 -303.501 157.5s-101.5 166.833 -101.5 283.5c0 111.333 30.5 204.333 91.5 279s152.167 128.667 273.5 162v257h401v-222c100.667 -4 194.334 -16 281.001 -36v-348
c-44.667 12 -97 21.667 -157 29s-116 11 -168 11c-109.333 0 -185.166 -9.83301 -227.499 -29.5s-63.5 -46.167 -63.5 -79.5c0 -16.667 3.66699 -30.667 11 -42s20.5 -21.833 39.5 -31.5s46.833 -19.5 83.5 -29.5l133 -34c148.667 -36 258 -90 328 -162s105 -167 105 -285
c0 -108.667 -31.5 -201.334 -94.5 -278.001z" />
    <glyph glyph-name="percent" unicode="%" horiz-adv-x="2262" 
d="M279.5 619.5c-66.333 35.667 -117.833 88.6689 -154.5 159.002s-55 155.166 -55 254.499s18.333 184.166 55 254.499s88.167 123.333 154.5 159s143.833 53.5 232.5 53.5s166.334 -17.833 233.001 -53.5s118.334 -88.5 155.001 -158.5s55 -155 55 -255
s-18.333 -185 -55 -255s-88.334 -122.833 -155.001 -158.5s-144.334 -53.5 -233.001 -53.5s-166.167 17.833 -232.5 53.5zM624 0.00195312l672 1480h342l-673 -1480h-341zM625 1033c0 138.667 -37.667 208 -113 208c-35.333 0 -62.833 -16 -82.5 -48
s-29.5 -85.333 -29.5 -160c0 -139.333 37.333 -209 112 -209c75.333 0 113 69.667 113 209zM1516.5 35.502c-66.333 35.667 -117.832 88.6689 -154.499 159.002s-55 155.166 -55 254.499s18.333 184.166 55 254.499s88.167 123.333 154.5 159s143.833 53.5 232.5 53.5
s166.334 -17.833 233.001 -53.5s118.334 -88.5 155 -158.5c36.667 -70 55 -155 55 -255s-18.333 -185 -55 -255s-88.334 -122.833 -155.001 -158.5s-144.334 -53.5 -233.001 -53.5s-166.167 17.833 -232.5 53.5zM1862 449.004c0 139.333 -37.667 209 -113 209
c-74.667 0 -112 -69.667 -112 -209c0 -138.667 37.333 -208 112 -208c75.333 0 113 69.333 113 208z" />
    <glyph glyph-name="ampersand" unicode="&#x26;" horiz-adv-x="1675" 
d="M1481 -20l-259.001 160.996c-62 -52.667 -136.5 -92.334 -223.5 -119.001s-184.833 -40 -293.5 -40c-134.667 0 -248.5 17.167 -341.5 51.5s-163 83.333 -210 147s-70.5 138.834 -70.5 225.501c0 80 20.5 150.833 61.5 212.5s94.5 108.834 160.5 141.501
c-35.333 42.667 -60.166 85.5 -74.499 128.5s-21.5 88.167 -21.5 135.5c0 150.667 57 267.667 171 351s284.333 125 511 125c91.333 0 183.333 -7.33301 276 -22v-348c-36 6.66699 -75.833 12.334 -119.5 17.001s-84.167 7 -121.5 7c-105.333 0 -179.333 -12 -222 -36
s-64 -58.667 -64 -104c0 -27.333 8.33301 -51.833 25 -73.5s43.667 -43.834 81 -66.501l349 -217v5c0 36.667 -2.83301 76.334 -8.5 119.001s-13.167 84.334 -22.5 125.001h337c20 -84 30 -164 30 -240c0 -75.333 -7.33301 -143.666 -22 -204.999l266 -165zM935.999 318.996
l-383 239l-12 8c-19.333 -34.667 -29 -72 -29 -112c0 -55.333 21.5 -98 64.5 -128s102.833 -45 179.5 -45c71.333 0 131.333 12.667 180 38z" />
    <glyph glyph-name="quotesingle" unicode="'" horiz-adv-x="514" 
d="M127 798l-77 818h415l-78 -818h-260z" />
    <glyph glyph-name="parenleft" unicode="(" horiz-adv-x="754" 
d="M89 588c0 436 114.333 778.667 343 1028h442c-122 -148.667 -210.667 -306 -266 -472s-83 -351.333 -83 -556s27.667 -390 83 -556s144 -323.333 266 -472h-442c-228.667 249.333 -343 592 -343 1028z" />
    <glyph glyph-name="parenright" unicode=")" horiz-adv-x="754" 
d="M146 32c55.333 166 83 351.333 83 556s-27.667 390 -83 556s-144 323.333 -266 472h442c228.667 -249.333 343 -592 343 -1028s-114.333 -778.667 -343 -1028h-442c122 148.667 210.667 306 266 472z" />
    <glyph glyph-name="asterisk" unicode="*" horiz-adv-x="1065" 
d="M691 1109l142 -122l86 -120l-223 -161l-86 119l-78 188l-78 -188l-86 -119l-222 161l86 120l142 122l-183 16l-161 52l85 261l161 -53l163 -100l-44 187v144h275v-144l-45 -187l163 100l161 53l86 -261l-161 -52z" />
    <glyph glyph-name="plus" unicode="+" horiz-adv-x="1116" 
d="M391 294v306h-295v320h295v306h334v-306h295v-320h-295v-306h-334z" />
    <glyph glyph-name="comma" unicode="," horiz-adv-x="621" 
d="M508 397.5c46 -54.333 68.999 -135.168 68.999 -242.501c0 -88.667 -17.5 -178.667 -52.5 -270s-82.167 -173 -141.5 -245h-241c34 66.667 60.833 127.334 80.5 182.001s32.5 108.334 38.5 161.001c-67.333 9.33301 -120.666 35.666 -159.999 78.999s-59 99 -59 167
c0 78.667 23.333 140 70 184s110.667 66 192 66c90 0 158 -27.167 204 -81.5z" />
    <glyph glyph-name="hyphen" unicode="-" horiz-adv-x="957" 
d="M96 399v342h765v-342h-765z" />
    <glyph glyph-name="period" unicode="." horiz-adv-x="621" 
d="M168.5 10c-40.333 20 -71.499 48.834 -93.499 86.501s-33 81.834 -33 132.501c0 77.333 23.833 138.333 71.5 183s113.167 67 196.5 67c55.333 0 103.166 -10.333 143.499 -31s71.333 -49.834 93 -87.501s32.5 -81.5 32.5 -131.5c0 -49.333 -11 -92.833 -33 -130.5
s-53.333 -66.834 -94 -87.501s-88 -31 -142 -31s-101.167 10 -141.5 30z" />
    <glyph glyph-name="slash" unicode="/" horiz-adv-x="904" 
d="M0 -240l485 1856h419l-485 -1856h-419z" />
    <glyph glyph-name="zero" unicode="0" horiz-adv-x="1398" 
d="M240 170c-107.333 126.667 -161 316.667 -161 570s53.667 443.333 161 570s260 190 458 190c198.667 0 351.834 -63.333 459.501 -190s161.5 -316.667 161.5 -570s-53.833 -443.333 -161.5 -570s-260.834 -190 -459.501 -190c-198 0 -350.667 63.333 -458 190zM807.5 370
c28.333 25.333 49.834 67.833 64.501 127.5s22 140.5 22 242.5s-7.33301 182.833 -22 242.5s-36.167 102.167 -64.5 127.5s-64.5 38 -108.5 38s-80.167 -12.667 -108.5 -38s-49.833 -67.833 -64.5 -127.5s-22 -140.5 -22 -242.5s7.16699 -182.833 21.5 -242.5
s35.666 -102.167 63.999 -127.5s64.833 -38 109.5 -38c44 0 80.167 12.667 108.5 38z" />
    <glyph glyph-name="one" unicode="1" horiz-adv-x="899" 
d="M499 1486h281v-1486h-435v981l-316 -214v401z" />
    <glyph glyph-name="two" unicode="2" horiz-adv-x="1133" 
d="M1087 356l0.000976562 -356.001h-1047v232l399 473c56 67.333 95.833 124.166 119.5 170.499s35.5 89.5 35.5 129.5c0 50 -18.5 87.333 -55.5 112s-98.5 37 -184.5 37c-57.333 0 -115.833 -5.16699 -175.5 -15.5s-112.167 -24.166 -157.5 -41.499v348
c46.667 15.333 106.667 28.333 180 39s140.666 16 201.999 16c208 0 363.167 -36.5 465.5 -109.5s153.5 -186.833 153.5 -341.5c0 -76 -15.5 -151.167 -46.5 -225.5s-83.167 -153.166 -156.5 -236.499l-204 -231h472z" />
    <glyph glyph-name="three" unicode="3" horiz-adv-x="1138" 
d="M1011.5 646.5c49 -57.667 73.499 -133.498 73.499 -227.498c0 -139.333 -54 -247.333 -162 -324s-268.667 -115 -482 -115c-140 0 -274.667 16 -404 48v318c58 -14.667 121.5 -26.334 190.5 -35.001s133.833 -13 194.5 -13c90.667 0 156 12.167 196 36.5
s60 61.833 60 112.5s-19.667 87.834 -59 111.501s-106.333 35.5 -201 35.5h-243v322h216c84.667 0 144.5 11.167 179.5 33.5s52.5 55.166 52.5 98.499c0 45.333 -17.667 79 -53 101s-93 33 -173 33c-55.333 0 -113.666 -5 -174.999 -15s-116.333 -23.333 -165 -40v318
c49.333 16 110.333 29.167 183 39.5s141.667 15.5 207 15.5c195.333 0 342.5 -35.333 441.5 -106s148.5 -172.334 148.5 -305.001c0 -80.667 -21 -149.667 -63 -207s-100 -97 -174 -119c92 -20 162.5 -58.833 211.5 -116.5z" />
    <glyph glyph-name="four" unicode="4" horiz-adv-x="1335" 
d="M1308 601v-330h-179v-271h-387v271h-712v235l477 974h412l-421 -879h244l40 379h347v-379h179z" />
    <glyph glyph-name="five" unicode="5" horiz-adv-x="1152" 
d="M862.5 847c85.667 -38 148.333 -88.833 188 -152.5s59.5 -142.167 59.5 -235.5c0 -156.667 -54 -275.667 -162 -357s-268 -122 -480 -122c-137.333 0 -272 18 -404 54v318c58 -14.667 121.5 -26.667 190.5 -36s133.833 -14 194.5 -14c88.667 0 153 12.167 193 36.5
s60 60.5 60 108.5c0 35.333 -10.667 63.666 -32 84.999s-61.333 38.833 -120 52.5s-144 23.834 -256 30.501l-189 10l52 855h894v-330h-509l-15 -228c138 -12 249.833 -37 335.5 -75z" />
    <glyph glyph-name="six" unicode="6" horiz-adv-x="1318" 
d="M1035 867.5c72.667 -32.333 129.839 -82.5 171.506 -150.5s62.5 -153.333 62.5 -256c0 -97.333 -22.333 -182.166 -67 -254.499s-109.334 -128.166 -194.001 -167.499s-184.667 -59 -300 -59c-126 0 -235.333 25.5 -328 76.5s-164.5 129.5 -215.5 235.5
s-76.5 239.333 -76.5 400c0 177.333 30.167 326.166 90.5 446.499s148.166 210.666 263.499 270.999s255.666 90.5 420.999 90.5c132.667 0 241 -15.333 325 -46v-326c-92.667 30.667 -193.334 46 -302.001 46c-120.667 0 -211.834 -27 -273.501 -81
s-95.834 -135.333 -102.501 -244c37.333 21.333 80 37.833 128 49.5s97 17.5 147 17.5c94 0 177.333 -16.167 250 -48.5zM833.505 328c30.333 27.333 45.5 67.666 45.5 120.999c0 54.667 -16.167 95.5 -48.5 122.5s-77.5 40.5 -135.5 40.5
c-68.667 0 -130.334 -16.333 -185.001 -49c3.33301 -70.667 13.5 -126.167 30.5 -166.5s39.333 -68.666 67 -84.999s61.834 -24.5 102.501 -24.5c52 0 93.167 13.667 123.5 41z" />
    <glyph glyph-name="seven" unicode="7" horiz-adv-x="1079" 
d="M11 1480h1011v-232l-434 -1248h-445l421 1124h-553v356z" />
    <glyph glyph-name="eight" unicode="8" horiz-adv-x="1398" 
d="M1269.5 638c37.667 -60 56.502 -131.999 56.502 -215.999c0 -84.667 -23.167 -160.334 -69.5 -227.001s-116.5 -119.167 -210.5 -157.5s-209.333 -57.5 -346 -57.5c-144 0 -263 16.667 -357 50s-163.333 79 -208 137s-67 125 -67 201c0 73.333 21.667 139.166 65 197.499
s106.666 105.5 189.999 141.5c-77.333 45.333 -133 98.333 -167 159s-51 129.334 -51 206.001c0 85.333 23 160 69 224s115.5 114 208.5 150s207.5 54 343.5 54c118 0 219.167 -15 303.5 -45s148.666 -73.167 192.999 -129.5s66.5 -123.5 66.5 -201.5
c0 -143.333 -71 -252.333 -213 -327c91.333 -46 155.833 -99 193.5 -159zM563.502 1174.5c-34.333 -22.333 -51.5 -51.166 -51.5 -86.499c0 -28 7.16699 -51.5 21.5 -70.5s42 -38 83 -57s102.833 -40.5 185.5 -64.5c40.667 27.333 70.167 56.166 88.5 86.499
s27.5 62.833 27.5 97.5c0 41.333 -16.5 73 -49.5 95s-82.167 33 -147.5 33c-70.667 0 -123.167 -11.167 -157.5 -33.5zM925.002 398.001c0 30 -8.66699 55.499 -26 76.499s-48.333 41 -93 60s-109.667 39.167 -195 60.5l-19 5c-41.333 -23.333 -71.833 -51 -91.5 -83
s-29.5 -64.667 -29.5 -98c0 -47.333 18.833 -83.666 56.5 -108.999s95.5 -38 173.5 -38c149.333 0 224 42 224 126z" />
    <glyph glyph-name="nine" unicode="9" horiz-adv-x="1318" 
d="M938 1423.5c92.667 -51 164.495 -129.5 215.495 -235.5s76.5 -239.333 76.5 -400c0 -177.333 -30.167 -326.166 -90.5 -446.499s-148.166 -210.666 -263.499 -270.999s-255.666 -90.5 -420.999 -90.5c-132.667 0 -241 15.333 -325 46v326
c92.667 -30.667 193.334 -46 302.001 -46c120.667 0 211.834 27 273.501 81s95.834 135.333 102.501 244c-37.333 -21.333 -80 -37.833 -128 -49.5s-97 -17.5 -147 -17.5c-94 0 -177.333 16.167 -250 48.5s-129.834 82.5 -171.501 150.5s-62.5 153.333 -62.5 256
c0 97.333 22.333 182.166 67 254.499s109.334 128.166 194.001 167.499s184.667 59 300 59c126 0 235.333 -25.5 328 -76.5zM487.495 908.5c32.333 -27 77.5 -40.5 135.5 -40.5c68.667 0 130.334 16.333 185.001 49c-3.33301 70.667 -13.5 126.167 -30.5 166.5
s-39.333 68.666 -67 84.999s-61.834 24.5 -102.501 24.5c-52 0 -93.167 -13.667 -123.5 -41s-45.5 -67.666 -45.5 -120.999c0 -54.667 16.167 -95.5 48.5 -122.5z" />
    <glyph glyph-name="colon" unicode=":" horiz-adv-x="621" 
d="M168.5 10c-40.333 20 -71.499 48.834 -93.499 86.501s-33 81.834 -33 132.501c0 77.333 23.833 138.333 71.5 183s113.167 67 196.5 67c55.333 0 103.166 -10.333 143.499 -31s71.333 -49.834 93 -87.501s32.5 -81.5 32.5 -131.5c0 -49.333 -11 -92.833 -33 -130.5
s-53.333 -66.834 -94 -87.501s-88 -31 -142 -31s-101.167 10 -141.5 30zM168.501 651.001c-40.333 20 -71.499 48.834 -93.499 86.501s-33 81.834 -33 132.501c0 77.333 23.833 138.333 71.5 183s113.167 67 196.5 67c55.333 0 103.166 -10.333 143.499 -31
s71.333 -49.834 93 -87.501s32.5 -81.5 32.5 -131.5c0 -49.333 -11 -92.833 -33 -130.5s-53.333 -66.834 -94 -87.501s-88 -31 -142 -31s-101.167 10 -141.5 30z" />
    <glyph glyph-name="semicolon" unicode=";" horiz-adv-x="621" 
d="M508 397.5c46 -54.333 68.999 -135.168 68.999 -242.501c0 -88.667 -17.5 -178.667 -52.5 -270s-82.167 -173 -141.5 -245h-241c34 66.667 60.833 127.334 80.5 182.001s32.5 108.334 38.5 161.001c-67.333 9.33301 -120.666 35.666 -159.999 78.999s-59 99 -59 167
c0 78.667 23.333 140 70 184s110.667 66 192 66c90 0 158 -27.167 204 -81.5zM168.499 650.998c-40.333 20 -71.499 48.834 -93.499 86.501s-33 81.834 -33 132.501c0 77.333 23.833 138.333 71.5 183s113.167 67 196.5 67c55.333 0 103.166 -10.333 143.499 -31
s71.333 -49.834 93 -87.501s32.5 -81.5 32.5 -131.5c0 -49.333 -11 -92.833 -33 -130.5s-53.333 -66.834 -94 -87.501s-88 -31 -142 -31s-101.167 10 -141.5 30z" />
    <glyph glyph-name="less" unicode="&#x3c;" horiz-adv-x="1116" 
d="M1020 1294v-320l-636 -212l636 -216v-320l-924 330v408z" />
    <glyph glyph-name="equal" unicode="=" horiz-adv-x="1116" 
d="M96 840v321h924v-321h-924zM96 359v321h924v-321h-924z" />
    <glyph glyph-name="greater" unicode="&#x3e;" horiz-adv-x="1116" 
d="M96 1294l924 -330v-408l-924 -330v320l636 216l-636 212v320z" />
    <glyph glyph-name="question" unicode="?" horiz-adv-x="1051" 
d="M267 873c83.333 11.333 148.832 25.335 196.499 42.002s81 35.667 100 57s28.5 46 28.5 74c0 42 -17.833 73.5 -53.5 94.5s-93.834 31.5 -174.501 31.5c-55.333 0 -113.166 -4.83301 -173.499 -14.5s-115.166 -23.167 -164.499 -40.5v328
c49.333 16 110.333 29.167 183 39.5s141.667 15.5 207 15.5c196 0 343.333 -35.5 442 -106.5s148 -174.167 148 -309.5c0 -104.667 -33.5 -191.334 -100.5 -260.001s-159.833 -118.334 -278.5 -149.001l-29 -142h-258zM327.499 9.00195
c-40.333 19.333 -71.499 46.6709 -93.499 82.0039s-33 77 -33 125c0 73.333 23.833 131.166 71.5 173.499s113.167 63.5 196.5 63.5c55.333 0 103.166 -9.83301 143.499 -29.5s71.333 -47.334 93 -83.001s32.5 -77.167 32.5 -124.5c0 -46.667 -11 -87.834 -33 -123.501
s-53.333 -63.334 -94 -83.001s-88 -29.5 -142 -29.5s-101.167 9.66699 -141.5 29z" />
    <glyph glyph-name="at" unicode="@" horiz-adv-x="2209" 
d="M715.5 563.5c79 59.667 204.496 94.5029 376.496 104.503l127 7c-8 38 -28.167 65 -60.5 81s-83.166 24 -152.499 24c-46 0 -95.667 -4.66699 -149 -14s-102.666 -22 -147.999 -38l2 314c56.667 18 118 31.833 184 41.5s129.667 14.5 191 14.5
c132 0 238.167 -15.833 318.5 -47.5s139.5 -83.334 177.5 -155.001s57 -168.5 57 -290.5v-261c0 -64.667 27.333 -97 82 -97c29.333 0 53.5 8.83301 72.5 26.5s33.5 50.667 43.5 99s14.667 117.5 14 207.5c-1.33301 156.667 -28 282.5 -80 377.5s-131.667 164.333 -239 208
s-247 65.5 -419 65.5c-172.667 0 -312.167 -23.167 -418.5 -69.5s-185.166 -121.5 -236.499 -225.5s-77 -242.667 -77 -416c0 -174.667 26.333 -313.834 79 -417.501s134.834 -178.834 246.501 -225.501s259.5 -70 443.5 -70c165.333 0 329.666 18 492.999 54v-267
c-160.667 -36 -325 -54 -493 -54c-353.333 0 -621.833 80.5 -805.5 241.5s-275.5 407.167 -275.5 738.5c0 330 89.833 575.5 269.5 736.5s437.834 241.5 774.501 241.5c332.667 0 587 -76.5 763 -229.5s264 -379.833 264 -680.5c0 -406.667 -173 -610 -519 -610
c-84.667 0 -157 12.5 -217 37.5s-108.333 63.833 -145 116.5h-21c-18 -55.333 -51 -94.833 -99 -118.5s-104.667 -35.5 -170 -35.5c-77.333 0 -144 13.833 -200 41.5s-98.667 66.5 -128 116.5s-44 107.667 -44 173c0 110 39.5 194.833 118.5 254.5zM1137 452.003
c-42 -2.66699 -73 -11.833 -93 -27.5s-30 -39.167 -30 -70.5c0 -28 9.66699 -48.833 29 -62.5s44 -20.5 74 -20.5c16 0 34.667 2.16699 56 6.5s38.333 10.5 51 18.5v161z" />
    <glyph glyph-name="A" unicode="A" horiz-adv-x="1531" 
d="M1102 0l-94 339h-490l-93 -339h-421l442 1480h639l442 -1480h-425zM612 679h302l-152 547z" />
    <glyph glyph-name="B" unicode="B" horiz-adv-x="1382" 
d="M1272 651c47.333 -56.667 71 -132.334 71 -227.001c0 -96.667 -25.667 -177.667 -77 -243s-134.666 -115.166 -249.999 -149.499s-267 -51.5 -455 -51.5c-63.333 0 -138.333 3.16699 -225 9.5s-162.334 14.166 -227.001 23.499v1428c75.333 17.333 160.5 31.5 255.5 42.5
s183.167 16.5 264.5 16.5c232.667 0 403.167 -34.833 511.5 -104.5s162.5 -176.167 162.5 -319.5c0 -74.667 -20.167 -140.167 -60.5 -196.5s-93.5 -95.166 -159.5 -116.499c78.667 -18 141.667 -55.333 189 -112zM533 1174v-260h159c75.333 0 128.333 11 159 33
s46 57 46 105s-15.667 82.833 -47 104.5s-85 32.5 -161 32.5c-48.667 0 -100.667 -5 -156 -15zM839.5 307c37.667 10.667 64.498 27 80.498 49s24 51 24 87c0 54 -16.667 92.833 -50 116.5s-89.666 35.5 -168.999 35.5h-192v-298c48 -4 98 -6 150 -6
c66.667 0 118.834 5.33301 156.501 16z" />
    <glyph glyph-name="C" unicode="C" horiz-adv-x="1296" 
d="M69 736c0 163.333 33.001 301.999 99.001 415.999s162.833 200.5 290.5 259.5s283.5 88.5 467.5 88.5c114 0 219.667 -10.333 317 -31v-353c-95.333 18.667 -188.333 28 -279 28c-102.667 0 -186.167 -14.167 -250.5 -42.5s-112 -72.166 -143 -131.499
s-46.5 -136 -46.5 -230c0 -96 15 -173.5 45 -232.5s76.5 -102.333 139.5 -130s144.833 -41.5 245.5 -41.5c85.333 0 181.666 13.667 288.999 41v-353c-46.667 -13.333 -99.5 -24 -158.5 -32s-117.167 -12 -174.5 -12c-560.667 0 -841 252 -841 756z" />
    <glyph glyph-name="D" unicode="D" horiz-adv-x="1567" 
d="M328.5 -10.5c-79.667 4.33301 -152.833 10.498 -219.5 18.498v1433c75.333 17.333 159.5 31 252.5 41s183.5 15 271.5 15c288.667 0 505 -61.667 649 -185s216 -314 216 -572c0 -177.333 -34.5 -321.666 -103.5 -432.999s-172.833 -193.166 -311.5 -245.499
s-315.667 -78.5 -531 -78.5c-69.333 0 -143.833 2.16699 -223.5 6.5zM886.501 371.998c55.667 26.667 97.333 69.8301 125 129.497s41.5 139.834 41.5 240.501c0 99.333 -14.5 178.833 -43.5 238.5s-71.667 102.834 -128 129.501s-127.5 40 -213.5 40
c-18 0 -39 -1.16699 -63 -3.5s-44.333 -5.16602 -61 -8.49902v-803c30.667 -2 73 -3 127 -3c88 0 159.833 13.333 215.5 40z" />
    <glyph glyph-name="E" unicode="E" horiz-adv-x="1314" 
d="M538 343h704v-343h-1133v1480h1123v-343h-694v-211h589v-342h-589v-241z" />
    <glyph glyph-name="F" unicode="F" horiz-adv-x="1273" 
d="M1232 1130h-688v-249h583v-350h-583v-531h-435v1480h1123v-350z" />
    <glyph glyph-name="G" unicode="G" horiz-adv-x="1479" 
d="M1369 720v-704.997c-144.667 -23.333 -276.667 -35 -396 -35c-303.333 0 -529.833 62.667 -679.5 188s-224.5 314.666 -224.5 567.999c0 248 77.333 437.333 232 568s383 196 685 196c120 0 231.667 -11.333 335 -34v-353c-102 20.667 -200 31 -294 31
c-122.667 -0.666992 -220.667 -15.334 -294 -44.001s-126.833 -73 -160.5 -133s-50.5 -139.333 -50.5 -238c0 -134.667 34 -234.334 102 -299.001s172.333 -97 313 -97h29v387h403z" />
    <glyph glyph-name="H" unicode="H" horiz-adv-x="1581" 
d="M109 0v1480h435v-535h493v535h435v-1480h-435v565h-493v-565h-435z" />
    <glyph glyph-name="I" unicode="I" horiz-adv-x="653" 
d="M109 0v1480h435v-1480h-435z" />
    <glyph glyph-name="J" unicode="J" horiz-adv-x="653" 
d="M-31 -172c53.333 70.667 90.334 141.333 111.001 212s31 158.667 31 264v1176h433v-1160c0 -130 -22.833 -248.5 -68.5 -355.5s-122.834 -213.167 -231.501 -318.5z" />
    <glyph glyph-name="K" unicode="K" horiz-adv-x="1393" 
d="M986 0l-355 565h-87v-565h-435v1480h435v-535h87l327 535h453l-437 -714l480 -766h-468z" />
    <glyph glyph-name="L" unicode="L" horiz-adv-x="1200" 
d="M109 0v1480h435v-1122h648v-358h-1083z" />
    <glyph glyph-name="M" unicode="M" horiz-adv-x="1957" 
d="M1312 1480h532v-1480h-405v914l-286 -694h-349l-286 660v-880h-405v1480h532l340 -812z" />
    <glyph glyph-name="N" unicode="N" horiz-adv-x="1593" 
d="M1076 1480h408v-1480h-434l-533 828v-828h-408v1480h434l533 -828v828z" />
    <glyph glyph-name="O" unicode="O" horiz-adv-x="1645" 
d="M422 66c-112.667 57.333 -199.667 142.833 -261 256.5s-92 252.834 -92 417.501s30.667 303.834 92 417.501s148.333 199.167 261 256.5s246 86 400 86s287.5 -28.833 400.5 -86.5s200.167 -143.334 261.5 -257.001s92 -252.5 92 -416.5s-30.667 -302.833 -92 -416.5
s-148.5 -199.334 -261.5 -257.001s-246.5 -86.5 -400.5 -86.5s-287.333 28.667 -400 86zM1053 426c52 66 77.999 168.001 77.999 306.001c0 145.333 -26.167 251.833 -78.5 319.5s-129.166 101.5 -230.499 101.5c-100.667 0 -177.167 -32.833 -229.5 -98.5
s-78.5 -167.834 -78.5 -306.501c0 -146.667 25.833 -253.5 77.5 -320.5s128.5 -100.5 230.5 -100.5s179 33 231 99z" />
    <glyph glyph-name="P" unicode="P" horiz-adv-x="1374" 
d="M109 1450c166.667 33.333 331.333 50.001 494 50.001c239.333 0 417.333 -44.833 534 -134.5s175 -229.834 175 -420.501c0 -182 -56.333 -319.833 -169 -413.5s-276.334 -140.5 -491.001 -140.5l-56 1c-11.333 0.666992 -28.666 1 -51.999 1v-393h-435v1450z
M834.999 764.001c38 35.333 57.002 95 57.002 179c0 82.667 -19.833 142.667 -59.5 180s-102.167 56 -187.5 56c-38.667 0 -72.334 -2.66699 -101.001 -8v-453c35.333 -4.66699 72.666 -7 111.999 -7c81.333 0 141 17.667 179 53z" />
    <glyph glyph-name="Q" unicode="Q" horiz-adv-x="1645" 
d="M1459 289c-78 -120 -193 -200.331 -345 -240.998c138.667 -37.333 287.334 -66.666 446.001 -87.999l-72 -335c-356.667 59.333 -639.334 141.166 -848.001 245.499s-356 227.166 -442 368.499s-129 305 -129 491c0 168 30.667 309.5 92 424.5s148.333 201.333 261 259
s246 86.5 400 86.5s287.5 -28.833 400.5 -86.5s200.167 -143.334 261.5 -257.001s92 -252.5 92 -416.5c0 -180.667 -39 -331 -117 -451zM590.5 427.002c51 -66.667 128.166 -99.999 231.499 -99.999c102 0 179 33 231 99s78 168 78 306
c0 145.333 -26.167 251.833 -78.5 319.5s-129.166 101.5 -230.499 101.5c-100.667 0 -177.167 -32.833 -229.5 -98.5s-78.5 -167.834 -78.5 -306.501c0 -147.333 25.5 -254.333 76.5 -321z" />
    <glyph glyph-name="R" unicode="R" horiz-adv-x="1425" 
d="M959 0l-327 496.997l-96 3v-500h-427v1441c76.667 18 160 32.333 250 43s176 16 258 16c226.667 0 397.334 -41.167 512.001 -123.5s172 -208.166 172 -377.499c0 -99.333 -22.333 -184.666 -67 -255.999s-108.334 -127.666 -191.001 -168.999l386 -574h-470z
M536 821.997c46 -5.33301 90.333 -8 133 -8c75.333 0 131.833 14.333 169.5 43s56.5 76 56.5 142c0 124.667 -76 187 -228 187c-44 0 -87.667 -4 -131 -12v-352z" />
    <glyph glyph-name="S" unicode="S" horiz-adv-x="1215" 
d="M296.5 -2.5c-77 11.667 -147.164 27.833 -210.497 48.5v348c62 -20.667 133.667 -37.167 215 -49.5s157 -18.5 227 -18.5c78 0 133.167 9.16699 165.5 27.5s48.5 44.166 48.5 77.499c0 18.667 -4.33301 34.334 -13 47.001s-24.667 24.5 -48 35.5
s-57.333 22.167 -102 33.5l-132 34c-134.667 32.667 -235.834 85.167 -303.501 157.5s-101.5 166.833 -101.5 283.5c0 152.667 56.667 270.5 170 353.5s281.666 124.5 504.999 124.5c139.333 0 263.333 -14.333 372 -43v-348c-45.333 14 -98.833 25 -160.5 33
s-122.5 12 -182.5 12c-100.667 0 -171.334 -9.83301 -212.001 -29.5s-61 -46.167 -61 -79.5c0 -16.667 3.66699 -30.667 11 -42s20.5 -21.833 39.5 -31.5s46.833 -19.5 83.5 -29.5l133 -34c148.667 -36 258 -90 328 -162s105 -167 105 -285
c0 -98 -25.667 -183.167 -77 -255.5s-125.333 -128 -222 -167s-211 -58.5 -343 -58.5c-79.333 0 -157.5 5.83301 -234.5 17.5z" />
    <glyph glyph-name="T" unicode="T" horiz-adv-x="1360" 
d="M462 0v1122h-449v358h1334v-358h-449v-1122h-436z" />
    <glyph glyph-name="U" unicode="U" horiz-adv-x="1548" 
d="M266.5 145.5c-109 110.333 -163.5 278.166 -163.5 503.499v831h435v-872c0 -96 20 -165.833 60 -209.5s100 -65.5 180 -65.5s140 21.833 180 65.5s60 113.5 60 209.5v872h427v-831c0 -225.333 -54 -393.166 -162 -503.499s-276.333 -165.5 -505 -165.5
c-232 0 -402.5 55.167 -511.5 165.5z" />
    <glyph glyph-name="V" unicode="V" horiz-adv-x="1511" 
d="M1095 1480h422l-439 -1480h-645l-439 1480h453l320 -1140z" />
    <glyph glyph-name="W" unicode="W" horiz-adv-x="2389" 
d="M1965 1480h410l-373 -1480h-555l-245 990l-260 -990h-555l-373 1480h438l247 -1065l272 1065h473l261 -1087z" />
    <glyph glyph-name="X" unicode="X" horiz-adv-x="1442" 
d="M973 780l525 -780h-476l-306 466l-305 -466h-471l525 775l-479 705h479l256 -388l256 388h466z" />
    <glyph glyph-name="Y" unicode="Y" horiz-adv-x="1360" 
d="M1413 1480l-513 -871v-609h-435v605l-531 875h457l301 -509l298 509h423z" />
    <glyph glyph-name="Z" unicode="Z" horiz-adv-x="1298" 
d="M619 358h621v-358h-1182v238l610 884h-600v358h1162v-238z" />
    <glyph glyph-name="bracketleft" unicode="[" horiz-adv-x="754" 
d="M129 -440v2056h651v-331h-225v-1394h215v-331h-641z" />
    <glyph glyph-name="backslash" unicode="\" horiz-adv-x="904" 
d="M485 -240l-485 1856h419l485 -1856h-419z" />
    <glyph glyph-name="bracketright" unicode="]" horiz-adv-x="754" 
d="M-16 -440v331h216v1394h-226v331h652v-2056h-642z" />
    <glyph glyph-name="asciicircum" unicode="^" 
d="M1277 740h-409l-207 373l-208 -373h-409l421 740h391z" />
    <glyph glyph-name="underscore" unicode="_" horiz-adv-x="1269" 
d="M85 -332v331h1099v-331h-1099z" />
    <glyph glyph-name="grave" unicode="`" horiz-adv-x="1200" 
d="M406 1220l-294 396h449l233 -396h-388z" />
    <glyph glyph-name="a" unicode="a" horiz-adv-x="1177" 
d="M849 1069.5c81.333 -32.333 141.167 -85.332 179.5 -158.999s57.5 -173.834 57.5 -300.501v-610h-349l-29 101h-18c-57.333 -82 -148.666 -123 -273.999 -123c-77.333 0 -144 14 -200 42s-98.667 67 -128 117s-44 107.333 -44 172c0 110.667 39.667 196.167 119 256.5
s204.666 95.166 375.999 104.499l130 7c-4 30 -13.833 54 -29.5 72s-39.167 31 -70.5 39s-73.333 12 -126 12c-44.667 0 -94 -3.5 -148 -10.5s-104.333 -17.167 -151 -30.5v314c57.333 14.667 119.833 25.834 187.5 33.501s131.834 11.5 192.501 11.5
c135.333 0 243.666 -16.167 324.999 -48.5zM671.001 292.001l-0.000976562 159l-85 -4c-83.333 -4.66699 -125 -37 -125 -97c0 -26.667 8.83301 -47.167 26.5 -61.5s42.834 -21.5 75.501 -21.5c44 0 80 8.33301 108 25z" />
    <glyph glyph-name="b" unicode="b" horiz-adv-x="1298" 
d="M328 -4c-84.667 11.333 -161.667 28.666 -231 51.999v1568h426v-619h19c31.333 40 69.833 70.167 115.5 90.5s97.834 30.5 156.501 30.5c79.333 0 151.666 -20.167 216.999 -60.5s117.333 -101.5 156 -183.5s58 -182.333 58 -301c0 -193.333 -55 -340.666 -165 -441.999
s-276.667 -152 -500 -152c-83.333 0 -167.333 5.66699 -252 17zM768.5 352c33 37.333 49.5 100 49.5 188c0 86.667 -14.5 147.167 -43.5 181.5s-73.167 51.5 -132.5 51.5c-44 0 -83.667 -8 -119 -24v-443c28.667 -6.66699 59 -10 91 -10c70 0 121.5 18.667 154.5 56z" />
    <glyph glyph-name="c" unicode="c" horiz-adv-x="1020" 
d="M213.5 122.5c-107 96.333 -160.499 237.833 -160.499 424.5c0 188.667 56.5 331 169.5 427s274.5 144 484.5 144c95.333 0 182 -8 260 -24v-331c-73.333 10.667 -139 16 -197 16c-98 0 -169 -18.5 -213 -55.5s-66 -94.833 -66 -173.5
c0 -81.333 21.167 -140.5 63.5 -177.5s106.833 -55.5 193.5 -55.5c32.667 0 65.5 2.5 98.5 7.5s73.167 12.833 120.5 23.5v-331c-40 -12 -84.833 -21.5 -134.5 -28.5s-100.834 -10.5 -153.501 -10.5c-203.333 0 -358.5 48.167 -465.5 144.5z" />
    <glyph glyph-name="d" unicode="d" horiz-adv-x="1298" 
d="M282.5 39c-69.667 39.333 -125.335 99.834 -167.002 181.501s-62.5 183.834 -62.5 306.501c0 125.333 23.833 232.166 71.5 320.499s118.334 155.666 212.001 201.999s208.834 69.5 345.501 69.5c24.667 0 55.667 -1.33301 93 -4v501h426v-1616h-357l-25 113h-18
c-31.333 -42 -71 -74.667 -119 -98s-103.333 -35 -166 -35c-86 0 -163.833 19.667 -233.5 59zM716.499 332.501c22.333 5.66699 41.834 13.833 58.501 24.5v436c-34.667 5.33301 -65.334 8 -92.001 8c-70 0 -121.333 -18.5 -154 -55.5s-49 -99.167 -49 -186.5
c0 -86.667 14.333 -147.5 43 -182.5s70.334 -52.5 125.001 -52.5c23.333 0 46.166 2.83301 68.499 8.5z" />
    <glyph glyph-name="e" unicode="e" horiz-adv-x="1163" 
d="M1120 431l-641.998 -0.00195312c4 -35.333 15.333 -62.666 34 -81.999s48.5 -33.333 89.5 -42s98.833 -13 173.5 -13c82 0 175.333 9.66699 280 29v-312c-114.667 -22 -229 -33 -343 -33c-154.667 0 -280.334 20.167 -377.001 60.5s-167.834 102.333 -213.501 186
s-68.5 192.5 -68.5 326.5c0 117.333 21.167 218.333 63.5 303s105 149.834 188 195.501s183.833 68.5 302.5 68.5c168 0 295.5 -50.667 382.5 -152s130.5 -244.333 130.5 -429v-106zM531.502 839.998c-17.667 -12 -31.167 -32 -40.5 -60s-14.333 -66.333 -15 -115h251
c-0.666992 48.667 -5.5 87 -14.5 115s-22.333 48 -40 60s-41.167 18 -70.5 18s-52.833 -6 -70.5 -18z" />
    <glyph glyph-name="f" unicode="f" horiz-adv-x="861" 
d="M660.5 1263c-32.333 -26.667 -48.5 -67.332 -48.5 -121.999v-41h253v-331h-253v-769h-423v769h-160v331h160v21c0 106 21.5 197.667 64.5 275s106.167 136.666 189.5 177.999s184 62 302 62c56.667 0 113 -4 169 -12v-327c-36 4 -68.333 6 -97 6
c-72 0 -124.167 -13.333 -156.5 -40z" />
    <glyph glyph-name="g" unicode="g" horiz-adv-x="1298" 
d="M134 -418v327c62.667 -15.333 125.167 -27 187.5 -35s120.166 -12 173.499 -12c99.333 0 170.833 16.333 214.5 49s65.5 85.334 65.5 158.001v50h-19c-31.333 -40 -69.833 -70.167 -115.5 -90.5s-97.834 -30.5 -156.501 -30.5c-77.333 0 -148.666 20 -213.999 60
s-117.833 100 -157.5 180s-59.5 176.667 -59.5 290c0 188.667 55.5 334 166.5 436s278.167 153.333 501.5 154c81.333 0 165.166 -6 251.499 -18s162.5 -29 228.5 -51v-899c0 -142 -24.167 -257.833 -72.5 -347.5s-121.666 -155.834 -219.999 -198.501
s-224.166 -64 -377.499 -64c-144.667 0 -277 14 -397 42zM775 364v428c-31.333 6 -62 9 -92 9c-67.333 0 -118 -18.5 -152 -55.5s-51 -97.833 -51 -182.5c0 -82.667 14.333 -140.5 43 -173.5s72.667 -49.5 132 -49.5c45.333 0 85.333 8 120 24z" />
    <glyph glyph-name="h" unicode="h" horiz-adv-x="1281" 
d="M97 1616h425.999v-619h19c69.333 80.667 163 121 281 121c70.667 0 133.5 -15.833 188.5 -47.5s98.5 -81.834 130.5 -150.501s48 -156 48 -262v-658h-426v627c0 46.667 -8.83301 79.5 -26.5 98.5s-44.167 28.5 -79.5 28.5c-25.333 0 -50.166 -4.66699 -74.499 -14
s-44.5 -21.666 -60.5 -36.999v-703h-426v1616z" />
    <glyph glyph-name="i" unicode="i" horiz-adv-x="621" 
d="M97 0v1100h427v-1100h-427zM55 1418c0 140 85 210 255 210s255 -70 255 -210s-85 -210 -255 -210s-255 70 -255 210z" />
    <glyph glyph-name="j" unicode="j" horiz-adv-x="621" 
d="M-45 -296c53.333 70.667 90.333 141.332 111 211.999s31 158.667 31 264v920h427v-904c0 -129.333 -22.5 -247.166 -67.5 -353.499s-121.167 -212.5 -228.5 -318.5zM50 1418c0 140 85 210 255 210s255 -70 255 -210s-85 -210 -255 -210s-255 70 -255 210z" />
    <glyph glyph-name="k" unicode="k" horiz-adv-x="1274" 
d="M856 0l-249 398h-84v-398h-426v1616h426v-882h82l224 366h449l-315 -524l352 -576h-459z" />
    <glyph glyph-name="l" unicode="l" horiz-adv-x="620" 
d="M97 0v1616h426v-1616h-426z" />
    <glyph glyph-name="m" unicode="m" horiz-adv-x="1878" 
d="M1683 1006c69.333 -74.667 103.999 -191.334 103.999 -350.001v-656h-425v632c0 44 -8.66699 75.333 -26 94s-42 28 -74 28c-42 0 -78 -11.667 -108 -35c0.666992 -10 1 -26 1 -48v-671h-417v632c0 44.667 -7.83301 76.167 -23.5 94.5s-39.167 27.5 -70.5 27.5
c-24.667 0 -47.667 -4.66699 -69 -14s-38.666 -21.666 -51.999 -36.999v-703h-426v1100h350l28 -104h18c75.333 81.333 176 122 302 122c60 0 114 -11 162 -33s87.667 -55.667 119 -101c44 44.667 93.833 78.167 149.5 100.5s113.834 33.5 174.501 33.5
c119.333 0 213.666 -37.333 282.999 -112z" />
    <glyph glyph-name="n" unicode="n" horiz-adv-x="1281" 
d="M97 1100l350 -0.000976562l28 -104h18c37.333 39.333 82.333 69.5 135 90.5s110.334 31.5 173.001 31.5c119.333 0 214 -37.333 284 -112s105 -190.667 105 -348v-658h-426v630c0 45.333 -8.83301 77.333 -26.5 96s-44.167 28 -79.5 28
c-26.667 0 -51.834 -4.66699 -75.501 -14s-43.5 -21.666 -59.5 -36.999v-703h-426v1100z" />
    <glyph glyph-name="o" unicode="o" horiz-adv-x="1267" 
d="M322.5 43c-87 43.333 -153.665 107.5 -199.998 192.5s-69.5 188.5 -69.5 310.5c0 186 50.167 327.833 150.5 425.5s243.5 146.5 429.5 146.5c123.333 0 228.333 -22 315 -66s152.667 -108.5 198 -193.5s68 -188.5 68 -310.5c0 -122.667 -23.333 -226.5 -70 -311.5
s-113.334 -149.333 -200.001 -193s-190.334 -65.5 -311.001 -65.5c-120 0 -223.5 21.667 -310.5 65zM719.502 317.5c22.333 15 39.167 40.834 50.5 77.501s17 87 17 151c0 65.333 -5.83301 116.666 -17.5 153.999s-28.5 63.5 -50.5 78.5s-50.667 22.5 -86 22.5
c-34.667 0 -63.167 -7.5 -85.5 -22.5s-39.166 -41 -50.499 -78s-17 -87.833 -17 -152.5s5.66699 -115.5 17 -152.5s28 -63 50 -78s50.667 -22.5 86 -22.5s64.166 7.5 86.499 22.5z" />
    <glyph glyph-name="p" unicode="p" horiz-adv-x="1298" 
d="M97 1100l357.001 -0.000976562l25 -115h18c31.333 42 71 74.667 119 98s103.333 35 166 35c86 0 163.833 -19.667 233.5 -59s125.334 -99.833 167.001 -181.5s62.5 -183.834 62.5 -306.501c0 -125.333 -23.833 -232.166 -71.5 -320.499
s-118.334 -155.666 -212.001 -201.999s-208.834 -69.5 -345.501 -69.5c-24.667 0 -55.667 1.33301 -93 4v-423h-426v1540zM768.501 352.499c33 37 49.5 99.168 49.5 186.501c0 86.667 -14.333 147.5 -43 182.5s-70.667 52.5 -126 52.5
c-22.667 0 -45.167 -2.83301 -67.5 -8.5s-41.833 -13.834 -58.5 -24.501v-436c34.667 -5.33301 65 -8 91 -8c70 0 121.5 18.5 154.5 55.5z" />
    <glyph glyph-name="q" unicode="q" horiz-adv-x="1298" 
d="M775 100l-19 0.000976562c-31.333 -40 -69.833 -70.167 -115.5 -90.5s-97.834 -30.5 -156.501 -30.5c-79.333 0 -151.666 20.167 -216.999 60.5s-117.333 101.5 -156 183.5s-58 182.333 -58 301c0 193.333 55.167 340.666 165.5 441.999s277.5 152 501.5 152
c82 0 166.167 -6 252.5 -18s162.5 -29 228.5 -51v-1489h-426v540zM775 348.001v444c-31.333 6 -62.333 9 -93 9c-67.333 0 -117.833 -18.833 -151.5 -56.5s-50.5 -100.167 -50.5 -187.5c0 -86 14.5 -146.333 43.5 -181s72.833 -52 131.5 -52c45.333 0 85.333 8 120 24z" />
    <glyph glyph-name="r" unicode="r" horiz-adv-x="868" 
d="M97 1100h347.001l33 -139h18c49.333 104.667 139.666 157 270.999 157c30 0 60.333 -2.66699 91 -8v-383c-30.667 6.66699 -70 10 -118 10c-42.667 0 -84 -6.5 -124 -19.5s-70.667 -30.5 -92 -52.5v-665h-426v1100z" />
    <glyph glyph-name="s" unicode="s" horiz-adv-x="1031" 
d="M78 29v304.999c54 -16 113.667 -28.667 179 -38s130.666 -14 195.999 -14c55.333 0 94 4.83301 116 14.5s33 23.834 33 42.501c0 12 -3.83301 21.167 -11.5 27.5s-21.5 11.166 -41.5 14.499l-198 34c-104.667 17.333 -182 53 -232 107s-75 128 -75 222
c0 77.333 21 143.833 63 199.5s105.667 98.667 191 129s191.333 45.5 318 45.5c56.667 0 113 -3.33301 169 -10s105.333 -15.667 148 -27v-305c-42 12 -89.833 21.333 -143.5 28s-107.167 10 -160.5 10c-74 0 -124.5 -5.66699 -151.5 -17s-40.5 -26 -40.5 -44
c0 -10.667 4 -18.834 12 -24.501s22 -10.167 42 -13.5l199 -34c101.333 -17.333 177.5 -51.166 228.5 -101.499s76.5 -125.833 76.5 -226.5c0 -77.333 -21.167 -144.166 -63.5 -200.499s-103.666 -99.5 -183.999 -129.5s-175.833 -45 -286.5 -45c-144 0 -271.667 17 -383 51
z" />
    <glyph glyph-name="t" unicode="t" horiz-adv-x="907" 
d="M607 769l0.00195312 -277.999c0 -42.667 4.66699 -75.834 14 -99.501s24.666 -40.5 45.999 -50.5s51 -15 89 -15c23.333 0 57.666 3.33301 102.999 10v-331c-32 -7.33301 -68.5 -13.5 -109.5 -18.5s-79.833 -7.5 -116.5 -7.5c-148.667 0 -261.167 36.333 -337.5 109
s-114.5 185 -114.5 337v344h-160v331h160l79 380h347v-380h252v-331h-252z" />
    <glyph glyph-name="u" unicode="u" horiz-adv-x="1272" 
d="M197.5 92.5c-71 74.333 -106.5 189.833 -106.5 346.5v661h426v-630c0 -45.333 8.5 -77.5 25.5 -96.5s41.833 -28.5 74.5 -28.5c24 0 48.167 4.83301 72.5 14.5s44.166 22.167 59.499 37.5v703h426v-1100h-350l-28 104h-16c-40 -40 -84.667 -70.5 -134 -91.5
s-102.666 -31.5 -159.999 -31.5c-122 0 -218.5 37.167 -289.5 111.5z" />
    <glyph glyph-name="v" unicode="v" horiz-adv-x="1239" 
d="M834 1100h417l-367 -1100h-530l-366 1100h443l201 -709z" />
    <glyph glyph-name="w" unicode="w" horiz-adv-x="1891" 
d="M1476 1100h383l-277 -1100h-463l-170 697l-175 -697h-463l-279 1100h400l137 -641l155 641h463l146 -622z" />
    <glyph glyph-name="x" unicode="x" horiz-adv-x="1205" 
d="M850 559l379 -559h-464l-166 264l-171 -264h-451l375 554l-368 546h464l159 -249l157 249h451z" />
    <glyph glyph-name="y" unicode="y" horiz-adv-x="1239" 
d="M834 1100h417l-515 -1540h-415l149 440h-116l-366 1100h443l202 -704z" />
    <glyph glyph-name="z" unicode="z" horiz-adv-x="1076" 
d="M593 331h436v-331h-962v271l426 498h-416v331h942v-271z" />
    <glyph glyph-name="braceleft" unicode="{" horiz-adv-x="794" 
d="M547.5 733c-31.667 -46.667 -81.834 -80.3301 -150.501 -100.997c68.667 -20.667 118.834 -54.334 150.501 -101.001s47.5 -106.334 47.5 -179.001v-382c0 -32.667 8.83301 -56.334 26.5 -71.001s44.167 -22 79.5 -22h119v-323
c-66.667 -9.33301 -132.334 -14 -197.001 -14c-149.333 0 -262.333 35.333 -339 106s-115 173.334 -115 308.001v404c0 32.667 -10 59 -30 79s-46.333 30 -79 30h-68v330h68c32.667 0 59 10 79 30s30 46.333 30 79v316c0 134.667 38.333 237.334 115 308.001
s189.667 106 339 106c64.667 0 130.334 -4.66699 197.001 -14v-323h-119c-35.333 0 -61.833 -7.33301 -79.5 -22s-26.5 -38.334 -26.5 -71.001v-294c0 -72.667 -15.833 -132.334 -47.5 -179.001z" />
    <glyph glyph-name="bar" unicode="|" horiz-adv-x="598" 
d="M109 -440v2056h381v-2056h-381z" />
    <glyph glyph-name="braceright" unicode="}" horiz-adv-x="794" 
d="M802 797v-330.004h-68c-32 0 -58 -10 -78 -30s-30 -46.333 -30 -79v-404c0 -134.667 -38.333 -237.334 -115 -308.001s-190 -106 -340 -106c-64.667 0 -130.334 4.66699 -197.001 14v323h119c36 0 62.833 7.33301 80.5 22s26.5 38.334 26.5 71.001v382
c0 72.667 16 132.334 48 179.001s82.333 80.334 151 101.001c-68.667 20.667 -119 54.334 -151 101.001s-48 106.334 -48 179.001v294c0 32.667 -8.83301 56.334 -26.5 71.001s-44.5 22 -80.5 22h-119v323c66.667 9.33301 132.334 14 197.001 14
c150 0 263.333 -35.333 340 -106s115 -173.334 115 -308.001v-316c0 -32.667 10 -59 30 -79s46 -30 78 -30h68z" />
    <glyph glyph-name="asciitilde" unicode="~" horiz-adv-x="1116" 
d="M655.5 560.5c-34.333 11 -75.166 26.833 -122.499 47.5c-40.667 18 -74.667 31.5 -102 40.5s-55 13.5 -83 13.5c-48.667 0 -92.5 -8.5 -131.5 -25.5s-79.167 -45.167 -120.5 -84.5v322c34.667 36 72.167 62 112.5 78s88.166 24 143.499 24c38 0 74.167 -5.5 108.5 -16.5
s75.166 -26.833 122.499 -47.5c40.667 -18 74.667 -31.5 102 -40.5s55 -13.5 83 -13.5c48.667 0 92.5 8.5 131.5 25.5s79.167 45.167 120.5 84.5v-322c-34.667 -36 -72.167 -62 -112.5 -78s-88.166 -24 -143.499 -24c-38 0 -74.167 5.5 -108.5 16.5z" />
    <glyph glyph-name="uni00A0" unicode="&#xa0;" horiz-adv-x="512" 
 />
    <glyph glyph-name="exclamdown" unicode="&#xa1;" horiz-adv-x="661" 
d="M472 1089c40.667 -20.667 71.999 -49.833 93.999 -87.5s33 -81.167 33 -130.5c0 -50 -10.833 -93.833 -32.5 -131.5s-52.667 -66.834 -93 -87.501s-88.166 -31 -143.499 -31c-83.333 0 -148.833 22.333 -196.5 67s-71.5 105.667 -71.5 183c0 50.667 11 94.834 33 132.501
s53.167 66.5 93.5 86.5s87.5 30 141.5 30s101.333 -10.333 142 -31zM203.999 541.001h258l95 -450v-471h-453v471z" />
    <glyph glyph-name="cent" unicode="&#xa2;" horiz-adv-x="1025" 
d="M557 723.5c-44 -37 -66.0029 -94.834 -66.0029 -173.501c0 -81.333 21.167 -140.5 63.5 -177.5s106.833 -55.5 193.5 -55.5c32.667 0 65.5 2.5 98.5 7.5s73.167 12.833 120.5 23.5v-331c-47.333 -14 -97.666 -24.333 -150.999 -31v-226h-361v242
c-131.333 31.333 -231.166 92.833 -299.499 184.5s-102.5 211.834 -102.5 360.501c0 146 34.333 264.5 103 355.5s168.334 153.167 299.001 186.5v251h361v-226c58 -4 108.333 -10.667 151 -20v-331c-73.333 10.667 -139 16 -197 16c-98 0 -169 -18.5 -213 -55.5z" />
    <glyph glyph-name="sterling" unicode="&#xa3;" horiz-adv-x="1395" 
d="M1344 343v-343h-1274v343h180v252h-180v310h180v71c0 170.667 57.167 300.667 171.5 390s287.166 134 518.499 134c64.667 0 127.834 -3.5 189.501 -10.5s117.5 -16.167 167.5 -27.5v-348c-44.667 12 -97 21.667 -157 29s-116 11 -168 11
c-78.667 0 -139.667 -5.5 -183 -16.5s-73.833 -27.833 -91.5 -50.5s-26.5 -53.667 -26.5 -93v-89h425v-310h-425v-252h673z" />
    <glyph glyph-name="currency" unicode="&#xa4;" 
d="M1121 476l119.999 -118l-199 -198l-118 120l-95 110c-52.667 -22.667 -109 -34 -169 -34s-116.333 11.333 -169 34l-95 -110l-118 -120l-198 198l120 118l107 92c-24.667 51.333 -37 108.666 -37 171.999c0 62 12.333 119.333 37 172l-107 92l-120 118l198 198l118 -120
l97 -111c52.667 22 108.334 33 167.001 33s114.667 -11 168 -33l96 111l118 120l199 -198l-120 -118l-108 -93c24.667 -51.333 37 -108.333 37 -171c0 -61.333 -12 -118.666 -36 -171.999zM554.499 623.5c27.667 -29 62.833 -43.5 105.5 -43.5
c43.333 0 78.833 14.5 106.5 43.5s41.5 67.833 41.5 116.5c0 46 -13.667 84.167 -41 114.5s-62.333 45.5 -105 45.5c-44 0 -79.833 -14.333 -107.5 -43s-41.5 -67.667 -41.5 -117c0 -48.667 13.833 -87.5 41.5 -116.5z" />
    <glyph glyph-name="yen" unicode="&#xa5;" horiz-adv-x="1358" 
d="M1412 1480l-394 -669h191v-242h-310v-90h310v-242h-310v-237h-435v237h-310v242h310v90h-310v242h185l-406 669h457l301 -510l298 510h423z" />
    <glyph glyph-name="brokenbar" unicode="&#xa6;" horiz-adv-x="598" 
d="M109 836v780h381v-780h-381zM109 -440v780h381v-780h-381z" />
    <glyph glyph-name="section" unicode="&#xa7;" horiz-adv-x="1173" 
d="M983 516c39.333 -45.333 58.998 -102.329 58.998 -170.996c0 -75.333 -20.833 -140.5 -62.5 -195.5s-103.667 -97.333 -186 -127s-183.166 -44.5 -302.499 -44.5c-57.333 0 -117.5 3.66699 -180.5 11s-121.5 17.666 -175.5 30.999v287c109.333 -28 226 -42 350 -42
c67.333 0 113.333 5 138 15s37 24 37 42c0 12.667 -4.16699 22.667 -12.5 30s-22.166 12.666 -41.499 15.999l-251 48c-86.667 17.333 -155.167 51.666 -205.5 102.999s-75.5 122.333 -75.5 213s37 166.667 111 228c-42.667 46 -64 101.667 -64 167
c0 117.333 47.667 208.5 143 273.5s243.333 97.5 444 97.5c50 0 100.667 -2.33301 152 -7s98 -11 140 -19v-287c-82 17.333 -168.333 26 -259 26c-158.667 0 -238 -20.333 -238 -61c0 -11.333 4.5 -20.333 13.5 -27s23.167 -11.667 42.5 -15l262 -46
c88.667 -16.667 157.167 -49.834 205.5 -99.501s72.5 -120.5 72.5 -212.5c0 -92.667 -38.667 -170.667 -116 -234zM706.998 637.004c17.333 16.667 29.499 31.3311 36.499 43.998s10.5 26.334 10.5 41.001c0 20 -6 36.5 -18 49.5s-33.333 22.5 -64 28.5l-220 42
c-11.333 -17.333 -19.666 -32.666 -24.999 -45.999s-8 -27 -8 -41c0 -20.667 6.16699 -37.5 18.5 -50.5s33.833 -22.5 64.5 -28.5z" />
    <glyph glyph-name="dieresis" unicode="&#xa8;" horiz-adv-x="1200" 
d="M173 1268.5c-38 35.667 -57 85.5 -57 149.5s19 113.833 57 149.5s92.333 53.5 163 53.5s124.834 -17.833 162.501 -53.5s56.5 -85.5 56.5 -149.5s-18.833 -113.833 -56.5 -149.5s-91.834 -53.5 -162.501 -53.5s-125 17.833 -163 53.5zM701.5 1268.5
c-37.667 35.667 -56.5 85.5 -56.5 149.5s18.833 113.833 56.5 149.5s91.834 53.5 162.501 53.5s125 -17.833 163 -53.5s57 -85.5 57 -149.5s-19 -113.833 -57 -149.5s-92.333 -53.5 -163 -53.5s-124.834 17.833 -162.501 53.5z" />
    <glyph glyph-name="copyright" unicode="&#xa9;" horiz-adv-x="1638" 
d="M425 73c-113.333 63.333 -201 152.5 -263 267.5s-93 248.167 -93 399.5s31 284.5 93 399.5s149.667 204.167 263 267.5s244.666 95 393.999 95s280.666 -31.667 393.999 -95s201 -152.5 263 -267.5s93 -248.167 93 -399.5s-31 -284.5 -93 -399.5
s-149.667 -204.167 -263 -267.5s-244.666 -95 -393.999 -95s-280.666 31.667 -393.999 95zM1104.5 256.5c79 44.333 139.167 107.666 180.5 189.999s62 180.166 62 293.499s-20.667 211.166 -62 293.499s-101.5 145.666 -180.5 189.999s-174.167 66.5 -285.5 66.5
s-206.5 -22.167 -285.5 -66.5s-139.167 -107.666 -180.5 -189.999s-62 -180.166 -62 -293.499s20.667 -211.166 62 -293.499s101.5 -145.666 180.5 -189.999s174.167 -66.5 285.5 -66.5s206.5 22.167 285.5 66.5zM652.5 372.5c-67 32.333 -118.667 79.168 -155 140.501
s-54.5 134.333 -54.5 219c0 85.333 18.667 159 56 221s90.333 109.333 159 142s149.667 49 243 49c69.333 0 133.333 -7.33301 192 -22v-250c-64 10.667 -118.667 16 -164 16c-124 0 -186 -52 -186 -156c0 -48.667 15 -86.167 45 -112.5s73 -39.5 129 -39.5
c28 0 54.5 1.66699 79.5 5s57.167 9.66602 96.5 18.999v-250c-55.333 -20 -123.333 -30 -204 -30c-90.667 0 -169.5 16.167 -236.5 48.5z" />
    <glyph glyph-name="ordfeminine" unicode="&#xaa;" horiz-adv-x="982" 
d="M715 1461c71.333 -27.333 123.833 -71.668 157.5 -133.001s50.5 -144.333 50.5 -249v-469h-326l-28 81h-17c-22.667 -34 -53.334 -59 -92.001 -75s-82.334 -24 -131.001 -24c-66.667 0 -123.167 11.5 -169.5 34.5s-81.333 54.5 -105 94.5s-35.5 86 -35.5 138
c0 92.667 32 162.334 96 209.001s167.333 72.667 310 78l105 4c-4 22.667 -18.833 39.5 -44.5 50.5s-70.167 16.5 -133.5 16.5c-39.333 0 -81 -2.83301 -125 -8.5s-85.333 -13.5 -124 -23.5v280c50.667 12 104.834 21.167 162.501 27.5s112.834 9.5 165.501 9.5
c118 0 212.667 -13.667 284 -41zM531 849.998v118.999l-45 -1c-28.667 -0.666992 -49.5 -6.16699 -62.5 -16.5s-19.5 -25.166 -19.5 -44.499c0 -20.667 6.5 -36.167 19.5 -46.5s31.5 -15.5 55.5 -15.5c20.667 0 38 1.66699 52 5z" />
    <glyph glyph-name="guillemotleft" unicode="&#xab;" horiz-adv-x="1371" 
d="M314 130l-248 440l248 440h431l-248 -440l248 -440h-431zM915 130l-248 440l248 440h431l-248 -440l248 -440h-431z" />
    <glyph glyph-name="logicalnot" unicode="&#xac;" horiz-adv-x="1332" 
d="M906 200v400h-810v320h1145v-720h-335z" />
    <glyph glyph-name="uni00AD" unicode="&#xad;" horiz-adv-x="957" 
d="M96 399v342h765v-342h-765z" />
    <glyph glyph-name="registered" unicode="&#xae;" horiz-adv-x="1394" 
d="M1014.5 1420c92.333 -52 164.166 -124.667 215.499 -218s77 -200 77 -320s-25.667 -226.5 -77 -319.5s-123.166 -165.333 -215.499 -217s-198.166 -77.5 -317.499 -77.5s-225.166 25.833 -317.499 77.5s-164.166 124 -215.499 217s-77 199.5 -77 319.5
s25.667 226.667 77 320s123.166 166 215.499 218s198.166 78 317.499 78s225.166 -26 317.499 -78zM930 480.5c66.667 37.667 118.167 91 154.5 160s54.5 149.5 54.5 241.5c0 92.667 -18.167 173.667 -54.5 243s-87.833 122.833 -154.5 160.5s-144.334 56.5 -233.001 56.5
s-166.334 -18.833 -233.001 -56.5s-118.167 -91.167 -154.5 -160.5s-54.5 -150.333 -54.5 -243c0 -92 18.167 -172.5 54.5 -241.5s87.833 -122.333 154.5 -160s144.334 -56.5 233.001 -56.5s166.334 18.833 233.001 56.5zM925.5 875.5
c-18.333 -29.667 -46.499 -51.832 -84.499 -66.499l144 -209h-182l-128 186h-28l-6 -186h-166v592h214c89.333 0 155.666 -16.833 198.999 -50.5s65 -84.834 65 -153.501c0 -45.333 -9.16699 -82.833 -27.5 -112.5zM647.001 918.002h68c50.667 0 76 23.333 76 70
c0 24 -6.66699 42 -20 54s-32 18 -56 18h-68v-142z" />
    <glyph glyph-name="macron" unicode="&#xaf;" horiz-adv-x="1200" 
d="M214 1295v248h772v-248h-772z" />
    <glyph glyph-name="degree" unicode="&#xb0;" horiz-adv-x="966" 
d="M280 772.5c-60 33.667 -107.167 80.167 -141.5 139.5s-51.5 126 -51.5 200s17.167 140.5 51.5 199.5s81.5 105.167 141.5 138.5s127.667 50 203 50s143 -16.667 203 -50s107.167 -79.5 141.5 -138.5s51.5 -125.5 51.5 -199.5s-17.167 -140.667 -51.5 -200
s-81.5 -105.833 -141.5 -139.5s-127.667 -50.5 -203 -50.5s-143 16.833 -203 50.5zM585.5 1000.5c27 27.667 40.5 64.834 40.5 111.501s-13.667 83.5 -41 110.5s-61.333 40.5 -102 40.5s-74.667 -13.5 -102 -40.5s-41 -63.833 -41 -110.5s13.5 -83.834 40.5 -111.501
s61.167 -41.5 102.5 -41.5s75.5 13.833 102.5 41.5z" />
    <glyph glyph-name="plusminus" unicode="&#xb1;" horiz-adv-x="1116" 
d="M391 398v276h-295v321h295v275h334v-275h295v-321h-295v-276h-334zM96 1v321h924v-321h-924z" />
    <glyph glyph-name="uni00B2" unicode="&#xb2;" horiz-adv-x="900" 
d="M829 130l0.000976562 -266.001h-753v172l275 310c37.333 42.667 64.166 78.667 80.499 108s24.5 55.666 24.5 78.999c0 30 -12 52.167 -36 66.5s-66.333 21.5 -127 21.5c-38 0 -78 -3.66699 -120 -11s-78.667 -16.666 -110 -27.999v259c36 11.333 79.5 20.333 130.5 27
s101.167 10 150.5 10c148 0 258.667 -25.167 332 -75.5s110 -128.833 110 -235.5c0 -50.667 -11.333 -100.667 -34 -150s-58.667 -101.666 -108 -156.999l-119 -130h304z" />
    <glyph glyph-name="uni00B3" unicode="&#xb3;" horiz-adv-x="900" 
d="M767 302c32 -38.667 48 -89.665 48 -152.998c0 -95.333 -38.5 -169 -115.5 -221s-191.833 -78 -344.5 -78c-100.667 0 -196.667 10.667 -288 32v237c42.667 -10.667 88.167 -18.834 136.5 -24.501s93.166 -8.5 134.499 -8.5c59.333 0 101.5 7 126.5 21
s37.5 35.333 37.5 64s-11.167 49.667 -33.5 63s-60.833 20 -115.5 20h-199v239h187c44.667 0 76.334 6.16699 95.001 18.5s28 30.166 28 53.499c0 26 -11.5 45.5 -34.5 58.5s-61.167 19.5 -114.5 19.5c-38 0 -78.833 -3.5 -122.5 -10.5s-81.834 -16.5 -114.501 -28.5v237
c34.667 10.667 78 19.5 130 26.5s101.333 10.5 148 10.5c142 0 248.5 -24.167 319.5 -72.5s106.5 -118.166 106.5 -209.499c0 -53.333 -13.667 -99.333 -41 -138s-64.666 -65 -111.999 -79c60 -12.667 106 -38.334 138 -77.001z" />
    <glyph glyph-name="acute" unicode="&#xb4;" horiz-adv-x="1200" 
d="M406 1220l233 396h449l-294 -396h-388z" />
    <glyph glyph-name="uni00B5" unicode="&#xb5;" horiz-adv-x="1272" 
d="M1175 1100l0.000976562 -1100h-350l-28 104h-16c-55.333 -82 -121.666 -123 -198.999 -123c-20.667 0 -42.334 2.66699 -65.001 8v-429h-426v1539h426v-629c0 -45.333 8.5 -77.5 25.5 -96.5s41.833 -28.5 74.5 -28.5c24 0 48.167 4.83301 72.5 14.5
s44.166 22.167 59.499 37.5v703h426z" />
    <glyph glyph-name="paragraph" unicode="&#xb6;" horiz-adv-x="1374" 
d="M547 392l-64 -0.999023c-137.333 0 -241.833 46.833 -313.5 140.5s-107.5 231.5 -107.5 413.5c0 129.333 17.167 234.666 51.5 315.999s87.5 141.5 159.5 180.5s165.333 58.5 280 58.5c102.667 0 198.667 -6.66699 288 -20v-1480h-294v392zM971 0.000976562v1480h294
v-1480h-294z" />
    <glyph glyph-name="periodcentered" unicode="&#xb7;" horiz-adv-x="621" 
d="M168.5 341c-40.333 20 -71.499 48.834 -93.499 86.501s-33 81.834 -33 132.501c0 77.333 23.833 138.166 71.5 182.499s113.167 66.5 196.5 66.5c55.333 0 103.166 -10.333 143.499 -31s71.333 -49.667 93 -87s32.5 -81 32.5 -131c0 -49.333 -11 -92.833 -33 -130.5
s-53.333 -66.834 -94 -87.501s-88 -31 -142 -31s-101.167 10 -141.5 30z" />
    <glyph glyph-name="cedilla" unicode="&#xb8;" horiz-adv-x="1200" 
d="M835.5 -142c28.333 -32 42.501 -72.667 42.501 -122c0 -62 -24 -110.167 -72 -144.5s-119.667 -51.5 -215 -51.5c-66.667 0 -129.667 9.66699 -189 29v152c24.667 -8.66699 52.5 -15.5 83.5 -20.5s58.833 -7.5 83.5 -7.5c32 0 55.667 4.66699 71 14s23 25.333 23 48
c0 42.667 -31.667 64 -95 64h-52v201h194v-97c55.333 -11.333 97.166 -33 125.499 -65z" />
    <glyph glyph-name="uni00B9" unicode="&#xb9;" horiz-adv-x="900" 
d="M660 130h188v-266h-723v266h199v380l-192 -116v286l310 188h218v-738z" />
    <glyph glyph-name="ordmasculine" unicode="&#xba;" horiz-adv-x="1054" 
d="M254.5 646.5c-75 36.333 -131.833 88.5 -170.5 156.5s-58 149.333 -58 244s19.333 176 58 244s95.5 120.167 170.5 156.5s165.833 54.5 272.5 54.5s197.5 -18.5 272.5 -55.5s132 -89.667 171 -158s58.5 -148.833 58.5 -241.5s-19.5 -173.167 -58.5 -241.5
s-96 -121 -171 -158s-165.833 -55.5 -272.5 -55.5s-197.5 18.167 -272.5 54.5zM608.5 914.5c18.333 25 27.5 69.167 27.5 132.5c0 64 -9.16699 108.333 -27.5 133s-45.5 37 -81.5 37c-35.333 0 -62.166 -12.5 -80.499 -37.5s-27.5 -69.167 -27.5 -132.5
s9.16699 -107.5 27.5 -132.5s45.166 -37.5 80.499 -37.5c36 0 63.167 12.5 81.5 37.5z" />
    <glyph glyph-name="guillemotright" unicode="&#xbb;" horiz-adv-x="1371" 
d="M26 130l248 440l-248 440h431l248 -440l-248 -440h-431zM627 130l248 440l-248 440h431l248 -440l-248 -440h-431z" />
    <glyph glyph-name="onequarter" unicode="&#xbc;" horiz-adv-x="2232" 
d="M660 882h188v-266h-723v266h199v380l-192 -116v286l310 188h218v-738zM535 -136l812 1752h350l-812 -1752h-350zM2211 283v-246h-112v-173h-291v173h-454v176l280 651h306l-245 -581h113l59 243h232v-243h112z" />
    <glyph glyph-name="onehalf" unicode="&#xbd;" horiz-adv-x="2232" 
d="M660 882h188v-266h-723v266h199v380l-192 -116v286l310 188h218v-738zM535 -136l812 1752h350l-812 -1752h-350zM2161 130l0.000976562 -266.001h-753v172l275 310c37.333 42.667 64.166 78.667 80.499 108s24.5 55.666 24.5 78.999c0 30 -12 52.167 -36 66.5
s-66.333 21.5 -127 21.5c-38 0 -78 -3.66699 -120 -11s-78.667 -16.666 -110 -27.999v259c36 11.333 79.5 20.333 130.5 27s101.167 10 150.5 10c148 0 258.667 -25.167 332 -75.5s110 -128.833 110 -235.5c0 -50.667 -11.333 -100.667 -34 -150
s-58.667 -101.666 -108 -156.999l-119 -130h304z" />
    <glyph glyph-name="threequarters" unicode="&#xbe;" horiz-adv-x="2232" 
d="M767 1054c32 -38.667 48 -89.665 48 -152.998c0 -95.333 -38.5 -169 -115.5 -221s-191.833 -78 -344.5 -78c-100.667 0 -196.667 10.667 -288 32v237c42.667 -10.667 88.167 -18.834 136.5 -24.501s93.166 -8.5 134.499 -8.5c59.333 0 101.5 7 126.5 21
s37.5 35.333 37.5 64s-11.167 49.667 -33.5 63s-60.833 20 -115.5 20h-199v239h187c44.667 0 76.334 6.16699 95.001 18.5s28 30.166 28 53.499c0 26 -11.5 45.5 -34.5 58.5s-61.167 19.5 -114.5 19.5c-38 0 -78.833 -3.5 -122.5 -10.5s-81.834 -16.5 -114.501 -28.5v237
c34.667 10.667 78 19.5 130 26.5s101.333 10.5 148 10.5c142 0 248.5 -24.167 319.5 -72.5s106.5 -118.166 106.5 -209.499c0 -53.333 -13.667 -99.333 -41 -138s-64.666 -65 -111.999 -79c60 -12.667 106 -38.334 138 -77.001zM535 -135.998l812 1752h350l-812 -1752h-350z
M2211 283.002v-246h-112v-173h-291v173h-454v176l280 651h306l-245 -581h113l59 243h232v-243h112z" />
    <glyph glyph-name="questiondown" unicode="&#xbf;" horiz-adv-x="1051" 
d="M723 1091c40.667 -19.333 72 -46.6709 94 -82.0039s33 -77 33 -125c0 -73.333 -23.833 -131.166 -71.5 -173.499s-113.5 -63.5 -197.5 -63.5c-54.667 0 -102.167 9.83301 -142.5 29.5s-71.333 47.334 -93 83.001s-32.5 77.167 -32.5 124.5c0 46.667 11 87.834 33 123.501
s53.167 63.334 93.5 83.001s87.5 29.5 141.5 29.5s101.333 -9.66699 142 -29zM784 226.995c-83.333 -11.333 -148.832 -25.335 -196.499 -42.002s-81 -35.667 -100 -57s-28.5 -46 -28.5 -74c0 -42 17.833 -73.5 53.5 -94.5s93.834 -31.5 174.501 -31.5
c55.333 0 113.166 4.83301 173.499 14.5s115.166 23.167 164.499 40.5v-328c-49.333 -16 -110.5 -29.167 -183.5 -39.5s-142.167 -15.5 -207.5 -15.5c-196 0 -343.167 35.5 -441.5 106.5s-147.5 174.167 -147.5 309.5c0 104.667 33.5 191.334 100.5 260.001
s159.833 118.334 278.5 149.001l29 142h258z" />
    <glyph glyph-name="Agrave" unicode="&#xc0;" horiz-adv-x="1531" 
d="M1102 0l-94 339h-490l-93 -339h-421l442 1480h639l442 -1480h-425zM612 679h302l-152 547zM573 1586l-246 316h445l183 -316h-382z" />
    <glyph glyph-name="Aacute" unicode="&#xc1;" horiz-adv-x="1531" 
d="M1102 0l-94 339h-490l-93 -339h-421l442 1480h639l442 -1480h-425zM612 679h302l-152 547zM571 1586l183 316h445l-246 -316h-382z" />
    <glyph glyph-name="Acircumflex" unicode="&#xc2;" horiz-adv-x="1531" 
d="M1102 0l-94 339h-490l-93 -339h-421l442 1480h639l442 -1480h-425zM612 679h302l-152 547zM1204 1586h-311l-129 166l-129 -166h-311l263 316h354z" />
    <glyph glyph-name="Atilde" unicode="&#xc3;" horiz-adv-x="1531" 
d="M1102 0l-94 339h-490l-93 -339h-421l442 1480h639l442 -1480h-425zM612 679h302l-152 547zM850.5 1596.5c-30.333 7 -65.165 16.834 -104.498 29.501c-38.667 12 -70.5 21 -95.5 27s-51.167 9 -78.5 9c-43.333 0 -81.5 -5.5 -114.5 -16.5s-67.5 -28.833 -103.5 -53.5v233
c30.667 26.667 63.667 46.167 99 58.5s77.666 18.5 126.999 18.5c34 0 65.833 -3.5 95.5 -10.5s65.167 -17.167 106.5 -30.5c37.333 -12.667 68.666 -22 93.999 -28s52 -9 80 -9c43.333 0 81.5 5.5 114.5 16.5s67.5 28.833 103.5 53.5v-233
c-30 -26.667 -62.667 -45.834 -98 -57.501s-78 -17.5 -128 -17.5c-34.667 0 -67.167 3.5 -97.5 10.5z" />
    <glyph glyph-name="Adieresis" unicode="&#xc4;" horiz-adv-x="1531" 
d="M1102 0l-94 339h-490l-93 -339h-421l442 1480h639l442 -1480h-425zM612 679h302l-152 547zM327.5 1616.5c-37 31 -55.5 75.5 -55.5 133.5s18.5 102.5 55.5 133.5s91.5 46.5 163.5 46.5s126.333 -15.5 163 -46.5s55 -75.5 55 -133.5s-18.333 -102.5 -55 -133.5
s-91 -46.5 -163 -46.5s-126.5 15.5 -163.5 46.5zM874 1616.5c-36.667 31 -55 75.5 -55 133.5s18.333 102.5 55 133.5s91 46.5 163 46.5s126.5 -15.5 163.5 -46.5s55.5 -75.5 55.5 -133.5s-18.5 -102.5 -55.5 -133.5s-91.5 -46.5 -163.5 -46.5s-126.333 15.5 -163 46.5z" />
    <glyph glyph-name="Aring" unicode="&#xc5;" horiz-adv-x="1531" 
d="M1102 0l-94 339h-490l-93 -339h-421l442 1480h639l442 -1480h-425zM612 679h302l-152 547zM647 1598.5c-34.667 19 -61.834 45.167 -81.501 78.5s-29.5 71 -29.5 113s9.83301 79.667 29.5 113s46.834 59.5 81.501 78.5s73.667 28.5 117 28.5s82.333 -9.5 117 -28.5
s61.834 -45.167 81.501 -78.5s29.5 -71 29.5 -113s-9.83301 -79.667 -29.5 -113s-46.834 -59.5 -81.501 -78.5s-73.667 -28.5 -117 -28.5s-82.333 9.5 -117 28.5zM820.5 1730.5c14.333 15 21.5 34.833 21.5 59.5s-7.16699 44.5 -21.5 59.5s-33.166 22.5 -56.499 22.5
s-42.166 -7.5 -56.499 -22.5s-21.5 -34.833 -21.5 -59.5s7.16699 -44.5 21.5 -59.5s33.166 -22.5 56.499 -22.5s42.166 7.5 56.499 22.5z" />
    <glyph glyph-name="AE" unicode="&#xc6;" horiz-adv-x="2113" 
d="M1404 343h637v-343h-1038l-27 338h-455l-93 -338h-424l442 1480h1585v-343h-701l20 -211h576v-342h-544zM616 680h333l-37 457h-170z" />
    <glyph glyph-name="Ccedilla" unicode="&#xc7;" horiz-adv-x="1296" 
d="M713.5 1101.5c-64.333 -28.333 -111.997 -72.167 -142.997 -131.5s-46.5 -136 -46.5 -230c0 -96 15 -173.5 45 -232.5s76.5 -102.333 139.5 -130s144.833 -41.5 245.5 -41.5c85.333 0 181.666 13.667 288.999 41v-353c-46.667 -13.333 -99.5 -24 -158.5 -32
s-117.167 -12 -174.5 -12c-25.333 0 -44 0.333008 -56 1v-57c62.667 -10 109.667 -30.833 141 -62.5s47 -72.5 47 -122.5c0 -62.667 -25.167 -111.5 -75.5 -146.5s-127.5 -52.5 -231.5 -52.5c-74.667 0 -144.334 9.66699 -209.001 29v152c27.333 -9.33301 58 -16.333 92 -21
s65.667 -7 95 -7c39.333 0 68.166 4.66699 86.499 14s27.5 25 27.5 47c0 22.667 -9.66699 39.167 -29 49.5s-48 15.5 -86 15.5h-52v181c-394 68.667 -591 314 -591 736c0 163.333 33 302 99 416s162.833 200.5 290.5 259.5s283.5 88.5 467.5 88.5
c114 0 219.667 -10.333 317 -31v-353c-95.333 18.667 -188.333 28 -279 28c-102.667 0 -186.167 -14.167 -250.5 -42.5z" />
    <glyph glyph-name="Egrave" unicode="&#xc8;" horiz-adv-x="1314" 
d="M538 343h704v-343h-1133v1480h1123v-343h-694v-211h589v-342h-589v-241zM501 1586l-246 316h445l183 -316h-382z" />
    <glyph glyph-name="Eacute" unicode="&#xc9;" horiz-adv-x="1314" 
d="M538 343h704v-343h-1133v1480h1123v-343h-694v-211h589v-342h-589v-241zM499 1586l183 316h445l-246 -316h-382z" />
    <glyph glyph-name="Ecircumflex" unicode="&#xca;" horiz-adv-x="1314" 
d="M538 343h704v-343h-1133v1480h1123v-343h-694v-211h589v-342h-589v-241zM1132 1586h-311l-129 166l-129 -166h-311l263 316h354z" />
    <glyph glyph-name="Edieresis" unicode="&#xcb;" horiz-adv-x="1314" 
d="M538 343h704v-343h-1133v1480h1123v-343h-694v-211h589v-342h-589v-241zM255.5 1616.5c-37 31 -55.5 75.5 -55.5 133.5s18.5 102.5 55.5 133.5s91.5 46.5 163.5 46.5s126.333 -15.5 163 -46.5s55 -75.5 55 -133.5s-18.333 -102.5 -55 -133.5s-91 -46.5 -163 -46.5
s-126.5 15.5 -163.5 46.5zM802 1616.5c-36.667 31 -55 75.5 -55 133.5s18.333 102.5 55 133.5s91 46.5 163 46.5s126.5 -15.5 163.5 -46.5s55.5 -75.5 55.5 -133.5s-18.5 -102.5 -55.5 -133.5s-91.5 -46.5 -163.5 -46.5s-126.333 15.5 -163 46.5z" />
    <glyph glyph-name="Igrave" unicode="&#xcc;" horiz-adv-x="653" 
d="M109 0v1480h435v-1480h-435zM135 1586l-246 316h445l183 -316h-382z" />
    <glyph glyph-name="Iacute" unicode="&#xcd;" horiz-adv-x="653" 
d="M109 0v1480h435v-1480h-435zM133 1586l183 316h445l-246 -316h-382z" />
    <glyph glyph-name="Icircumflex" unicode="&#xce;" horiz-adv-x="653" 
d="M109 0v1480h435v-1480h-435zM766 1586h-311l-129 166l-129 -166h-311l263 316h354z" />
    <glyph glyph-name="Idieresis" unicode="&#xcf;" horiz-adv-x="653" 
d="M109 0v1480h435v-1480h-435zM-110.5 1616.5c-37 31 -55.5 75.5 -55.5 133.5s18.5 102.5 55.5 133.5s91.5 46.5 163.5 46.5s126.333 -15.5 163 -46.5s55 -75.5 55 -133.5s-18.333 -102.5 -55 -133.5s-91 -46.5 -163 -46.5s-126.5 15.5 -163.5 46.5zM436 1616.5
c-36.667 31 -55 75.5 -55 133.5s18.333 102.5 55 133.5s91 46.5 163 46.5s126.5 -15.5 163.5 -46.5s55.5 -75.5 55.5 -133.5s-18.5 -102.5 -55.5 -133.5s-91.5 -46.5 -163.5 -46.5s-126.333 15.5 -163 46.5z" />
    <glyph glyph-name="Eth" unicode="&#xd0;" horiz-adv-x="1567" 
d="M1282 1312c144 -123.333 216.001 -314.002 216.001 -572.002c0 -177.333 -34.5 -321.666 -103.5 -432.999s-172.833 -193.166 -311.5 -245.499s-315.667 -78.5 -531 -78.5c-69.333 0 -143.833 2.16699 -223.5 6.5s-152.834 10.5 -219.501 18.5v619h-105v270h105v544
c75.333 17.333 159.5 31 252.5 41s183.5 15 271.5 15c288.667 0 505 -61.667 649 -185zM886.501 371.998c55.667 26.667 97.333 69.8301 125 129.497s41.5 139.834 41.5 240.501c0 99.333 -14.5 178.833 -43.5 238.5s-71.667 102.834 -128 129.501s-127.5 40 -213.5 40
c-18 0 -39 -1.16699 -63 -3.5s-44.333 -5.16602 -61 -8.49902v-241h234v-270h-234v-292c30.667 -2 73 -3 127 -3c88 0 159.833 13.333 215.5 40z" />
    <glyph glyph-name="Ntilde" unicode="&#xd1;" horiz-adv-x="1593" 
d="M1076 1480h408v-1480h-434l-533 828v-828h-408v1480h434l533 -828v828zM882.5 1596.5c-30.333 7 -65.165 16.834 -104.498 29.501c-38.667 12 -70.5 21 -95.5 27s-51.167 9 -78.5 9c-43.333 0 -81.5 -5.5 -114.5 -16.5s-67.5 -28.833 -103.5 -53.5v233
c30.667 26.667 63.667 46.167 99 58.5s77.666 18.5 126.999 18.5c34 0 65.833 -3.5 95.5 -10.5s65.167 -17.167 106.5 -30.5c37.333 -12.667 68.666 -22 93.999 -28s52 -9 80 -9c43.333 0 81.5 5.5 114.5 16.5s67.5 28.833 103.5 53.5v-233
c-30 -26.667 -62.667 -45.834 -98 -57.501s-78 -17.5 -128 -17.5c-34.667 0 -67.167 3.5 -97.5 10.5z" />
    <glyph glyph-name="Ograve" unicode="&#xd2;" horiz-adv-x="1645" 
d="M422 66c-112.667 57.333 -199.667 142.833 -261 256.5s-92 252.834 -92 417.501s30.667 303.834 92 417.501s148.333 199.167 261 256.5s246 86 400 86s287.5 -28.833 400.5 -86.5s200.167 -143.334 261.5 -257.001s92 -252.5 92 -416.5s-30.667 -302.833 -92 -416.5
s-148.5 -199.334 -261.5 -257.001s-246.5 -86.5 -400.5 -86.5s-287.333 28.667 -400 86zM1053 426c52 66 77.999 168.001 77.999 306.001c0 145.333 -26.167 251.833 -78.5 319.5s-129.166 101.5 -230.499 101.5c-100.667 0 -177.167 -32.833 -229.5 -98.5
s-78.5 -167.834 -78.5 -306.501c0 -146.667 25.833 -253.5 77.5 -320.5s128.5 -100.5 230.5 -100.5s179 33 231 99zM630.999 1586l-246 316h445l183 -316h-382z" />
    <glyph glyph-name="Oacute" unicode="&#xd3;" horiz-adv-x="1645" 
d="M422 66c-112.667 57.333 -199.667 142.833 -261 256.5s-92 252.834 -92 417.501s30.667 303.834 92 417.501s148.333 199.167 261 256.5s246 86 400 86s287.5 -28.833 400.5 -86.5s200.167 -143.334 261.5 -257.001s92 -252.5 92 -416.5s-30.667 -302.833 -92 -416.5
s-148.5 -199.334 -261.5 -257.001s-246.5 -86.5 -400.5 -86.5s-287.333 28.667 -400 86zM1053 426c52 66 77.999 168.001 77.999 306.001c0 145.333 -26.167 251.833 -78.5 319.5s-129.166 101.5 -230.499 101.5c-100.667 0 -177.167 -32.833 -229.5 -98.5
s-78.5 -167.834 -78.5 -306.501c0 -146.667 25.833 -253.5 77.5 -320.5s128.5 -100.5 230.5 -100.5s179 33 231 99zM628.999 1586l183 316h445l-246 -316h-382z" />
    <glyph glyph-name="Ocircumflex" unicode="&#xd4;" horiz-adv-x="1645" 
d="M422 66c-112.667 57.333 -199.667 142.833 -261 256.5s-92 252.834 -92 417.501s30.667 303.834 92 417.501s148.333 199.167 261 256.5s246 86 400 86s287.5 -28.833 400.5 -86.5s200.167 -143.334 261.5 -257.001s92 -252.5 92 -416.5s-30.667 -302.833 -92 -416.5
s-148.5 -199.334 -261.5 -257.001s-246.5 -86.5 -400.5 -86.5s-287.333 28.667 -400 86zM1053 426c52 66 77.999 168.001 77.999 306.001c0 145.333 -26.167 251.833 -78.5 319.5s-129.166 101.5 -230.499 101.5c-100.667 0 -177.167 -32.833 -229.5 -98.5
s-78.5 -167.834 -78.5 -306.501c0 -146.667 25.833 -253.5 77.5 -320.5s128.5 -100.5 230.5 -100.5s179 33 231 99zM1262 1586h-311l-129 166l-129 -166h-311l263 316h354z" />
    <glyph glyph-name="Otilde" unicode="&#xd5;" horiz-adv-x="1645" 
d="M422 66c-112.667 57.333 -199.667 142.833 -261 256.5s-92 252.834 -92 417.501s30.667 303.834 92 417.501s148.333 199.167 261 256.5s246 86 400 86s287.5 -28.833 400.5 -86.5s200.167 -143.334 261.5 -257.001s92 -252.5 92 -416.5s-30.667 -302.833 -92 -416.5
s-148.5 -199.334 -261.5 -257.001s-246.5 -86.5 -400.5 -86.5s-287.333 28.667 -400 86zM1053 426c52 66 77.999 168.001 77.999 306.001c0 145.333 -26.167 251.833 -78.5 319.5s-129.166 101.5 -230.499 101.5c-100.667 0 -177.167 -32.833 -229.5 -98.5
s-78.5 -167.834 -78.5 -306.501c0 -146.667 25.833 -253.5 77.5 -320.5s128.5 -100.5 230.5 -100.5s179 33 231 99zM908.499 1596.5c-30.333 7 -65.165 16.834 -104.498 29.501c-38.667 12 -70.5 21 -95.5 27s-51.167 9 -78.5 9c-43.333 0 -81.5 -5.5 -114.5 -16.5
s-67.5 -28.833 -103.5 -53.5v233c30.667 26.667 63.667 46.167 99 58.5s77.666 18.5 126.999 18.5c34 0 65.833 -3.5 95.5 -10.5s65.167 -17.167 106.5 -30.5c37.333 -12.667 68.666 -22 93.999 -28s52 -9 80 -9c43.333 0 81.5 5.5 114.5 16.5s67.5 28.833 103.5 53.5v-233
c-30 -26.667 -62.667 -45.834 -98 -57.501s-78 -17.5 -128 -17.5c-34.667 0 -67.167 3.5 -97.5 10.5z" />
    <glyph glyph-name="Odieresis" unicode="&#xd6;" horiz-adv-x="1645" 
d="M422 66c-112.667 57.333 -199.667 142.833 -261 256.5s-92 252.834 -92 417.501s30.667 303.834 92 417.501s148.333 199.167 261 256.5s246 86 400 86s287.5 -28.833 400.5 -86.5s200.167 -143.334 261.5 -257.001s92 -252.5 92 -416.5s-30.667 -302.833 -92 -416.5
s-148.5 -199.334 -261.5 -257.001s-246.5 -86.5 -400.5 -86.5s-287.333 28.667 -400 86zM1053 426c52 66 77.999 168.001 77.999 306.001c0 145.333 -26.167 251.833 -78.5 319.5s-129.166 101.5 -230.499 101.5c-100.667 0 -177.167 -32.833 -229.5 -98.5
s-78.5 -167.834 -78.5 -306.501c0 -146.667 25.833 -253.5 77.5 -320.5s128.5 -100.5 230.5 -100.5s179 33 231 99zM385.499 1616.5c-37 31 -55.5 75.5 -55.5 133.5s18.5 102.5 55.5 133.5s91.5 46.5 163.5 46.5s126.333 -15.5 163 -46.5s55 -75.5 55 -133.5
s-18.333 -102.5 -55 -133.5s-91 -46.5 -163 -46.5s-126.5 15.5 -163.5 46.5zM931.999 1616.5c-36.667 31 -55 75.5 -55 133.5s18.333 102.5 55 133.5s91 46.5 163 46.5s126.5 -15.5 163.5 -46.5s55.5 -75.5 55.5 -133.5s-18.5 -102.5 -55.5 -133.5s-91.5 -46.5 -163.5 -46.5
s-126.333 15.5 -163 46.5z" />
    <glyph glyph-name="multiply" unicode="&#xd7;" horiz-adv-x="1068" 
d="M292 292l-226 226l242 242l-242 242l226 226l242 -242l242 242l227 -226l-242 -242l242 -242l-227 -226l-242 242z" />
    <glyph glyph-name="Oslash" unicode="&#xd8;" horiz-adv-x="1645" 
d="M1529.5 1050c31 -90.667 46.499 -193.999 46.499 -309.999c0 -164 -30.667 -302.833 -92 -416.5s-148.5 -199.334 -261.5 -257.001s-246.5 -86.5 -400.5 -86.5s-287.333 28.667 -400 86l-103 -128l-169 134l100 125c-58.667 64 -103.5 141.5 -134.5 232.5
s-46.5 194.5 -46.5 310.5c0 164.667 30.667 303.834 92 417.501s148.333 199.167 261 256.5s246 86 400 86c154.667 0 288.334 -28.667 401.001 -86l102 128l170 -134l-100 -125c58.667 -64.667 103.5 -142.334 134.5 -233.001zM534.999 553.001l448 561.001
c-43.333 26 -97 39 -161 39c-100.667 0 -177.167 -32.833 -229.5 -98.5s-78.5 -167.834 -78.5 -306.501c0 -76 7 -141 21 -195zM1053 426.002c52 66 77.999 168 77.999 306c0 75.333 -7 140 -21 194l-449 -561c42.667 -25.333 96.334 -38 161.001 -38c102 0 179 33 231 99z
" />
    <glyph glyph-name="Ugrave" unicode="&#xd9;" horiz-adv-x="1548" 
d="M266.5 145.5c-109 110.333 -163.5 278.166 -163.5 503.499v831h435v-872c0 -96 20 -165.833 60 -209.5s100 -65.5 180 -65.5s140 21.833 180 65.5s60 113.5 60 209.5v872h427v-831c0 -225.333 -54 -393.166 -162 -503.499s-276.333 -165.5 -505 -165.5
c-232 0 -402.5 55.167 -511.5 165.5zM587 1586l-246 316h445l183 -316h-382z" />
    <glyph glyph-name="Uacute" unicode="&#xda;" horiz-adv-x="1548" 
d="M266.5 145.5c-109 110.333 -163.5 278.166 -163.5 503.499v831h435v-872c0 -96 20 -165.833 60 -209.5s100 -65.5 180 -65.5s140 21.833 180 65.5s60 113.5 60 209.5v872h427v-831c0 -225.333 -54 -393.166 -162 -503.499s-276.333 -165.5 -505 -165.5
c-232 0 -402.5 55.167 -511.5 165.5zM585 1586l183 316h445l-246 -316h-382z" />
    <glyph glyph-name="Ucircumflex" unicode="&#xdb;" horiz-adv-x="1548" 
d="M266.5 145.5c-109 110.333 -163.5 278.166 -163.5 503.499v831h435v-872c0 -96 20 -165.833 60 -209.5s100 -65.5 180 -65.5s140 21.833 180 65.5s60 113.5 60 209.5v872h427v-831c0 -225.333 -54 -393.166 -162 -503.499s-276.333 -165.5 -505 -165.5
c-232 0 -402.5 55.167 -511.5 165.5zM1218 1586h-311l-129 166l-129 -166h-311l263 316h354z" />
    <glyph glyph-name="Udieresis" unicode="&#xdc;" horiz-adv-x="1548" 
d="M266.5 145.5c-109 110.333 -163.5 278.166 -163.5 503.499v831h435v-872c0 -96 20 -165.833 60 -209.5s100 -65.5 180 -65.5s140 21.833 180 65.5s60 113.5 60 209.5v872h427v-831c0 -225.333 -54 -393.166 -162 -503.499s-276.333 -165.5 -505 -165.5
c-232 0 -402.5 55.167 -511.5 165.5zM341.5 1616.5c-37 31 -55.5 75.5 -55.5 133.5s18.5 102.5 55.5 133.5s91.5 46.5 163.5 46.5s126.333 -15.5 163 -46.5s55 -75.5 55 -133.5s-18.333 -102.5 -55 -133.5s-91 -46.5 -163 -46.5s-126.5 15.5 -163.5 46.5zM888 1616.5
c-36.667 31 -55 75.5 -55 133.5s18.333 102.5 55 133.5s91 46.5 163 46.5s126.5 -15.5 163.5 -46.5s55.5 -75.5 55.5 -133.5s-18.5 -102.5 -55.5 -133.5s-91.5 -46.5 -163.5 -46.5s-126.333 15.5 -163 46.5z" />
    <glyph glyph-name="Yacute" unicode="&#xdd;" horiz-adv-x="1360" 
d="M1413 1480l-513 -871v-609h-435v605l-531 875h457l301 -509l298 509h423zM487 1586l183 316h445l-246 -316h-382z" />
    <glyph glyph-name="Thorn" unicode="&#xde;" horiz-adv-x="1384" 
d="M109 1480l434.999 0.000976562v-167l33 1c8 0.666992 19 1 33 1c236.667 0 412.834 -44.833 528.501 -134.5s173.5 -229.834 173.5 -420.501c0 -182.667 -56 -320.667 -168 -414s-274.667 -140 -488 -140l-59 1c-12 0.666992 -29.667 1 -53 1v-208h-435v1480z
M834.999 579.001c38 35.333 57.001 95.001 57.001 179.001c0 83.333 -19.833 143.666 -59.5 180.999s-102.167 56 -187.5 56c-38.667 0 -72.334 -2.66699 -101.001 -8v-455c38 -4 75.333 -6 112 -6c81.333 0 141 17.667 179 53z" />
    <glyph glyph-name="germandbls" unicode="&#xdf;" horiz-adv-x="1687" 
d="M1574.5 579.5c51 -50.333 76.498 -125.831 76.498 -226.498c0 -78 -21.667 -145 -65 -201s-106.833 -99 -190.5 -129s-185.167 -45 -304.5 -45c-56 0 -116 3.66699 -180 11s-122.667 17.666 -176 30.999v305c49.333 -12.667 106.333 -23 171 -31s124.334 -12 179.001 -12
c66 0 111.333 4.66699 136 14s37 23.666 37 42.999c0 12 -3.66699 21.167 -11 27.5s-21 11.166 -41 14.499l-198 34c-104.667 17.333 -182 53 -232 107s-75 128 -75 222c0 111.333 43.333 198.333 130 261s213.334 96.334 380.001 101.001
c-0.666992 82.667 -25.334 143.834 -74.001 183.501s-116 59.5 -202 59.5c-109.333 0 -190 -29 -242 -87s-78 -145.667 -78 -263v-999h-426v763h-160v337h167c14.667 111.333 51.834 207.166 111.501 287.499s139.834 141.833 240.501 184.5s218.334 64 353.001 64
c122.667 0 229.167 -20.333 319.5 -61s160.666 -103.334 210.999 -188.001s75.5 -191 75.5 -319c0 -44 -3.16699 -86.167 -9.5 -126.5s-15.833 -85.166 -28.5 -134.499c-44.667 4.66699 -98 7 -160 7c-84.667 0 -141.834 -5.5 -171.501 -16.5s-44.5 -25.833 -44.5 -44.5
c0 -10.667 4 -18.834 12 -24.501s22.333 -10.167 43 -13.5l198 -34c101.333 -17.333 177.5 -51.166 228.5 -101.499z" />
    <glyph glyph-name="agrave" unicode="&#xe0;" horiz-adv-x="1177" 
d="M849 1069.5c81.333 -32.333 141.167 -85.332 179.5 -158.999s57.5 -173.834 57.5 -300.501v-610h-349l-29 101h-18c-57.333 -82 -148.666 -123 -273.999 -123c-77.333 0 -144 14 -200 42s-98.667 67 -128 117s-44 107.333 -44 172c0 110.667 39.667 196.167 119 256.5
s204.666 95.166 375.999 104.499l130 7c-4 30 -13.833 54 -29.5 72s-39.167 31 -70.5 39s-73.333 12 -126 12c-44.667 0 -94 -3.5 -148 -10.5s-104.333 -17.167 -151 -30.5v314c57.333 14.667 119.833 25.834 187.5 33.501s131.834 11.5 192.501 11.5
c135.333 0 243.666 -16.167 324.999 -48.5zM671.001 292.001l-0.000976562 159l-85 -4c-83.333 -4.66699 -125 -37 -125 -97c0 -26.667 8.83301 -47.167 26.5 -61.5s42.834 -21.5 75.501 -21.5c44 0 80 8.33301 108 25zM391 1220l-294 396h449l233 -396h-388z" />
    <glyph glyph-name="aacute" unicode="&#xe1;" horiz-adv-x="1177" 
d="M849 1069.5c81.333 -32.333 141.167 -85.332 179.5 -158.999s57.5 -173.834 57.5 -300.501v-610h-349l-29 101h-18c-57.333 -82 -148.666 -123 -273.999 -123c-77.333 0 -144 14 -200 42s-98.667 67 -128 117s-44 107.333 -44 172c0 110.667 39.667 196.167 119 256.5
s204.666 95.166 375.999 104.499l130 7c-4 30 -13.833 54 -29.5 72s-39.167 31 -70.5 39s-73.333 12 -126 12c-44.667 0 -94 -3.5 -148 -10.5s-104.333 -17.167 -151 -30.5v314c57.333 14.667 119.833 25.834 187.5 33.501s131.834 11.5 192.501 11.5
c135.333 0 243.666 -16.167 324.999 -48.5zM671.001 292.001l-0.000976562 159l-85 -4c-83.333 -4.66699 -125 -37 -125 -97c0 -26.667 8.83301 -47.167 26.5 -61.5s42.834 -21.5 75.501 -21.5c44 0 80 8.33301 108 25zM391 1220l233 396h449l-294 -396h-388z" />
    <glyph glyph-name="acircumflex" unicode="&#xe2;" horiz-adv-x="1177" 
d="M849 1069.5c81.333 -32.333 141.167 -85.332 179.5 -158.999s57.5 -173.834 57.5 -300.501v-610h-349l-29 101h-18c-57.333 -82 -148.666 -123 -273.999 -123c-77.333 0 -144 14 -200 42s-98.667 67 -128 117s-44 107.333 -44 172c0 110.667 39.667 196.167 119 256.5
s204.666 95.166 375.999 104.499l130 7c-4 30 -13.833 54 -29.5 72s-39.167 31 -70.5 39s-73.333 12 -126 12c-44.667 0 -94 -3.5 -148 -10.5s-104.333 -17.167 -151 -30.5v314c57.333 14.667 119.833 25.834 187.5 33.501s131.834 11.5 192.501 11.5
c135.333 0 243.666 -16.167 324.999 -48.5zM671.001 292.001l-0.000976562 159l-85 -4c-83.333 -4.66699 -125 -37 -125 -97c0 -26.667 8.83301 -47.167 26.5 -61.5s42.834 -21.5 75.501 -21.5c44 0 80 8.33301 108 25zM994 1220h-295l-114 204l-114 -204h-295l239 396h340z
" />
    <glyph glyph-name="atilde" unicode="&#xe3;" horiz-adv-x="1177" 
d="M849 1069.5c81.333 -32.333 141.167 -85.332 179.5 -158.999s57.5 -173.834 57.5 -300.501v-610h-349l-29 101h-18c-57.333 -82 -148.666 -123 -273.999 -123c-77.333 0 -144 14 -200 42s-98.667 67 -128 117s-44 107.333 -44 172c0 110.667 39.667 196.167 119 256.5
s204.666 95.166 375.999 104.499l130 7c-4 30 -13.833 54 -29.5 72s-39.167 31 -70.5 39s-73.333 12 -126 12c-44.667 0 -94 -3.5 -148 -10.5s-104.333 -17.167 -151 -30.5v314c57.333 14.667 119.833 25.834 187.5 33.501s131.834 11.5 192.501 11.5
c135.333 0 243.666 -16.167 324.999 -48.5zM671.001 292.001l-0.000976562 159l-85 -4c-83.333 -4.66699 -125 -37 -125 -97c0 -26.667 8.83301 -47.167 26.5 -61.5s42.834 -21.5 75.501 -21.5c44 0 80 8.33301 108 25zM665.5 1258.5c-27.667 9 -60.5 22.167 -98.5 39.5
c-36.667 16 -66.167 27.667 -88.5 35s-45.5 11 -69.5 11c-40 0 -76.333 -7.16699 -109 -21.5s-66.334 -37.5 -101.001 -69.5v256c30 29.333 62.333 50.666 97 63.999s75 20 121 20c30.667 0 59.834 -4.5 87.501 -13.5s60.5 -22.167 98.5 -39.5
c36.667 -16 66.167 -27.667 88.5 -35s45.5 -11 69.5 -11c40 0 76.333 7.16699 109 21.5s66.334 37.5 101.001 69.5v-256c-30 -29.333 -62.333 -50.666 -97 -63.999s-75 -20 -121 -20c-30.667 0 -59.834 4.5 -87.501 13.5z" />
    <glyph glyph-name="adieresis" unicode="&#xe4;" horiz-adv-x="1177" 
d="M849 1069.5c81.333 -32.333 141.167 -85.332 179.5 -158.999s57.5 -173.834 57.5 -300.501v-610h-349l-29 101h-18c-57.333 -82 -148.666 -123 -273.999 -123c-77.333 0 -144 14 -200 42s-98.667 67 -128 117s-44 107.333 -44 172c0 110.667 39.667 196.167 119 256.5
s204.666 95.166 375.999 104.499l130 7c-4 30 -13.833 54 -29.5 72s-39.167 31 -70.5 39s-73.333 12 -126 12c-44.667 0 -94 -3.5 -148 -10.5s-104.333 -17.167 -151 -30.5v314c57.333 14.667 119.833 25.834 187.5 33.501s131.834 11.5 192.501 11.5
c135.333 0 243.666 -16.167 324.999 -48.5zM671.001 292.001l-0.000976562 159l-85 -4c-83.333 -4.66699 -125 -37 -125 -97c0 -26.667 8.83301 -47.167 26.5 -61.5s42.834 -21.5 75.501 -21.5c44 0 80 8.33301 108 25zM158 1268.5c-38 35.667 -57 85.5 -57 149.5
s19 113.833 57 149.5s92.333 53.5 163 53.5s124.834 -17.833 162.501 -53.5s56.5 -85.5 56.5 -149.5s-18.833 -113.833 -56.5 -149.5s-91.834 -53.5 -162.501 -53.5s-125 17.833 -163 53.5zM686.5 1268.5c-37.667 35.667 -56.5 85.5 -56.5 149.5s18.833 113.833 56.5 149.5
s91.834 53.5 162.501 53.5s125 -17.833 163 -53.5s57 -85.5 57 -149.5s-19 -113.833 -57 -149.5s-92.333 -53.5 -163 -53.5s-124.834 17.833 -162.501 53.5z" />
    <glyph glyph-name="aring" unicode="&#xe5;" horiz-adv-x="1177" 
d="M849 1069.5c81.333 -32.333 141.167 -85.332 179.5 -158.999s57.5 -173.834 57.5 -300.501v-610h-349l-29 101h-18c-57.333 -82 -148.666 -123 -273.999 -123c-77.333 0 -144 14 -200 42s-98.667 67 -128 117s-44 107.333 -44 172c0 110.667 39.667 196.167 119 256.5
s204.666 95.166 375.999 104.499l130 7c-4 30 -13.833 54 -29.5 72s-39.167 31 -70.5 39s-73.333 12 -126 12c-44.667 0 -94 -3.5 -148 -10.5s-104.333 -17.167 -151 -30.5v314c57.333 14.667 119.833 25.834 187.5 33.501s131.834 11.5 192.501 11.5
c135.333 0 243.666 -16.167 324.999 -48.5zM671.001 292.001l-0.000976562 159l-85 -4c-83.333 -4.66699 -125 -37 -125 -97c0 -26.667 8.83301 -47.167 26.5 -61.5s42.834 -21.5 75.501 -21.5c44 0 80 8.33301 108 25zM468 1242.5c-34.667 19 -61.834 45.167 -81.501 78.5
s-29.5 71 -29.5 113s9.83301 79.667 29.5 113s46.834 59.5 81.501 78.5s73.667 28.5 117 28.5s82.333 -9.5 117 -28.5s61.834 -45.167 81.501 -78.5s29.5 -71 29.5 -113s-9.83301 -79.667 -29.5 -113s-46.834 -59.5 -81.501 -78.5s-73.667 -28.5 -117 -28.5
s-82.333 9.5 -117 28.5zM641.5 1374.5c14.333 15 21.5 34.833 21.5 59.5s-7.16699 44.5 -21.5 59.5s-33.166 22.5 -56.499 22.5s-42.166 -7.5 -56.499 -22.5s-21.5 -34.833 -21.5 -59.5s7.16699 -44.5 21.5 -59.5s33.166 -22.5 56.499 -22.5s42.166 7.5 56.499 22.5z" />
    <glyph glyph-name="ae" unicode="&#xe6;" horiz-adv-x="1764" 
d="M1722 431l-633.999 -0.000976562c4 -35.333 15 -62.666 33 -81.999s47 -33.333 87 -42s96.333 -13 169 -13c82 0 175.333 9.66699 280 29v-312c-115.333 -22 -229 -33 -341 -33c-116 0 -215 11.667 -297 35s-148.667 59.333 -200 108
c-93.333 -95.333 -214.333 -143 -363 -143c-90 0 -165.833 13.833 -227.5 41.5s-107.834 66.667 -138.501 117s-46 109.166 -46 176.499c0 110.667 40.667 197 122 259s206 93 374 93h134c-3.33301 33.333 -13.166 59.833 -29.499 79.5s-40.833 33.834 -73.5 42.501
s-76 13 -130 13c-43.333 0 -92 -3.66699 -146 -11s-104 -17.333 -150 -30v314c119.333 30 239.333 45 360 45c93.333 0 172.5 -9.66699 237.5 -29s118.167 -49 159.5 -89c42 38 90.833 67.167 146.5 87.5s117.167 30.5 184.5 30.5c102.667 0 190.667 -22.667 264 -68
s129.166 -111.5 167.499 -198.5s57.5 -191.833 57.5 -314.5v-106zM1117 814.999c-19.333 -28.667 -29.668 -78.667 -31.001 -150h243c-1.33301 71.333 -11.5 121.333 -30.5 150s-49.167 43 -90.5 43s-71.666 -14.333 -90.999 -43zM487.999 288.499
c18 -13.667 44.332 -20.501 78.999 -20.501c26.667 0 50.834 3.33301 72.501 10s43.5 18.334 65.5 35.001c-12.667 44 -20.667 86.333 -24 127h-95c-83.333 0 -125 -31 -125 -93c0 -25.333 9 -44.833 27 -58.5z" />
    <glyph glyph-name="ccedilla" unicode="&#xe7;" horiz-adv-x="1020" 
d="M557 723.5c-44 -37 -66 -94.832 -66 -173.499c0 -81.333 21.167 -140.5 63.5 -177.5s106.833 -55.5 193.5 -55.5c32.667 0 65.5 2.5 98.5 7.5s73.167 12.833 120.5 23.5v-331c-38.667 -12 -82.167 -21.333 -130.5 -28s-98.166 -10.334 -149.499 -11.001v-55
c55.333 -11.333 97.166 -33 125.499 -65s42.5 -72.667 42.5 -122c0 -62 -24 -110.167 -72 -144.5s-119.667 -51.5 -215 -51.5c-66.667 0 -129.667 9.66699 -189 29v152c24.667 -8.66699 52.5 -15.5 83.5 -20.5s58.833 -7.5 83.5 -7.5c32 0 55.667 4.66699 71 14
s23 25.333 23 48c0 42.667 -31.667 64 -95 64h-52v175c-144 26.667 -253.333 86.5 -328 179.5s-112 217.5 -112 373.5c0 188.667 56.5 331 169.5 427s274.5 144 484.5 144c95.333 0 182 -8 260 -24v-331c-73.333 10.667 -139 16 -197 16c-98 0 -169 -18.5 -213 -55.5z" />
    <glyph glyph-name="egrave" unicode="&#xe8;" horiz-adv-x="1163" 
d="M1120 431l-641.998 -0.00195312c4 -35.333 15.333 -62.666 34 -81.999s48.5 -33.333 89.5 -42s98.833 -13 173.5 -13c82 0 175.333 9.66699 280 29v-312c-114.667 -22 -229 -33 -343 -33c-154.667 0 -280.334 20.167 -377.001 60.5s-167.834 102.333 -213.501 186
s-68.5 192.5 -68.5 326.5c0 117.333 21.167 218.333 63.5 303s105 149.834 188 195.501s183.833 68.5 302.5 68.5c168 0 295.5 -50.667 382.5 -152s130.5 -244.333 130.5 -429v-106zM531.502 839.998c-17.667 -12 -31.167 -32 -40.5 -60s-14.333 -66.333 -15 -115h251
c-0.666992 48.667 -5.5 87 -14.5 115s-22.333 48 -40 60s-41.167 18 -70.5 18s-52.833 -6 -70.5 -18zM404.002 1220l-294 396h449l233 -396h-388z" />
    <glyph glyph-name="eacute" unicode="&#xe9;" horiz-adv-x="1163" 
d="M1120 431l-641.998 -0.00195312c4 -35.333 15.333 -62.666 34 -81.999s48.5 -33.333 89.5 -42s98.833 -13 173.5 -13c82 0 175.333 9.66699 280 29v-312c-114.667 -22 -229 -33 -343 -33c-154.667 0 -280.334 20.167 -377.001 60.5s-167.834 102.333 -213.501 186
s-68.5 192.5 -68.5 326.5c0 117.333 21.167 218.333 63.5 303s105 149.834 188 195.501s183.833 68.5 302.5 68.5c168 0 295.5 -50.667 382.5 -152s130.5 -244.333 130.5 -429v-106zM531.502 839.998c-17.667 -12 -31.167 -32 -40.5 -60s-14.333 -66.333 -15 -115h251
c-0.666992 48.667 -5.5 87 -14.5 115s-22.333 48 -40 60s-41.167 18 -70.5 18s-52.833 -6 -70.5 -18zM404.002 1220l233 396h449l-294 -396h-388z" />
    <glyph glyph-name="ecircumflex" unicode="&#xea;" horiz-adv-x="1163" 
d="M1120 431l-641.998 -0.00195312c4 -35.333 15.333 -62.666 34 -81.999s48.5 -33.333 89.5 -42s98.833 -13 173.5 -13c82 0 175.333 9.66699 280 29v-312c-114.667 -22 -229 -33 -343 -33c-154.667 0 -280.334 20.167 -377.001 60.5s-167.834 102.333 -213.501 186
s-68.5 192.5 -68.5 326.5c0 117.333 21.167 218.333 63.5 303s105 149.834 188 195.501s183.833 68.5 302.5 68.5c168 0 295.5 -50.667 382.5 -152s130.5 -244.333 130.5 -429v-106zM531.502 839.998c-17.667 -12 -31.167 -32 -40.5 -60s-14.333 -66.333 -15 -115h251
c-0.666992 48.667 -5.5 87 -14.5 115s-22.333 48 -40 60s-41.167 18 -70.5 18s-52.833 -6 -70.5 -18zM1007 1220h-295l-114 204l-114 -204h-295l239 396h340z" />
    <glyph glyph-name="edieresis" unicode="&#xeb;" horiz-adv-x="1163" 
d="M1120 431l-641.998 -0.00195312c4 -35.333 15.333 -62.666 34 -81.999s48.5 -33.333 89.5 -42s98.833 -13 173.5 -13c82 0 175.333 9.66699 280 29v-312c-114.667 -22 -229 -33 -343 -33c-154.667 0 -280.334 20.167 -377.001 60.5s-167.834 102.333 -213.501 186
s-68.5 192.5 -68.5 326.5c0 117.333 21.167 218.333 63.5 303s105 149.834 188 195.501s183.833 68.5 302.5 68.5c168 0 295.5 -50.667 382.5 -152s130.5 -244.333 130.5 -429v-106zM531.502 839.998c-17.667 -12 -31.167 -32 -40.5 -60s-14.333 -66.333 -15 -115h251
c-0.666992 48.667 -5.5 87 -14.5 115s-22.333 48 -40 60s-41.167 18 -70.5 18s-52.833 -6 -70.5 -18zM171.002 1268.5c-38 35.667 -57 85.5 -57 149.5s19 113.833 57 149.5s92.333 53.5 163 53.5s124.834 -17.833 162.501 -53.5s56.5 -85.5 56.5 -149.5
s-18.833 -113.833 -56.5 -149.5s-91.834 -53.5 -162.501 -53.5s-125 17.833 -163 53.5zM699.502 1268.5c-37.667 35.667 -56.5 85.5 -56.5 149.5s18.833 113.833 56.5 149.5s91.834 53.5 162.501 53.5s125 -17.833 163 -53.5s57 -85.5 57 -149.5s-19 -113.833 -57 -149.5
s-92.333 -53.5 -163 -53.5s-124.834 17.833 -162.501 53.5z" />
    <glyph glyph-name="igrave" unicode="&#xec;" horiz-adv-x="621" 
d="M97 0v1100h427v-1100h-427zM116 1220l-294 396h449l233 -396h-388z" />
    <glyph glyph-name="iacute" unicode="&#xed;" horiz-adv-x="621" 
d="M97 0v1100h427v-1100h-427zM116 1220l233 396h449l-294 -396h-388z" />
    <glyph glyph-name="icircumflex" unicode="&#xee;" horiz-adv-x="621" 
d="M97 0v1100h427v-1100h-427zM719 1220h-295l-114 204l-114 -204h-295l239 396h340z" />
    <glyph glyph-name="idieresis" unicode="&#xef;" horiz-adv-x="621" 
d="M97 0v1100h427v-1100h-427zM-117 1268.5c-38 35.667 -57 85.5 -57 149.5s19 113.833 57 149.5s92.333 53.5 163 53.5s124.834 -17.833 162.501 -53.5s56.5 -85.5 56.5 -149.5s-18.833 -113.833 -56.5 -149.5s-91.834 -53.5 -162.501 -53.5s-125 17.833 -163 53.5z
M411.5 1268.5c-37.667 35.667 -56.5 85.5 -56.5 149.5s18.833 113.833 56.5 149.5s91.834 53.5 162.501 53.5s125 -17.833 163 -53.5s57 -85.5 57 -149.5s-19 -113.833 -57 -149.5s-92.333 -53.5 -163 -53.5s-124.834 17.833 -162.501 53.5z" />
    <glyph glyph-name="eth" unicode="&#xf0;" horiz-adv-x="1267" 
d="M1156.5 971.5c40.333 -117.667 60.4971 -233.165 60.4971 -346.498c0 -220 -49.833 -383.167 -149.5 -489.5s-244.5 -159.5 -434.5 -159.5c-120.667 0 -224.5 22 -311.5 66s-153.5 108.5 -199.5 193.5s-69 188.5 -69 310.5c0 122.667 22.333 226 67 310
s107.334 147 188.001 189s175.334 63 284.001 63c30 0 61.333 -3.66699 94 -11c-26 48.667 -55 94 -87 136l-424 -78l-45 223l293 54c-68.667 66 -142.667 127.333 -222 184h497c42.667 -32.667 84.334 -69.334 125.001 -110.001l314 58l45 -223l-194 -36
c72 -104.667 128.167 -215.834 168.5 -333.501zM720.497 316.002c22.333 15.333 38.998 41.1689 49.998 77.502s16.5 86.166 16.5 149.499c0 65.333 -5.66699 116.666 -17 153.999s-28.166 63.833 -50.499 79.5s-51.166 23.5 -86.499 23.5s-64 -7.83301 -86 -23.5
s-38.667 -42 -50 -79s-17 -87.833 -17 -152.5c0 -64 5.5 -114.333 16.5 -151s27.5 -62.667 49.5 -78s51 -23 87 -23s65.167 7.66699 87.5 23z" />
    <glyph glyph-name="ntilde" unicode="&#xf1;" horiz-adv-x="1281" 
d="M97 1100l350 -0.000976562l28 -104h18c37.333 39.333 82.333 69.5 135 90.5s110.334 31.5 173.001 31.5c119.333 0 214 -37.333 284 -112s105 -190.667 105 -348v-658h-426v630c0 45.333 -8.83301 77.333 -26.5 96s-44.167 28 -79.5 28
c-26.667 0 -51.834 -4.66699 -75.501 -14s-43.5 -21.666 -59.5 -36.999v-703h-426v1100zM724.5 1258.5c-27.667 9 -60.5 22.167 -98.5 39.5c-36.667 16 -66.167 27.667 -88.5 35s-45.5 11 -69.5 11c-40 0 -76.333 -7.16699 -109 -21.5s-66.334 -37.5 -101.001 -69.5v256
c30 29.333 62.333 50.666 97 63.999s75 20 121 20c30.667 0 59.834 -4.5 87.501 -13.5s60.5 -22.167 98.5 -39.5c36.667 -16 66.167 -27.667 88.5 -35s45.5 -11 69.5 -11c40 0 76.333 7.16699 109 21.5s66.334 37.5 101.001 69.5v-256
c-30 -29.333 -62.333 -50.666 -97 -63.999s-75 -20 -121 -20c-30.667 0 -59.834 4.5 -87.501 13.5z" />
    <glyph glyph-name="ograve" unicode="&#xf2;" horiz-adv-x="1267" 
d="M322.5 43c-87 43.333 -153.665 107.5 -199.998 192.5s-69.5 188.5 -69.5 310.5c0 186 50.167 327.833 150.5 425.5s243.5 146.5 429.5 146.5c123.333 0 228.333 -22 315 -66s152.667 -108.5 198 -193.5s68 -188.5 68 -310.5c0 -122.667 -23.333 -226.5 -70 -311.5
s-113.334 -149.333 -200.001 -193s-190.334 -65.5 -311.001 -65.5c-120 0 -223.5 21.667 -310.5 65zM719.502 317.5c22.333 15 39.167 40.834 50.5 77.501s17 87 17 151c0 65.333 -5.83301 116.666 -17.5 153.999s-28.5 63.5 -50.5 78.5s-50.667 22.5 -86 22.5
c-34.667 0 -63.167 -7.5 -85.5 -22.5s-39.166 -41 -50.499 -78s-17 -87.833 -17 -152.5s5.66699 -115.5 17 -152.5s28 -63 50 -78s50.667 -22.5 86 -22.5s64.166 7.5 86.499 22.5zM439.003 1220l-294 396h449l233 -396h-388z" />
    <glyph glyph-name="oacute" unicode="&#xf3;" horiz-adv-x="1267" 
d="M322.5 43c-87 43.333 -153.665 107.5 -199.998 192.5s-69.5 188.5 -69.5 310.5c0 186 50.167 327.833 150.5 425.5s243.5 146.5 429.5 146.5c123.333 0 228.333 -22 315 -66s152.667 -108.5 198 -193.5s68 -188.5 68 -310.5c0 -122.667 -23.333 -226.5 -70 -311.5
s-113.334 -149.333 -200.001 -193s-190.334 -65.5 -311.001 -65.5c-120 0 -223.5 21.667 -310.5 65zM719.502 317.5c22.333 15 39.167 40.834 50.5 77.501s17 87 17 151c0 65.333 -5.83301 116.666 -17.5 153.999s-28.5 63.5 -50.5 78.5s-50.667 22.5 -86 22.5
c-34.667 0 -63.167 -7.5 -85.5 -22.5s-39.166 -41 -50.499 -78s-17 -87.833 -17 -152.5s5.66699 -115.5 17 -152.5s28 -63 50 -78s50.667 -22.5 86 -22.5s64.166 7.5 86.499 22.5zM439.003 1220l233 396h449l-294 -396h-388z" />
    <glyph glyph-name="ocircumflex" unicode="&#xf4;" horiz-adv-x="1267" 
d="M322.5 43c-87 43.333 -153.665 107.5 -199.998 192.5s-69.5 188.5 -69.5 310.5c0 186 50.167 327.833 150.5 425.5s243.5 146.5 429.5 146.5c123.333 0 228.333 -22 315 -66s152.667 -108.5 198 -193.5s68 -188.5 68 -310.5c0 -122.667 -23.333 -226.5 -70 -311.5
s-113.334 -149.333 -200.001 -193s-190.334 -65.5 -311.001 -65.5c-120 0 -223.5 21.667 -310.5 65zM719.502 317.5c22.333 15 39.167 40.834 50.5 77.501s17 87 17 151c0 65.333 -5.83301 116.666 -17.5 153.999s-28.5 63.5 -50.5 78.5s-50.667 22.5 -86 22.5
c-34.667 0 -63.167 -7.5 -85.5 -22.5s-39.166 -41 -50.499 -78s-17 -87.833 -17 -152.5s5.66699 -115.5 17 -152.5s28 -63 50 -78s50.667 -22.5 86 -22.5s64.166 7.5 86.499 22.5zM1042 1220h-295l-114 204l-114 -204h-295l239 396h340z" />
    <glyph glyph-name="otilde" unicode="&#xf5;" horiz-adv-x="1267" 
d="M322.5 43c-87 43.333 -153.665 107.5 -199.998 192.5s-69.5 188.5 -69.5 310.5c0 186 50.167 327.833 150.5 425.5s243.5 146.5 429.5 146.5c123.333 0 228.333 -22 315 -66s152.667 -108.5 198 -193.5s68 -188.5 68 -310.5c0 -122.667 -23.333 -226.5 -70 -311.5
s-113.334 -149.333 -200.001 -193s-190.334 -65.5 -311.001 -65.5c-120 0 -223.5 21.667 -310.5 65zM719.502 317.5c22.333 15 39.167 40.834 50.5 77.501s17 87 17 151c0 65.333 -5.83301 116.666 -17.5 153.999s-28.5 63.5 -50.5 78.5s-50.667 22.5 -86 22.5
c-34.667 0 -63.167 -7.5 -85.5 -22.5s-39.166 -41 -50.499 -78s-17 -87.833 -17 -152.5s5.66699 -115.5 17 -152.5s28 -63 50 -78s50.667 -22.5 86 -22.5s64.166 7.5 86.499 22.5zM713.503 1258.5c-27.667 9 -60.5 22.167 -98.5 39.5c-36.667 16 -66.167 27.667 -88.5 35
s-45.5 11 -69.5 11c-40 0 -76.333 -7.16699 -109 -21.5s-66.334 -37.5 -101.001 -69.5v256c30 29.333 62.333 50.666 97 63.999s75 20 121 20c30.667 0 59.834 -4.5 87.501 -13.5s60.5 -22.167 98.5 -39.5c36.667 -16 66.167 -27.667 88.5 -35s45.5 -11 69.5 -11
c40 0 76.333 7.16699 109 21.5s66.334 37.5 101.001 69.5v-256c-30 -29.333 -62.333 -50.666 -97 -63.999s-75 -20 -121 -20c-30.667 0 -59.834 4.5 -87.501 13.5z" />
    <glyph glyph-name="odieresis" unicode="&#xf6;" horiz-adv-x="1267" 
d="M322.5 43c-87 43.333 -153.665 107.5 -199.998 192.5s-69.5 188.5 -69.5 310.5c0 186 50.167 327.833 150.5 425.5s243.5 146.5 429.5 146.5c123.333 0 228.333 -22 315 -66s152.667 -108.5 198 -193.5s68 -188.5 68 -310.5c0 -122.667 -23.333 -226.5 -70 -311.5
s-113.334 -149.333 -200.001 -193s-190.334 -65.5 -311.001 -65.5c-120 0 -223.5 21.667 -310.5 65zM719.502 317.5c22.333 15 39.167 40.834 50.5 77.501s17 87 17 151c0 65.333 -5.83301 116.666 -17.5 153.999s-28.5 63.5 -50.5 78.5s-50.667 22.5 -86 22.5
c-34.667 0 -63.167 -7.5 -85.5 -22.5s-39.166 -41 -50.499 -78s-17 -87.833 -17 -152.5s5.66699 -115.5 17 -152.5s28 -63 50 -78s50.667 -22.5 86 -22.5s64.166 7.5 86.499 22.5zM206.003 1268.5c-38 35.667 -57 85.5 -57 149.5s19 113.833 57 149.5s92.333 53.5 163 53.5
s124.834 -17.833 162.501 -53.5s56.5 -85.5 56.5 -149.5s-18.833 -113.833 -56.5 -149.5s-91.834 -53.5 -162.501 -53.5s-125 17.833 -163 53.5zM734.503 1268.5c-37.667 35.667 -56.5 85.5 -56.5 149.5s18.833 113.833 56.5 149.5s91.834 53.5 162.501 53.5
s125 -17.833 163 -53.5s57 -85.5 57 -149.5s-19 -113.833 -57 -149.5s-92.333 -53.5 -163 -53.5s-124.834 17.833 -162.501 53.5z" />
    <glyph glyph-name="divide" unicode="&#xf7;" horiz-adv-x="1116" 
d="M381.5 1032c-43.667 40 -65.499 94.6699 -65.499 164.003c0 70 21.5 125 64.5 165s102.167 60 177.5 60c50 0 93.167 -9.33301 129.5 -28s64.333 -44.834 84 -78.501s29.5 -73.167 29.5 -118.5c0 -44.667 -10 -83.834 -30 -117.501s-48.333 -59.834 -85 -78.501
s-79.334 -28 -128.001 -28c-74 0 -132.833 20 -176.5 60zM96.001 600.003v320h924v-320h-924zM381.501 159.503c-43.667 40.333 -65.499 95.167 -65.499 164.5s21.5 124 64.5 164s102.167 60 177.5 60c50 0 93.167 -9.16699 129.5 -27.5s64.333 -44.5 84 -78.5
s29.5 -73.333 29.5 -118s-10 -84 -30 -118s-48.333 -60.333 -85 -79s-79.334 -28 -128.001 -28c-74 0 -132.833 20.167 -176.5 60.5z" />
    <glyph glyph-name="oslash" unicode="&#xf8;" horiz-adv-x="1267" 
d="M1214 548c0 -122.667 -23.3311 -226.5 -69.998 -311.5s-113.334 -149.333 -200.001 -193s-190.334 -65.5 -311.001 -65.5c-98.667 0 -185 14.333 -259 43l-72 -97l-164 122l63 85c-48.667 48 -85.5 106.833 -110.5 176.5s-37.5 149.167 -37.5 238.5
c0 186 50.167 327.833 150.5 425.5s243.5 146.5 429.5 146.5c95.333 0 180.333 -13.333 255 -40l73 98l164 -122l-62 -84c100.667 -97.333 151 -238 151 -422zM541.002 784c-24 -15.333 -42.333 -42 -55 -80s-19 -90 -19 -156c0 -32 1.33301 -58.667 4 -80l236 326
c-21.333 8.66699 -46 13 -74 13c-37.333 0 -68 -7.66699 -92 -23zM727.002 312c24 15.333 42.167 41.833 54.5 79.5s18.5 89.167 18.5 154.5c0 31.333 -1.66699 61.333 -5 90l-240 -332c20 -10 46 -15 78 -15c38.667 0 70 7.66699 94 23z" />
    <glyph glyph-name="ugrave" unicode="&#xf9;" horiz-adv-x="1272" 
d="M197.5 92.5c-71 74.333 -106.5 189.833 -106.5 346.5v661h426v-630c0 -45.333 8.5 -77.5 25.5 -96.5s41.833 -28.5 74.5 -28.5c24 0 48.167 4.83301 72.5 14.5s44.166 22.167 59.499 37.5v703h426v-1100h-350l-28 104h-16c-40 -40 -84.667 -70.5 -134 -91.5
s-102.666 -31.5 -159.999 -31.5c-122 0 -218.5 37.167 -289.5 111.5zM439 1220l-294 396h449l233 -396h-388z" />
    <glyph glyph-name="uacute" unicode="&#xfa;" horiz-adv-x="1272" 
d="M197.5 92.5c-71 74.333 -106.5 189.833 -106.5 346.5v661h426v-630c0 -45.333 8.5 -77.5 25.5 -96.5s41.833 -28.5 74.5 -28.5c24 0 48.167 4.83301 72.5 14.5s44.166 22.167 59.499 37.5v703h426v-1100h-350l-28 104h-16c-40 -40 -84.667 -70.5 -134 -91.5
s-102.666 -31.5 -159.999 -31.5c-122 0 -218.5 37.167 -289.5 111.5zM439 1220l233 396h449l-294 -396h-388z" />
    <glyph glyph-name="ucircumflex" unicode="&#xfb;" horiz-adv-x="1272" 
d="M197.5 92.5c-71 74.333 -106.5 189.833 -106.5 346.5v661h426v-630c0 -45.333 8.5 -77.5 25.5 -96.5s41.833 -28.5 74.5 -28.5c24 0 48.167 4.83301 72.5 14.5s44.166 22.167 59.499 37.5v703h426v-1100h-350l-28 104h-16c-40 -40 -84.667 -70.5 -134 -91.5
s-102.666 -31.5 -159.999 -31.5c-122 0 -218.5 37.167 -289.5 111.5zM1042 1220h-295l-114 204l-114 -204h-295l239 396h340z" />
    <glyph glyph-name="udieresis" unicode="&#xfc;" horiz-adv-x="1272" 
d="M197.5 92.5c-71 74.333 -106.5 189.833 -106.5 346.5v661h426v-630c0 -45.333 8.5 -77.5 25.5 -96.5s41.833 -28.5 74.5 -28.5c24 0 48.167 4.83301 72.5 14.5s44.166 22.167 59.499 37.5v703h426v-1100h-350l-28 104h-16c-40 -40 -84.667 -70.5 -134 -91.5
s-102.666 -31.5 -159.999 -31.5c-122 0 -218.5 37.167 -289.5 111.5zM206 1268.5c-38 35.667 -57 85.5 -57 149.5s19 113.833 57 149.5s92.333 53.5 163 53.5s124.834 -17.833 162.501 -53.5s56.5 -85.5 56.5 -149.5s-18.833 -113.833 -56.5 -149.5
s-91.834 -53.5 -162.501 -53.5s-125 17.833 -163 53.5zM734.5 1268.5c-37.667 35.667 -56.5 85.5 -56.5 149.5s18.833 113.833 56.5 149.5s91.834 53.5 162.501 53.5s125 -17.833 163 -53.5s57 -85.5 57 -149.5s-19 -113.833 -57 -149.5s-92.333 -53.5 -163 -53.5
s-124.834 17.833 -162.501 53.5z" />
    <glyph glyph-name="yacute" unicode="&#xfd;" horiz-adv-x="1239" 
d="M834 1100h417l-515 -1540h-415l149 440h-116l-366 1100h443l202 -704zM425 1220l233 396h449l-294 -396h-388z" />
    <glyph glyph-name="thorn" unicode="&#xfe;" horiz-adv-x="1298" 
d="M97 1616l426.002 -0.00390625v-619h19c31.333 40 69.833 70.167 115.5 90.5s97.834 30.5 156.501 30.5c79.333 0 151.666 -20.167 216.999 -60.5s117.333 -101.666 156 -183.999s58 -183.166 58 -302.499c0 -125.333 -23.833 -232.166 -71.5 -320.499
s-118.334 -155.666 -212.001 -201.999s-208.834 -69.5 -345.501 -69.5c-24.667 0 -55.667 1.33301 -93 4v-423h-426v2056zM768.502 352.496c33 37 49.499 99.166 49.499 186.499c0 86.667 -14.667 147.334 -44 182.001s-73 52 -131 52c-21.333 0 -42.666 -2.5 -63.999 -7.5
s-40 -12.167 -56 -21.5v-439c34.667 -5.33301 65 -8 91 -8c70 0 121.5 18.5 154.5 55.5z" />
    <glyph glyph-name="ydieresis" unicode="&#xff;" horiz-adv-x="1239" 
d="M834 1100h417l-515 -1540h-415l149 440h-116l-366 1100h443l202 -704zM192 1268.5c-38 35.667 -57 85.5 -57 149.5s19 113.833 57 149.5s92.333 53.5 163 53.5s124.834 -17.833 162.501 -53.5s56.5 -85.5 56.5 -149.5s-18.833 -113.833 -56.5 -149.5
s-91.834 -53.5 -162.501 -53.5s-125 17.833 -163 53.5zM720.5 1268.5c-37.667 35.667 -56.5 85.5 -56.5 149.5s18.833 113.833 56.5 149.5s91.834 53.5 162.501 53.5s125 -17.833 163 -53.5s57 -85.5 57 -149.5s-19 -113.833 -57 -149.5s-92.333 -53.5 -163 -53.5
s-124.834 17.833 -162.501 53.5z" />
    <glyph glyph-name="Amacron" unicode="&#x100;" horiz-adv-x="1531" 
d="M1102 0l-94 339h-490l-93 -339h-421l442 1480h639l442 -1480h-425zM612 679h302l-152 547zM354 1621v248h820v-248h-820z" />
    <glyph glyph-name="amacron" unicode="&#x101;" horiz-adv-x="1177" 
d="M849 1069.5c81.333 -32.333 141.167 -85.332 179.5 -158.999s57.5 -173.834 57.5 -300.501v-610h-349l-29 101h-18c-57.333 -82 -148.666 -123 -273.999 -123c-77.333 0 -144 14 -200 42s-98.667 67 -128 117s-44 107.333 -44 172c0 110.667 39.667 196.167 119 256.5
s204.666 95.166 375.999 104.499l130 7c-4 30 -13.833 54 -29.5 72s-39.167 31 -70.5 39s-73.333 12 -126 12c-44.667 0 -94 -3.5 -148 -10.5s-104.333 -17.167 -151 -30.5v314c57.333 14.667 119.833 25.834 187.5 33.501s131.834 11.5 192.501 11.5
c135.333 0 243.666 -16.167 324.999 -48.5zM671.001 292.001l-0.000976562 159l-85 -4c-83.333 -4.66699 -125 -37 -125 -97c0 -26.667 8.83301 -47.167 26.5 -61.5s42.834 -21.5 75.501 -21.5c44 0 80 8.33301 108 25zM199 1295v248h772v-248h-772z" />
    <glyph glyph-name="Abreve" unicode="&#x102;" horiz-adv-x="1531" 
d="M1102 0l-94 339h-490l-93 -339h-421l442 1480h639l442 -1480h-425zM612 679h302l-152 547zM465.5 1670c-71.667 56 -113.832 133.333 -126.499 232h253c8 -39.333 26 -69 54 -89s67.333 -30 118 -30s90 10 118 30s46 49.667 54 89h253
c-12.667 -98.667 -54.834 -176 -126.501 -232s-171.167 -84 -298.5 -84s-226.833 28 -298.5 84z" />
    <glyph glyph-name="abreve" unicode="&#x103;" horiz-adv-x="1177" 
d="M849 1069.5c81.333 -32.333 141.167 -85.332 179.5 -158.999s57.5 -173.834 57.5 -300.501v-610h-349l-29 101h-18c-57.333 -82 -148.666 -123 -273.999 -123c-77.333 0 -144 14 -200 42s-98.667 67 -128 117s-44 107.333 -44 172c0 110.667 39.667 196.167 119 256.5
s204.666 95.166 375.999 104.499l130 7c-4 30 -13.833 54 -29.5 72s-39.167 31 -70.5 39s-73.333 12 -126 12c-44.667 0 -94 -3.5 -148 -10.5s-104.333 -17.167 -151 -30.5v314c57.333 14.667 119.833 25.834 187.5 33.501s131.834 11.5 192.501 11.5
c135.333 0 243.666 -16.167 324.999 -48.5zM671.001 292.001l-0.000976562 159l-85 -4c-83.333 -4.66699 -125 -37 -125 -97c0 -26.667 8.83301 -47.167 26.5 -61.5s42.834 -21.5 75.501 -21.5c44 0 80 8.33301 108 25zM293.5 1321.5
c-70.333 62.333 -108.835 153.833 -115.502 274.5h251c4.66699 -54.667 19.834 -95.167 45.501 -121.5s62.5 -39.5 110.5 -39.5s84.833 13.167 110.5 39.5s40.834 66.833 45.501 121.5h251c-6.66699 -120.667 -45.167 -212.167 -115.5 -274.5s-167.5 -93.5 -291.5 -93.5
s-221.167 31.167 -291.5 93.5z" />
    <glyph glyph-name="Aogonek" unicode="&#x104;" horiz-adv-x="1531" 
d="M1550 -275v-155c-61.333 -20 -126 -30 -194 -30c-104 0 -182 19.833 -234 59.5s-78 94.5 -78 164.5c0 47.333 12.667 90.5 38 129.5s66.333 74.5 123 106.5h-103l-94 339h-490l-93 -339h-421l442 1480h639l442 -1480c-92 -30.667 -156 -62.667 -192 -96s-54 -70 -54 -110
c0 -62.667 46 -94 138 -94c39.333 0 83 8.33301 131 25zM612 679h302l-152 547z" />
    <glyph glyph-name="aogonek" unicode="&#x105;" horiz-adv-x="1177" 
d="M1096 -275l0.00390625 -154.999c-28.667 -10 -56.834 -17.5 -84.501 -22.5s-59.834 -7.5 -96.501 -7.5c-95.333 0 -167.833 19.833 -217.5 59.5s-74.5 94.5 -74.5 164.5c0 48 11.667 91.5 35 130.5s61.666 74.167 114.999 105.5h-36l-29 101h-18
c-57.333 -82 -148.666 -123 -273.999 -123c-77.333 0 -144 14 -200 42s-98.667 67 -128 117s-44 107.333 -44 172c0 110.667 39.667 196.167 119 256.5s204.666 95.166 375.999 104.499l130 7c-4 30 -13.833 54 -29.5 72s-39.167 31 -70.5 39s-73.333 12 -126 12
c-44.667 0 -94 -3.5 -148 -10.5s-104.333 -17.167 -151 -30.5v314c57.333 14.667 119.833 25.834 187.5 33.501s131.834 11.5 192.501 11.5c135.333 0 243.666 -16.167 324.999 -48.5s141.166 -85.333 179.499 -159s57.5 -173.834 57.5 -300.501v-610
c-85.333 -31.333 -144.333 -63.5 -177 -96.5s-49 -70.167 -49 -111.5c0 -28.667 10 -51.167 30 -67.5s49.333 -24.5 88 -24.5c36 0 75.333 8.33301 118 25zM671.004 292.001l-0.000976562 159l-85 -4c-83.333 -4.66699 -125 -37 -125 -97
c0 -26.667 8.83301 -47.167 26.5 -61.5s42.834 -21.5 75.501 -21.5c44 0 80 8.33301 108 25z" />
    <glyph glyph-name="Cacute" unicode="&#x106;" horiz-adv-x="1296" 
d="M69 736c0 163.333 33.001 301.999 99.001 415.999s162.833 200.5 290.5 259.5s283.5 88.5 467.5 88.5c114 0 219.667 -10.333 317 -31v-353c-95.333 18.667 -188.333 28 -279 28c-102.667 0 -186.167 -14.167 -250.5 -42.5s-112 -72.166 -143 -131.499
s-46.5 -136 -46.5 -230c0 -96 15 -173.5 45 -232.5s76.5 -102.333 139.5 -130s144.833 -41.5 245.5 -41.5c85.333 0 181.666 13.667 288.999 41v-353c-46.667 -13.333 -99.5 -24 -158.5 -32s-117.167 -12 -174.5 -12c-560.667 0 -841 252 -841 756zM591.001 1586l183 316
h445l-246 -316h-382z" />
    <glyph glyph-name="cacute" unicode="&#x107;" horiz-adv-x="1020" 
d="M213.5 122.5c-107 96.333 -160.499 237.833 -160.499 424.5c0 188.667 56.5 331 169.5 427s274.5 144 484.5 144c95.333 0 182 -8 260 -24v-331c-73.333 10.667 -139 16 -197 16c-98 0 -169 -18.5 -213 -55.5s-66 -94.833 -66 -173.5
c0 -81.333 21.167 -140.5 63.5 -177.5s106.833 -55.5 193.5 -55.5c32.667 0 65.5 2.5 98.5 7.5s73.167 12.833 120.5 23.5v-331c-40 -12 -84.833 -21.5 -134.5 -28.5s-100.834 -10.5 -153.501 -10.5c-203.333 0 -358.5 48.167 -465.5 144.5zM359.001 1220l233 396h449
l-294 -396h-388z" />
    <glyph glyph-name="Ccircumflex" unicode="&#x108;" horiz-adv-x="1296" 
d="M69 736c0 163.333 33.001 301.999 99.001 415.999s162.833 200.5 290.5 259.5s283.5 88.5 467.5 88.5c114 0 219.667 -10.333 317 -31v-353c-95.333 18.667 -188.333 28 -279 28c-102.667 0 -186.167 -14.167 -250.5 -42.5s-112 -72.166 -143 -131.499
s-46.5 -136 -46.5 -230c0 -96 15 -173.5 45 -232.5s76.5 -102.333 139.5 -130s144.833 -41.5 245.5 -41.5c85.333 0 181.666 13.667 288.999 41v-353c-46.667 -13.333 -99.5 -24 -158.5 -32s-117.167 -12 -174.5 -12c-560.667 0 -841 252 -841 756zM1224 1586h-311l-129 166
l-129 -166h-311l263 316h354z" />
    <glyph glyph-name="ccircumflex" unicode="&#x109;" horiz-adv-x="1020" 
d="M213.5 122.5c-107 96.333 -160.499 237.833 -160.499 424.5c0 188.667 56.5 331 169.5 427s274.5 144 484.5 144c95.333 0 182 -8 260 -24v-331c-73.333 10.667 -139 16 -197 16c-98 0 -169 -18.5 -213 -55.5s-66 -94.833 -66 -173.5
c0 -81.333 21.167 -140.5 63.5 -177.5s106.833 -55.5 193.5 -55.5c32.667 0 65.5 2.5 98.5 7.5s73.167 12.833 120.5 23.5v-331c-40 -12 -84.833 -21.5 -134.5 -28.5s-100.834 -10.5 -153.501 -10.5c-203.333 0 -358.5 48.167 -465.5 144.5zM962.001 1220h-295l-114 204
l-114 -204h-295l239 396h340z" />
    <glyph glyph-name="Cdotaccent" unicode="&#x10a;" horiz-adv-x="1296" 
d="M69 736c0 163.333 33.001 301.999 99.001 415.999s162.833 200.5 290.5 259.5s283.5 88.5 467.5 88.5c114 0 219.667 -10.333 317 -31v-353c-95.333 18.667 -188.333 28 -279 28c-102.667 0 -186.167 -14.167 -250.5 -42.5s-112 -72.166 -143 -131.499
s-46.5 -136 -46.5 -230c0 -96 15 -173.5 45 -232.5s76.5 -102.333 139.5 -130s144.833 -41.5 245.5 -41.5c85.333 0 181.666 13.667 288.999 41v-353c-46.667 -13.333 -99.5 -24 -158.5 -32s-117.167 -12 -174.5 -12c-560.667 0 -841 252 -841 756zM595.001 1616.5
c-42.667 31 -64 75.5 -64 133.5s21.333 102.5 64 133.5s105.667 46.5 189 46.5s146.333 -15.5 189 -46.5s64 -75.5 64 -133.5s-21.333 -102.5 -64 -133.5s-105.667 -46.5 -189 -46.5s-146.333 15.5 -189 46.5z" />
    <glyph glyph-name="cdotaccent" unicode="&#x10b;" horiz-adv-x="1020" 
d="M213.5 122.5c-107 96.333 -160.499 237.833 -160.499 424.5c0 188.667 56.5 331 169.5 427s274.5 144 484.5 144c95.333 0 182 -8 260 -24v-331c-73.333 10.667 -139 16 -197 16c-98 0 -169 -18.5 -213 -55.5s-66 -94.833 -66 -173.5
c0 -81.333 21.167 -140.5 63.5 -177.5s106.833 -55.5 193.5 -55.5c32.667 0 65.5 2.5 98.5 7.5s73.167 12.833 120.5 23.5v-331c-40 -12 -84.833 -21.5 -134.5 -28.5s-100.834 -10.5 -153.501 -10.5c-203.333 0 -358.5 48.167 -465.5 144.5zM298.001 1418
c0 140 85 210 255 210s255 -70 255 -210s-85 -210 -255 -210s-255 70 -255 210z" />
    <glyph glyph-name="Ccaron" unicode="&#x10c;" horiz-adv-x="1296" 
d="M69 736c0 163.333 33.001 301.999 99.001 415.999s162.833 200.5 290.5 259.5s283.5 88.5 467.5 88.5c114 0 219.667 -10.333 317 -31v-353c-95.333 18.667 -188.333 28 -279 28c-102.667 0 -186.167 -14.167 -250.5 -42.5s-112 -72.166 -143 -131.499
s-46.5 -136 -46.5 -230c0 -96 15 -173.5 45 -232.5s76.5 -102.333 139.5 -130s144.833 -41.5 245.5 -41.5c85.333 0 181.666 13.667 288.999 41v-353c-46.667 -13.333 -99.5 -24 -158.5 -32s-117.167 -12 -174.5 -12c-560.667 0 -841 252 -841 756zM913.001 1902h311
l-263 -316h-354l-263 316h311l129 -166z" />
    <glyph glyph-name="ccaron" unicode="&#x10d;" horiz-adv-x="1020" 
d="M213.5 122.5c-107 96.333 -160.499 237.833 -160.499 424.5c0 188.667 56.5 331 169.5 427s274.5 144 484.5 144c95.333 0 182 -8 260 -24v-331c-73.333 10.667 -139 16 -197 16c-98 0 -169 -18.5 -213 -55.5s-66 -94.833 -66 -173.5
c0 -81.333 21.167 -140.5 63.5 -177.5s106.833 -55.5 193.5 -55.5c32.667 0 65.5 2.5 98.5 7.5s73.167 12.833 120.5 23.5v-331c-40 -12 -84.833 -21.5 -134.5 -28.5s-100.834 -10.5 -153.501 -10.5c-203.333 0 -358.5 48.167 -465.5 144.5zM667.001 1616h295l-239 -396
h-340l-239 396h295l114 -204z" />
    <glyph glyph-name="Dcaron" unicode="&#x10e;" horiz-adv-x="1567" 
d="M328.5 -10.5c-79.667 4.33301 -152.833 10.498 -219.5 18.498v1433c75.333 17.333 159.5 31 252.5 41s183.5 15 271.5 15c288.667 0 505 -61.667 649 -185s216 -314 216 -572c0 -177.333 -34.5 -321.666 -103.5 -432.999s-172.833 -193.166 -311.5 -245.499
s-315.667 -78.5 -531 -78.5c-69.333 0 -143.833 2.16699 -223.5 6.5zM886.501 371.998c55.667 26.667 97.333 69.8301 125 129.497s41.5 139.834 41.5 240.501c0 99.333 -14.5 178.833 -43.5 238.5s-71.667 102.834 -128 129.501s-127.5 40 -213.5 40
c-18 0 -39 -1.16699 -63 -3.5s-44.333 -5.16602 -61 -8.49902v-803c30.667 -2 73 -3 127 -3c88 0 159.833 13.333 215.5 40zM825 1901.99h311l-263 -316h-354l-263 316h311l129 -166z" />
    <glyph glyph-name="dcaron" unicode="&#x10f;" horiz-adv-x="1298" 
d="M282.5 39c-69.667 39.333 -125.335 99.834 -167.002 181.501s-62.5 183.834 -62.5 306.501c0 125.333 23.833 232.166 71.5 320.499s118.334 155.666 212.001 201.999s208.834 69.5 345.501 69.5c24.667 0 55.667 -1.33301 93 -4v501h426v-1616h-357l-25 113h-18
c-31.333 -42 -71 -74.667 -119 -98s-103.333 -35 -166 -35c-86 0 -163.833 19.667 -233.5 59zM716.499 332.501c22.333 5.66699 41.834 13.833 58.501 24.5v436c-34.667 5.33301 -65.334 8 -92.001 8c-70 0 -121.333 -18.5 -154 -55.5s-49 -99.167 -49 -186.5
c0 -86.667 14.333 -147.5 43 -182.5s70.334 -52.5 125.001 -52.5c23.333 0 46.166 2.83301 68.499 8.5zM1283.5 1393.5c5 65.667 7.5 139.832 7.5 222.499h277c0 -83.333 -7.5 -162.833 -22.5 -238.5s-35.833 -141.5 -62.5 -197.5h-226
c12.667 76.667 21.5 147.834 26.5 213.501z" />
    <glyph glyph-name="Dcroat" unicode="&#x110;" horiz-adv-x="1567" 
d="M1282 1312c144 -123.333 216.001 -314.002 216.001 -572.002c0 -177.333 -34.5 -321.666 -103.5 -432.999s-172.833 -193.166 -311.5 -245.499s-315.667 -78.5 -531 -78.5c-69.333 0 -143.833 2.16699 -223.5 6.5s-152.834 10.5 -219.501 18.5v619h-105v270h105v544
c75.333 17.333 159.5 31 252.5 41s183.5 15 271.5 15c288.667 0 505 -61.667 649 -185zM886.501 371.998c55.667 26.667 97.333 69.8301 125 129.497s41.5 139.834 41.5 240.501c0 99.333 -14.5 178.833 -43.5 238.5s-71.667 102.834 -128 129.501s-127.5 40 -213.5 40
c-18 0 -39 -1.16699 -63 -3.5s-44.333 -5.16602 -61 -8.49902v-241h234v-270h-234v-292c30.667 -2 73 -3 127 -3c88 0 159.833 13.333 215.5 40z" />
    <glyph glyph-name="dcroat" unicode="&#x111;" horiz-adv-x="1298" 
d="M1297 1223l-96.001 0.000976562v-1223h-357l-25 113h-18c-31.333 -42 -71 -74.667 -119 -98s-103.333 -35 -166 -35c-86 0 -163.833 19.667 -233.5 59s-125.334 99.833 -167.001 181.5s-62.5 183.834 -62.5 306.501c0 125.333 23.833 232.166 71.5 320.499
s118.334 155.666 212.001 201.999s208.834 69.5 345.501 69.5c24.667 0 55.667 -1.33301 93 -4v108h-326v260h326v133h426v-133h96v-260zM774.999 793.001c-34.667 5.33301 -65.333 7.99902 -92 7.99902c-70 0 -121.333 -18.5 -154 -55.5s-49 -99.167 -49 -186.5
c0 -86.667 14.333 -147.5 43 -182.5s70.334 -52.5 125.001 -52.5c23.333 0 46.166 2.83301 68.499 8.5s41.833 13.834 58.5 24.501v436z" />
    <glyph glyph-name="Emacron" unicode="&#x112;" horiz-adv-x="1314" 
d="M538 343h704v-343h-1133v1480h1123v-343h-694v-211h589v-342h-589v-241zM282 1621v248h820v-248h-820z" />
    <glyph glyph-name="emacron" unicode="&#x113;" horiz-adv-x="1163" 
d="M1120 431l-641.998 -0.00195312c4 -35.333 15.333 -62.666 34 -81.999s48.5 -33.333 89.5 -42s98.833 -13 173.5 -13c82 0 175.333 9.66699 280 29v-312c-114.667 -22 -229 -33 -343 -33c-154.667 0 -280.334 20.167 -377.001 60.5s-167.834 102.333 -213.501 186
s-68.5 192.5 -68.5 326.5c0 117.333 21.167 218.333 63.5 303s105 149.834 188 195.501s183.833 68.5 302.5 68.5c168 0 295.5 -50.667 382.5 -152s130.5 -244.333 130.5 -429v-106zM531.502 839.998c-17.667 -12 -31.167 -32 -40.5 -60s-14.333 -66.333 -15 -115h251
c-0.666992 48.667 -5.5 87 -14.5 115s-22.333 48 -40 60s-41.167 18 -70.5 18s-52.833 -6 -70.5 -18zM212.002 1295v248h772v-248h-772z" />
    <glyph glyph-name="Ebreve" unicode="&#x114;" horiz-adv-x="1314" 
d="M538 343h704v-343h-1133v1480h1123v-343h-694v-211h589v-342h-589v-241zM393.5 1670c-71.667 56 -113.832 133.333 -126.499 232h253c8 -39.333 26 -69 54 -89s67.333 -30 118 -30s90 10 118 30s46 49.667 54 89h253c-12.667 -98.667 -54.834 -176 -126.501 -232
s-171.167 -84 -298.5 -84s-226.833 28 -298.5 84z" />
    <glyph glyph-name="ebreve" unicode="&#x115;" horiz-adv-x="1163" 
d="M1120 431l-641.998 -0.00195312c4 -35.333 15.333 -62.666 34 -81.999s48.5 -33.333 89.5 -42s98.833 -13 173.5 -13c82 0 175.333 9.66699 280 29v-312c-114.667 -22 -229 -33 -343 -33c-154.667 0 -280.334 20.167 -377.001 60.5s-167.834 102.333 -213.501 186
s-68.5 192.5 -68.5 326.5c0 117.333 21.167 218.333 63.5 303s105 149.834 188 195.501s183.833 68.5 302.5 68.5c168 0 295.5 -50.667 382.5 -152s130.5 -244.333 130.5 -429v-106zM531.502 839.998c-17.667 -12 -31.167 -32 -40.5 -60s-14.333 -66.333 -15 -115h251
c-0.666992 48.667 -5.5 87 -14.5 115s-22.333 48 -40 60s-41.167 18 -70.5 18s-52.833 -6 -70.5 -18zM306.502 1321.5c-70.333 62.333 -108.835 153.833 -115.502 274.5h251c4.66699 -54.667 19.834 -95.167 45.501 -121.5s62.5 -39.5 110.5 -39.5s84.833 13.167 110.5 39.5
s40.834 66.833 45.501 121.5h251c-6.66699 -120.667 -45.167 -212.167 -115.5 -274.5s-167.5 -93.5 -291.5 -93.5s-221.167 31.167 -291.5 93.5z" />
    <glyph glyph-name="Edotaccent" unicode="&#x116;" horiz-adv-x="1314" 
d="M538 343h704v-343h-1133v1480h1123v-343h-694v-211h589v-342h-589v-241zM503 1616.5c-42.667 31 -64 75.5 -64 133.5s21.333 102.5 64 133.5s105.667 46.5 189 46.5s146.333 -15.5 189 -46.5s64 -75.5 64 -133.5s-21.333 -102.5 -64 -133.5s-105.667 -46.5 -189 -46.5
s-146.333 15.5 -189 46.5z" />
    <glyph glyph-name="edotaccent" unicode="&#x117;" horiz-adv-x="1163" 
d="M1120 431l-641.998 -0.00195312c4 -35.333 15.333 -62.666 34 -81.999s48.5 -33.333 89.5 -42s98.833 -13 173.5 -13c82 0 175.333 9.66699 280 29v-312c-114.667 -22 -229 -33 -343 -33c-154.667 0 -280.334 20.167 -377.001 60.5s-167.834 102.333 -213.501 186
s-68.5 192.5 -68.5 326.5c0 117.333 21.167 218.333 63.5 303s105 149.834 188 195.501s183.833 68.5 302.5 68.5c168 0 295.5 -50.667 382.5 -152s130.5 -244.333 130.5 -429v-106zM531.502 839.998c-17.667 -12 -31.167 -32 -40.5 -60s-14.333 -66.333 -15 -115h251
c-0.666992 48.667 -5.5 87 -14.5 115s-22.333 48 -40 60s-41.167 18 -70.5 18s-52.833 -6 -70.5 -18zM343.002 1418c0 140 85 210 255 210s255 -70 255 -210s-85 -210 -255 -210s-255 70 -255 210z" />
    <glyph glyph-name="Eogonek" unicode="&#x118;" horiz-adv-x="1314" 
d="M960 -96c-36 -33.333 -54 -70 -54 -110c0 -62.667 46 -94 138 -94c39.333 0 83 8.33301 131 25v-155c-61.333 -20 -126 -30 -194 -30c-104 0 -182 19.833 -234 59.5s-78 94.5 -78 164.5c0 47.333 12.667 90.5 38 129.5s66.333 74.5 123 106.5h-721v1480h1123v-343h-694
v-211h589v-342h-589v-241h704v-343h-90c-92 -30.667 -156 -62.667 -192 -96z" />
    <glyph glyph-name="eogonek" unicode="&#x119;" horiz-adv-x="1163" 
d="M1120 431l-641.999 -0.00195312c4 -35.333 15.333 -62.666 34 -81.999s48.5 -33.333 89.5 -42s98.833 -13 173.5 -13c82 0 175.333 9.66699 280 29v-312c-88 -32 -149.333 -66 -184 -102s-52 -75 -52 -117c0 -28.667 10 -51.167 30 -67.5s49.333 -24.5 88 -24.5
c36 0 75.333 8.33301 118 25v-155c-28.667 -10 -56.667 -17.5 -84 -22.5s-59.333 -7.5 -96 -7.5c-96 0 -168.833 19.833 -218.5 59.5s-74.5 94.5 -74.5 164.5c0 42.667 9 81.667 27 117s47.667 67.666 89 96.999c-151.333 1.33301 -274.333 22.333 -369 63
s-164.334 102.834 -209.001 186.501s-67 191.5 -67 323.5c0 117.333 21.167 218.333 63.5 303s105 149.834 188 195.501s183.833 68.5 302.5 68.5c168 0 295.5 -50.667 382.5 -152s130.5 -244.333 130.5 -429v-106zM531.501 829.998c-17.667 -12 -31.167 -32 -40.5 -60
s-14.333 -66.333 -15 -115h251c-0.666992 48.667 -5.5 87 -14.5 115s-22.333 48 -40 60s-41.167 18 -70.5 18s-52.833 -6 -70.5 -18z" />
    <glyph glyph-name="Ecaron" unicode="&#x11a;" horiz-adv-x="1314" 
d="M538 343h704v-343h-1133v1480h1123v-343h-694v-211h589v-342h-589v-241zM821 1902h311l-263 -316h-354l-263 316h311l129 -166z" />
    <glyph glyph-name="ecaron" unicode="&#x11b;" horiz-adv-x="1163" 
d="M1120 431l-641.998 -0.00195312c4 -35.333 15.333 -62.666 34 -81.999s48.5 -33.333 89.5 -42s98.833 -13 173.5 -13c82 0 175.333 9.66699 280 29v-312c-114.667 -22 -229 -33 -343 -33c-154.667 0 -280.334 20.167 -377.001 60.5s-167.834 102.333 -213.501 186
s-68.5 192.5 -68.5 326.5c0 117.333 21.167 218.333 63.5 303s105 149.834 188 195.501s183.833 68.5 302.5 68.5c168 0 295.5 -50.667 382.5 -152s130.5 -244.333 130.5 -429v-106zM531.502 839.998c-17.667 -12 -31.167 -32 -40.5 -60s-14.333 -66.333 -15 -115h251
c-0.666992 48.667 -5.5 87 -14.5 115s-22.333 48 -40 60s-41.167 18 -70.5 18s-52.833 -6 -70.5 -18zM712.002 1616h295l-239 -396h-340l-239 396h295l114 -204z" />
    <glyph glyph-name="Gcircumflex" unicode="&#x11c;" horiz-adv-x="1479" 
d="M1369 720v-704.997c-144.667 -23.333 -276.667 -35 -396 -35c-303.333 0 -529.833 62.667 -679.5 188s-224.5 314.666 -224.5 567.999c0 248 77.333 437.333 232 568s383 196 685 196c120 0 231.667 -11.333 335 -34v-353c-102 20.667 -200 31 -294 31
c-122.667 -0.666992 -220.667 -15.334 -294 -44.001s-126.833 -73 -160.5 -133s-50.5 -139.333 -50.5 -238c0 -134.667 34 -234.334 102 -299.001s172.333 -97 313 -97h29v387h403zM1285 1586h-311l-129 166l-129 -166h-311l263 316h354z" />
    <glyph glyph-name="gcircumflex" unicode="&#x11d;" horiz-adv-x="1298" 
d="M134 -418v327c62.667 -15.333 125.167 -27 187.5 -35s120.166 -12 173.499 -12c99.333 0 170.833 16.333 214.5 49s65.5 85.334 65.5 158.001v50h-19c-31.333 -40 -69.833 -70.167 -115.5 -90.5s-97.834 -30.5 -156.501 -30.5c-77.333 0 -148.666 20 -213.999 60
s-117.833 100 -157.5 180s-59.5 176.667 -59.5 290c0 188.667 55.5 334 166.5 436s278.167 153.333 501.5 154c81.333 0 165.166 -6 251.499 -18s162.5 -29 228.5 -51v-899c0 -142 -24.167 -257.833 -72.5 -347.5s-121.666 -155.834 -219.999 -198.501
s-224.166 -64 -377.499 -64c-144.667 0 -277 14 -397 42zM775 364v428c-31.333 6 -62 9 -92 9c-67.333 0 -118 -18.5 -152 -55.5s-51 -97.833 -51 -182.5c0 -82.667 14.333 -140.5 43 -173.5s72.667 -49.5 132 -49.5c45.333 0 85.333 8 120 24zM1085 1220h-295l-114 204
l-114 -204h-295l239 396h340z" />
    <glyph glyph-name="Gbreve" unicode="&#x11e;" horiz-adv-x="1479" 
d="M1369 720v-704.997c-144.667 -23.333 -276.667 -35 -396 -35c-303.333 0 -529.833 62.667 -679.5 188s-224.5 314.666 -224.5 567.999c0 248 77.333 437.333 232 568s383 196 685 196c120 0 231.667 -11.333 335 -34v-353c-102 20.667 -200 31 -294 31
c-122.667 -0.666992 -220.667 -15.334 -294 -44.001s-126.833 -73 -160.5 -133s-50.5 -139.333 -50.5 -238c0 -134.667 34 -234.334 102 -299.001s172.333 -97 313 -97h29v387h403zM546.5 1670c-71.667 56 -113.832 133.333 -126.499 232h253c8 -39.333 26 -69 54 -89
s67.333 -30 118 -30s90 10 118 30s46 49.667 54 89h253c-12.667 -98.667 -54.834 -176 -126.501 -232s-171.167 -84 -298.5 -84s-226.833 28 -298.5 84z" />
    <glyph glyph-name="gbreve" unicode="&#x11f;" horiz-adv-x="1298" 
d="M134 -418v327c62.667 -15.333 125.167 -27 187.5 -35s120.166 -12 173.499 -12c99.333 0 170.833 16.333 214.5 49s65.5 85.334 65.5 158.001v50h-19c-31.333 -40 -69.833 -70.167 -115.5 -90.5s-97.834 -30.5 -156.501 -30.5c-77.333 0 -148.666 20 -213.999 60
s-117.833 100 -157.5 180s-59.5 176.667 -59.5 290c0 188.667 55.5 334 166.5 436s278.167 153.333 501.5 154c81.333 0 165.166 -6 251.499 -18s162.5 -29 228.5 -51v-899c0 -142 -24.167 -257.833 -72.5 -347.5s-121.666 -155.834 -219.999 -198.501
s-224.166 -64 -377.499 -64c-144.667 0 -277 14 -397 42zM775 364v428c-31.333 6 -62 9 -92 9c-67.333 0 -118 -18.5 -152 -55.5s-51 -97.833 -51 -182.5c0 -82.667 14.333 -140.5 43 -173.5s72.667 -49.5 132 -49.5c45.333 0 85.333 8 120 24zM384.5 1321.5
c-70.333 62.333 -108.835 153.833 -115.502 274.5h251c4.66699 -54.667 19.834 -95.167 45.501 -121.5s62.5 -39.5 110.5 -39.5s84.833 13.167 110.5 39.5s40.834 66.833 45.501 121.5h251c-6.66699 -120.667 -45.167 -212.167 -115.5 -274.5s-167.5 -93.5 -291.5 -93.5
s-221.167 31.167 -291.5 93.5z" />
    <glyph glyph-name="Gdotaccent" unicode="&#x120;" horiz-adv-x="1479" 
d="M1369 720v-704.997c-144.667 -23.333 -276.667 -35 -396 -35c-303.333 0 -529.833 62.667 -679.5 188s-224.5 314.666 -224.5 567.999c0 248 77.333 437.333 232 568s383 196 685 196c120 0 231.667 -11.333 335 -34v-353c-102 20.667 -200 31 -294 31
c-122.667 -0.666992 -220.667 -15.334 -294 -44.001s-126.833 -73 -160.5 -133s-50.5 -139.333 -50.5 -238c0 -134.667 34 -234.334 102 -299.001s172.333 -97 313 -97h29v387h403zM656 1616.5c-42.667 31 -64 75.5 -64 133.5s21.333 102.5 64 133.5s105.667 46.5 189 46.5
s146.333 -15.5 189 -46.5s64 -75.5 64 -133.5s-21.333 -102.5 -64 -133.5s-105.667 -46.5 -189 -46.5s-146.333 15.5 -189 46.5z" />
    <glyph glyph-name="gdotaccent" unicode="&#x121;" horiz-adv-x="1298" 
d="M134 -418v327c62.667 -15.333 125.167 -27 187.5 -35s120.166 -12 173.499 -12c99.333 0 170.833 16.333 214.5 49s65.5 85.334 65.5 158.001v50h-19c-31.333 -40 -69.833 -70.167 -115.5 -90.5s-97.834 -30.5 -156.501 -30.5c-77.333 0 -148.666 20 -213.999 60
s-117.833 100 -157.5 180s-59.5 176.667 -59.5 290c0 188.667 55.5 334 166.5 436s278.167 153.333 501.5 154c81.333 0 165.166 -6 251.499 -18s162.5 -29 228.5 -51v-899c0 -142 -24.167 -257.833 -72.5 -347.5s-121.666 -155.834 -219.999 -198.501
s-224.166 -64 -377.499 -64c-144.667 0 -277 14 -397 42zM775 364v428c-31.333 6 -62 9 -92 9c-67.333 0 -118 -18.5 -152 -55.5s-51 -97.833 -51 -182.5c0 -82.667 14.333 -140.5 43 -173.5s72.667 -49.5 132 -49.5c45.333 0 85.333 8 120 24zM421 1418
c0 140 85 210 255 210s255 -70 255 -210s-85 -210 -255 -210s-255 70 -255 210z" />
    <glyph glyph-name="Gcommaaccent" unicode="&#x122;" horiz-adv-x="1479" 
d="M1369 720v-704.997c-144.667 -23.333 -276.667 -35 -396 -35c-303.333 0 -529.833 62.667 -679.5 188s-224.5 314.666 -224.5 567.999c0 248 77.333 437.333 232 568s383 196 685 196c120 0 231.667 -11.333 335 -34v-353c-102 20.667 -200 31 -294 31
c-122.667 -0.666992 -220.667 -15.334 -294 -44.001s-126.833 -73 -160.5 -133s-50.5 -139.333 -50.5 -238c0 -134.667 34 -234.334 102 -299.001s172.333 -97 313 -97h29v387h403zM1073 -279.997c0 -40 -8.66797 -82 -26.001 -126s-39.333 -81.333 -66 -112h-262
c18 32 31.833 59.5 41.5 82.5s16.834 45.167 21.501 66.5c-110 11.333 -165 55 -165 131c0 89.333 76 134 228 134s228 -58.667 228 -176z" />
    <glyph glyph-name="gcommaaccent" unicode="&#x123;" horiz-adv-x="1298" 
d="M134 -418v327c62.667 -15.333 125.167 -27 187.5 -35s120.166 -12 173.499 -12c99.333 0 170.833 16.333 214.5 49s65.5 85.334 65.5 158.001v50h-19c-31.333 -40 -69.833 -70.167 -115.5 -90.5s-97.834 -30.5 -156.501 -30.5c-77.333 0 -148.666 20 -213.999 60
s-117.833 100 -157.5 180s-59.5 176.667 -59.5 290c0 188.667 55.5 334 166.5 436s278.167 153.333 501.5 154c81.333 0 165.166 -6 251.499 -18s162.5 -29 228.5 -51v-899c0 -142 -24.167 -257.833 -72.5 -347.5s-121.666 -155.834 -219.999 -198.501
s-224.166 -64 -377.499 -64c-144.667 0 -277 14 -397 42zM775 364v428c-31.333 6 -62 9 -92 9c-67.333 0 -118 -18.5 -152 -55.5s-51 -97.833 -51 -182.5c0 -82.667 14.333 -140.5 43 -173.5s72.667 -49.5 132 -49.5c45.333 0 85.333 8 120 24zM904 1346
c0 -89.333 -75.999 -134 -227.999 -134s-228 58.667 -228 176c0 40 8.66699 82 26 126s39.333 81.333 66 112h262c-18 -32 -31.833 -59.5 -41.5 -82.5s-16.834 -45.167 -21.501 -66.5c110 -11.333 165 -55 165 -131z" />
    <glyph glyph-name="Hcircumflex" unicode="&#x124;" horiz-adv-x="1581" 
d="M109 0v1480h435v-535h493v535h435v-1480h-435v565h-493v-565h-435zM1231 1586h-311l-129 166l-129 -166h-311l263 316h354z" />
    <glyph glyph-name="hcircumflex" unicode="&#x125;" horiz-adv-x="1281" 
d="M97 1616h425.999v-619h19c69.333 80.667 163 121 281 121c70.667 0 133.5 -15.833 188.5 -47.5s98.5 -81.834 130.5 -150.501s48 -156 48 -262v-658h-426v627c0 46.667 -8.83301 79.5 -26.5 98.5s-44.167 28.5 -79.5 28.5c-25.333 0 -50.166 -4.66699 -74.499 -14
s-44.5 -21.666 -60.5 -36.999v-703h-426v1616zM1084 1682h-311l-129 166l-129 -166h-311l263 316h354z" />
    <glyph glyph-name="Hbar" unicode="&#x126;" horiz-adv-x="1581" 
d="M1577 1342v-261h-105v-1081h-435v565h-493v-565h-435v1081h-105v261h105v138h435v-138h493v138h435v-138h105zM1037 945v136h-493v-136h493z" />
    <glyph glyph-name="hbar" unicode="&#x127;" horiz-adv-x="1281" 
d="M1011.5 1070.5c55 -31.667 98.499 -81.834 130.499 -150.501s48 -156 48 -262v-658h-426v627c0 46.667 -8.83301 79.5 -26.5 98.5s-44.167 28.5 -79.5 28.5c-25.333 0 -50.166 -4.66699 -74.499 -14s-44.5 -21.666 -60.5 -36.999v-703h-426v1220h-95v260h95v136h426v-136
h326v-260h-326v-223h19c69.333 80.667 163 121 281 121c70.667 0 133.5 -15.833 188.5 -47.5z" />
    <glyph glyph-name="Itilde" unicode="&#x128;" horiz-adv-x="653" 
d="M109 0v1480h435v-1480h-435zM412.5 1596.5c-30.333 7 -65.165 16.834 -104.498 29.501c-38.667 12 -70.5 21 -95.5 27s-51.167 9 -78.5 9c-43.333 0 -81.5 -5.5 -114.5 -16.5s-67.5 -28.833 -103.5 -53.5v233c30.667 26.667 63.667 46.167 99 58.5
s77.666 18.5 126.999 18.5c34 0 65.833 -3.5 95.5 -10.5s65.167 -17.167 106.5 -30.5c37.333 -12.667 68.666 -22 93.999 -28s52 -9 80 -9c43.333 0 81.5 5.5 114.5 16.5s67.5 28.833 103.5 53.5v-233c-30 -26.667 -62.667 -45.834 -98 -57.501s-78 -17.5 -128 -17.5
c-34.667 0 -67.167 3.5 -97.5 10.5z" />
    <glyph glyph-name="itilde" unicode="&#x129;" horiz-adv-x="621" 
d="M97 0v1100h427v-1100h-427zM390.5 1258.5c-27.667 9 -60.5 22.167 -98.5 39.5c-36.667 16 -66.167 27.667 -88.5 35s-45.5 11 -69.5 11c-40 0 -76.333 -7.16699 -109 -21.5s-66.334 -37.5 -101.001 -69.5v256c30 29.333 62.333 50.666 97 63.999s75 20 121 20
c30.667 0 59.834 -4.5 87.501 -13.5s60.5 -22.167 98.5 -39.5c36.667 -16 66.167 -27.667 88.5 -35s45.5 -11 69.5 -11c40 0 76.333 7.16699 109 21.5s66.334 37.5 101.001 69.5v-256c-30 -29.333 -62.333 -50.666 -97 -63.999s-75 -20 -121 -20
c-30.667 0 -59.834 4.5 -87.501 13.5z" />
    <glyph glyph-name="Imacron" unicode="&#x12a;" horiz-adv-x="653" 
d="M109 0v1480h435v-1480h-435zM-84 1621v248h820v-248h-820z" />
    <glyph glyph-name="imacron" unicode="&#x12b;" horiz-adv-x="621" 
d="M97 0v1100h427v-1100h-427zM-76 1295v248h772v-248h-772z" />
    <glyph glyph-name="Ibreve" unicode="&#x12c;" horiz-adv-x="653" 
d="M109 0v1480h435v-1480h-435zM27.5 1670c-71.667 56 -113.832 133.333 -126.499 232h253c8 -39.333 26 -69 54 -89s67.333 -30 118 -30s90 10 118 30s46 49.667 54 89h253c-12.667 -98.667 -54.834 -176 -126.501 -232s-171.167 -84 -298.5 -84s-226.833 28 -298.5 84z
" />
    <glyph glyph-name="ibreve" unicode="&#x12d;" horiz-adv-x="621" 
d="M97 0v1100h427v-1100h-427zM18.5 1321.5c-70.333 62.333 -108.835 153.833 -115.502 274.5h251c4.66699 -54.667 19.834 -95.167 45.501 -121.5s62.5 -39.5 110.5 -39.5s84.833 13.167 110.5 39.5s40.834 66.833 45.501 121.5h251
c-6.66699 -120.667 -45.167 -212.167 -115.5 -274.5s-167.5 -93.5 -291.5 -93.5s-221.167 31.167 -291.5 93.5z" />
    <glyph glyph-name="Iogonek" unicode="&#x12e;" horiz-adv-x="653" 
d="M567 -275v-155c-61.333 -20 -126 -30 -194 -30c-104 0 -182 19.833 -234 59.5s-78 94.5 -78 164.5c0 47.333 12.667 90.5 38 129.5s66.333 74.5 123 106.5h-113v1480h435v-1480c-92 -30.667 -156 -62.667 -192 -96s-54 -70 -54 -110c0 -62.667 46 -94 138 -94
c39.333 0 83 8.33301 131 25z" />
    <glyph glyph-name="iogonek" unicode="&#x12f;" horiz-adv-x="621" 
d="M55 1418c0 140 85 210 255 210s255 -70 255 -210s-85 -210 -255 -210s-255 70 -255 210zM328 -275.5c20 -16.333 49.3359 -24.5 88.0029 -24.5c36 0 75.333 8.33301 118 25v-155c-28.667 -10 -56.834 -17.5 -84.501 -22.5s-59.834 -7.5 -96.501 -7.5
c-95.333 0 -167.833 19.833 -217.5 59.5s-74.5 94.5 -74.5 164.5c0 48 11.667 91.5 35 130.5s61.666 74.167 114.999 105.5h-114v1100h427v-1100c-85.333 -31.333 -144.333 -63.5 -177 -96.5s-49 -70.167 -49 -111.5c0 -28.667 10 -51.167 30 -67.5z" />
    <glyph glyph-name="Idotaccent" unicode="&#x130;" horiz-adv-x="653" 
d="M109 0v1480h435v-1480h-435zM137 1616.5c-42.667 31 -64 75.5 -64 133.5s21.333 102.5 64 133.5s105.667 46.5 189 46.5s146.333 -15.5 189 -46.5s64 -75.5 64 -133.5s-21.333 -102.5 -64 -133.5s-105.667 -46.5 -189 -46.5s-146.333 15.5 -189 46.5z" />
    <glyph glyph-name="dotlessi" unicode="&#x131;" horiz-adv-x="621" 
d="M97 0v1100h427v-1100h-427z" />
    <glyph glyph-name="Jcircumflex" unicode="&#x134;" horiz-adv-x="653" 
d="M-31 -172c53.333 70.667 90.334 141.333 111.001 212s31 158.667 31 264v1176h433v-1160c0 -130 -22.833 -248.5 -68.5 -355.5s-122.834 -213.167 -231.501 -318.5zM767.001 1586h-311l-129 166l-129 -166h-311l263 316h354z" />
    <glyph glyph-name="jcircumflex" unicode="&#x135;" horiz-adv-x="621" 
d="M-45 -296c53.333 70.667 90.333 141.332 111 211.999s31 158.667 31 264v920h427v-904c0 -129.333 -22.5 -247.166 -67.5 -353.499s-121.167 -212.5 -228.5 -318.5zM714 1220h-295l-114 204l-114 -204h-295l239 396h340z" />
    <glyph glyph-name="Kcommaaccent" unicode="&#x136;" horiz-adv-x="1393" 
d="M986 0l-355 565h-87v-565h-435v1480h435v-535h87l327 535h453l-437 -714l480 -766h-468zM959 -280c0 -40 -8.66797 -82 -26.001 -126s-39.333 -81.333 -66 -112h-262c18 32 31.833 59.5 41.5 82.5s16.834 45.167 21.501 66.5c-110 11.333 -165 55 -165 131
c0 89.333 76 134 228 134s228 -58.667 228 -176z" />
    <glyph glyph-name="kcommaaccent" unicode="&#x137;" horiz-adv-x="1274" 
d="M856 0l-249 398h-84v-398h-426v1616h426v-882h82l224 366h449l-315 -524l352 -576h-459zM895 -280c0 -40 -8.66797 -82 -26.001 -126s-39.333 -81.333 -66 -112h-262c18 32 31.833 59.5 41.5 82.5s16.834 45.167 21.501 66.5c-110 11.333 -165 55 -165 131
c0 89.333 76 134 228 134s228 -58.667 228 -176z" />
    <glyph glyph-name="kgreenlandic" unicode="&#x138;" horiz-adv-x="1274" 
d="M856 0l-249 398h-84v-398h-426v1100h426v-366h82l224 366h449l-315 -524l352 -576h-459z" />
    <glyph glyph-name="Lacute" unicode="&#x139;" horiz-adv-x="1200" 
d="M109 0v1480h435v-1122h648v-358h-1083zM137 1586l183 316h445l-246 -316h-382z" />
    <glyph glyph-name="lacute" unicode="&#x13a;" horiz-adv-x="620" 
d="M97 0v1616h426v-1616h-426zM117 1682l183 316h445l-246 -316h-382z" />
    <glyph glyph-name="Lcommaaccent" unicode="&#x13b;" horiz-adv-x="1200" 
d="M109 0v1480h435v-1122h648v-358h-1083zM878 -280c0 -40 -8.66797 -82 -26.001 -126s-39.333 -81.333 -66 -112h-262c18 32 31.833 59.5 41.5 82.5s16.834 45.167 21.501 66.5c-110 11.333 -165 55 -165 131c0 89.333 76 134 228 134s228 -58.667 228 -176z" />
    <glyph glyph-name="lcommaaccent" unicode="&#x13c;" horiz-adv-x="620" 
d="M97 0v1616h426v-1616h-426zM537 -280c0 -40 -8.66797 -82 -26.001 -126s-39.333 -81.333 -66 -112h-262c18 32 31.833 59.5 41.5 82.5s16.834 45.167 21.501 66.5c-110 11.333 -165 55 -165 131c0 89.333 76 134 228 134s228 -58.667 228 -176z" />
    <glyph glyph-name="Lcaron" unicode="&#x13d;" horiz-adv-x="1200" 
d="M109 0v1480h435v-1122h648v-358h-1083zM789 1359.5c4.66699 69 7 154.5 7 256.5h277c0 -193.333 -27.667 -352 -83 -476h-226c12 77.333 20.333 150.5 25 219.5z" />
    <glyph glyph-name="lcaron" unicode="&#x13e;" horiz-adv-x="620" 
d="M97 0v1616h426v-1616h-426zM605.5 1393.5c5 65.667 7.5 139.832 7.5 222.499h277c0 -83.333 -7.5 -162.833 -22.5 -238.5s-35.833 -141.5 -62.5 -197.5h-226c12.667 76.667 21.5 147.834 26.5 213.501z" />
    <glyph glyph-name="Ldot" unicode="&#x13f;" horiz-adv-x="1200" 
d="M109 0v1480h435v-1122h648v-358h-1083zM664 912c0 140.667 84.667 211 254 211c170 0 255 -70.333 255 -211c0 -140 -85 -210 -255 -210c-169.333 0 -254 70 -254 210z" />
    <glyph glyph-name="ldot" unicode="&#x140;" horiz-adv-x="1057" 
d="M97 0v1616h426v-1616h-426zM583 794c0 140 84.667 210 254 210c170 0 255 -70 255 -210s-85 -210 -255 -210c-169.333 0 -254 70 -254 210z" />
    <glyph glyph-name="Lslash" unicode="&#x141;" horiz-adv-x="1219" 
d="M563 358h648v-358h-1083v598l-60 -29l-120 244l180 86v581h435v-372l262 125l121 -244l-383 -183v-448z" />
    <glyph glyph-name="lslash" unicode="&#x142;" horiz-adv-x="710" 
d="M754 761l-186 -89v-672h-426v469l-71 -34l-115 232l186 89v860h426v-657l71 34z" />
    <glyph glyph-name="Nacute" unicode="&#x143;" horiz-adv-x="1593" 
d="M1076 1480h408v-1480h-434l-533 828v-828h-408v1480h434l533 -828v828zM603 1586l183 316h445l-246 -316h-382z" />
    <glyph glyph-name="nacute" unicode="&#x144;" horiz-adv-x="1281" 
d="M97 1100l350 -0.000976562l28 -104h18c37.333 39.333 82.333 69.5 135 90.5s110.334 31.5 173.001 31.5c119.333 0 214 -37.333 284 -112s105 -190.667 105 -348v-658h-426v630c0 45.333 -8.83301 77.333 -26.5 96s-44.167 28 -79.5 28
c-26.667 0 -51.834 -4.66699 -75.501 -14s-43.5 -21.666 -59.5 -36.999v-703h-426v1100zM450 1220l233 396h449l-294 -396h-388z" />
    <glyph glyph-name="Ncommaaccent" unicode="&#x145;" horiz-adv-x="1593" 
d="M1076 1480h408v-1480h-434l-533 828v-828h-408v1480h434l533 -828v828zM1024 -280c0 -40 -8.66797 -82 -26.001 -126s-39.333 -81.333 -66 -112h-262c18 32 31.833 59.5 41.5 82.5s16.834 45.167 21.501 66.5c-110 11.333 -165 55 -165 131c0 89.333 76 134 228 134
s228 -58.667 228 -176z" />
    <glyph glyph-name="ncommaaccent" unicode="&#x146;" horiz-adv-x="1281" 
d="M97 1100l350 -0.000976562l28 -104h18c37.333 39.333 82.333 69.5 135 90.5s110.334 31.5 173.001 31.5c119.333 0 214 -37.333 284 -112s105 -190.667 105 -348v-658h-426v630c0 45.333 -8.83301 77.333 -26.5 96s-44.167 28 -79.5 28
c-26.667 0 -51.834 -4.66699 -75.501 -14s-43.5 -21.666 -59.5 -36.999v-703h-426v1100zM872 -280.001c0 -40 -8.66797 -82 -26.001 -126s-39.333 -81.333 -66 -112h-262c18 32 31.833 59.5 41.5 82.5s16.834 45.167 21.501 66.5c-110 11.333 -165 55 -165 131
c0 89.333 76 134 228 134s228 -58.667 228 -176z" />
    <glyph glyph-name="Ncaron" unicode="&#x147;" horiz-adv-x="1593" 
d="M1076 1480h408v-1480h-434l-533 828v-828h-408v1480h434l533 -828v828zM925 1902h311l-263 -316h-354l-263 316h311l129 -166z" />
    <glyph glyph-name="ncaron" unicode="&#x148;" horiz-adv-x="1281" 
d="M97 1100l350 -0.000976562l28 -104h18c37.333 39.333 82.333 69.5 135 90.5s110.334 31.5 173.001 31.5c119.333 0 214 -37.333 284 -112s105 -190.667 105 -348v-658h-426v630c0 45.333 -8.83301 77.333 -26.5 96s-44.167 28 -79.5 28
c-26.667 0 -51.834 -4.66699 -75.501 -14s-43.5 -21.666 -59.5 -36.999v-703h-426v1100zM758 1616h295l-239 -396h-340l-239 396h295l114 -204z" />
    <glyph glyph-name="napostrophe" unicode="&#x149;" horiz-adv-x="1281" 
d="M97 1100l350 -0.000976562l28 -104h18c37.333 39.333 82.333 69.5 135 90.5s110.334 31.5 173.001 31.5c119.333 0 214 -37.333 284 -112s105 -190.667 105 -348v-658h-426v630c0 45.333 -8.83301 77.333 -26.5 96s-44.167 28 -79.5 28
c-26.667 0 -51.834 -4.66699 -75.501 -14s-43.5 -21.666 -59.5 -36.999v-703h-426v1100zM468 1450c0 -40 -8.66797 -82 -26.001 -126s-39.333 -81.333 -66 -112h-263c18 32 31.833 59.5 41.5 82.5s16.834 45.167 21.501 66.5c-110 11.333 -165 55 -165 131
c0 89.333 76 134 228 134c152.667 0 229 -58.667 229 -176z" />
    <glyph glyph-name="Eng" unicode="&#x14a;" horiz-adv-x="1593" 
d="M1484 1480l-0.000976562 -1244c0 -99.333 -9.5 -188.833 -28.5 -268.5s-50.167 -155.5 -93.5 -227.5s-101.666 -144 -174.999 -216l-272 180c38 47.333 68.5 93.666 91.5 138.999s40.167 93.333 51.5 144l-541 841v-828h-408v1480h434l533 -822v822h408z" />
    <glyph glyph-name="eng" unicode="&#x14b;" horiz-adv-x="1281" 
d="M622 -296c53.333 70.667 90.332 141.331 110.999 211.998s31 158.667 31 264v452c0 46.667 -8.83301 79.5 -26.5 98.5s-44.167 28.5 -79.5 28.5c-25.333 0 -50.166 -4.66699 -74.499 -14s-44.5 -21.666 -60.5 -36.999v-708h-426v1100h350l28 -104h18
c38.667 40 84 70.333 136 91s109.333 31 172 31c119.333 0 214 -37.167 284 -111.5s105 -190.5 105 -348.5v-462c0 -130 -22.5 -248.167 -67.5 -354.5s-121.167 -212.166 -228.5 -317.499z" />
    <glyph glyph-name="Omacron" unicode="&#x14c;" horiz-adv-x="1645" 
d="M422 66c-112.667 57.333 -199.667 142.833 -261 256.5s-92 252.834 -92 417.501s30.667 303.834 92 417.501s148.333 199.167 261 256.5s246 86 400 86s287.5 -28.833 400.5 -86.5s200.167 -143.334 261.5 -257.001s92 -252.5 92 -416.5s-30.667 -302.833 -92 -416.5
s-148.5 -199.334 -261.5 -257.001s-246.5 -86.5 -400.5 -86.5s-287.333 28.667 -400 86zM1053 426c52 66 77.999 168.001 77.999 306.001c0 145.333 -26.167 251.833 -78.5 319.5s-129.166 101.5 -230.499 101.5c-100.667 0 -177.167 -32.833 -229.5 -98.5
s-78.5 -167.834 -78.5 -306.501c0 -146.667 25.833 -253.5 77.5 -320.5s128.5 -100.5 230.5 -100.5s179 33 231 99zM411.999 1621v248h820v-248h-820z" />
    <glyph glyph-name="omacron" unicode="&#x14d;" horiz-adv-x="1267" 
d="M322.5 43c-87 43.333 -153.665 107.5 -199.998 192.5s-69.5 188.5 -69.5 310.5c0 186 50.167 327.833 150.5 425.5s243.5 146.5 429.5 146.5c123.333 0 228.333 -22 315 -66s152.667 -108.5 198 -193.5s68 -188.5 68 -310.5c0 -122.667 -23.333 -226.5 -70 -311.5
s-113.334 -149.333 -200.001 -193s-190.334 -65.5 -311.001 -65.5c-120 0 -223.5 21.667 -310.5 65zM719.502 317.5c22.333 15 39.167 40.834 50.5 77.501s17 87 17 151c0 65.333 -5.83301 116.666 -17.5 153.999s-28.5 63.5 -50.5 78.5s-50.667 22.5 -86 22.5
c-34.667 0 -63.167 -7.5 -85.5 -22.5s-39.166 -41 -50.499 -78s-17 -87.833 -17 -152.5s5.66699 -115.5 17 -152.5s28 -63 50 -78s50.667 -22.5 86 -22.5s64.166 7.5 86.499 22.5zM247.003 1295v248h772v-248h-772z" />
    <glyph glyph-name="Obreve" unicode="&#x14e;" horiz-adv-x="1645" 
d="M422 66c-112.667 57.333 -199.667 142.833 -261 256.5s-92 252.834 -92 417.501s30.667 303.834 92 417.501s148.333 199.167 261 256.5s246 86 400 86s287.5 -28.833 400.5 -86.5s200.167 -143.334 261.5 -257.001s92 -252.5 92 -416.5s-30.667 -302.833 -92 -416.5
s-148.5 -199.334 -261.5 -257.001s-246.5 -86.5 -400.5 -86.5s-287.333 28.667 -400 86zM1053 426c52 66 77.999 168.001 77.999 306.001c0 145.333 -26.167 251.833 -78.5 319.5s-129.166 101.5 -230.499 101.5c-100.667 0 -177.167 -32.833 -229.5 -98.5
s-78.5 -167.834 -78.5 -306.501c0 -146.667 25.833 -253.5 77.5 -320.5s128.5 -100.5 230.5 -100.5s179 33 231 99zM523.499 1670c-71.667 56 -113.832 133.333 -126.499 232h253c8 -39.333 26 -69 54 -89s67.333 -30 118 -30s90 10 118 30s46 49.667 54 89h253
c-12.667 -98.667 -54.834 -176 -126.501 -232s-171.167 -84 -298.5 -84s-226.833 28 -298.5 84z" />
    <glyph glyph-name="obreve" unicode="&#x14f;" horiz-adv-x="1267" 
d="M322.5 43c-87 43.333 -153.665 107.5 -199.998 192.5s-69.5 188.5 -69.5 310.5c0 186 50.167 327.833 150.5 425.5s243.5 146.5 429.5 146.5c123.333 0 228.333 -22 315 -66s152.667 -108.5 198 -193.5s68 -188.5 68 -310.5c0 -122.667 -23.333 -226.5 -70 -311.5
s-113.334 -149.333 -200.001 -193s-190.334 -65.5 -311.001 -65.5c-120 0 -223.5 21.667 -310.5 65zM719.502 317.5c22.333 15 39.167 40.834 50.5 77.501s17 87 17 151c0 65.333 -5.83301 116.666 -17.5 153.999s-28.5 63.5 -50.5 78.5s-50.667 22.5 -86 22.5
c-34.667 0 -63.167 -7.5 -85.5 -22.5s-39.166 -41 -50.499 -78s-17 -87.833 -17 -152.5s5.66699 -115.5 17 -152.5s28 -63 50 -78s50.667 -22.5 86 -22.5s64.166 7.5 86.499 22.5zM341.503 1321.5c-70.333 62.333 -108.835 153.833 -115.502 274.5h251
c4.66699 -54.667 19.834 -95.167 45.501 -121.5s62.5 -39.5 110.5 -39.5s84.833 13.167 110.5 39.5s40.834 66.833 45.501 121.5h251c-6.66699 -120.667 -45.167 -212.167 -115.5 -274.5s-167.5 -93.5 -291.5 -93.5s-221.167 31.167 -291.5 93.5z" />
    <glyph glyph-name="Ohungarumlaut" unicode="&#x150;" horiz-adv-x="1645" 
d="M422 66c-112.667 57.333 -199.667 142.833 -261 256.5s-92 252.834 -92 417.501s30.667 303.834 92 417.501s148.333 199.167 261 256.5s246 86 400 86s287.5 -28.833 400.5 -86.5s200.167 -143.334 261.5 -257.001s92 -252.5 92 -416.5s-30.667 -302.833 -92 -416.5
s-148.5 -199.334 -261.5 -257.001s-246.5 -86.5 -400.5 -86.5s-287.333 28.667 -400 86zM1053 426c52 66 77.999 168.001 77.999 306.001c0 145.333 -26.167 251.833 -78.5 319.5s-129.166 101.5 -230.499 101.5c-100.667 0 -177.167 -32.833 -229.5 -98.5
s-78.5 -167.834 -78.5 -306.501c0 -146.667 25.833 -253.5 77.5 -320.5s128.5 -100.5 230.5 -100.5s179 33 231 99zM440.999 1586l142 316h330l-162 -316h-310zM892.999 1586l142 316h331l-163 -316h-310z" />
    <glyph glyph-name="ohungarumlaut" unicode="&#x151;" horiz-adv-x="1267" 
d="M322.5 43c-87 43.333 -153.665 107.5 -199.998 192.5s-69.5 188.5 -69.5 310.5c0 186 50.167 327.833 150.5 425.5s243.5 146.5 429.5 146.5c123.333 0 228.333 -22 315 -66s152.667 -108.5 198 -193.5s68 -188.5 68 -310.5c0 -122.667 -23.333 -226.5 -70 -311.5
s-113.334 -149.333 -200.001 -193s-190.334 -65.5 -311.001 -65.5c-120 0 -223.5 21.667 -310.5 65zM719.502 317.5c22.333 15 39.167 40.834 50.5 77.501s17 87 17 151c0 65.333 -5.83301 116.666 -17.5 153.999s-28.5 63.5 -50.5 78.5s-50.667 22.5 -86 22.5
c-34.667 0 -63.167 -7.5 -85.5 -22.5s-39.166 -41 -50.499 -78s-17 -87.833 -17 -152.5s5.66699 -115.5 17 -152.5s28 -63 50 -78s50.667 -22.5 86 -22.5s64.166 7.5 86.499 22.5zM251.003 1220l152 396h331l-172 -396h-311zM704.003 1220l152 396h331l-172 -396h-311z" />
    <glyph glyph-name="OE" unicode="&#x152;" horiz-adv-x="2186" 
d="M2114 343v-343.002h-810c-37.333 0 -94.666 -2 -171.999 -6c-72 -4 -123.333 -6 -154 -6c-206.667 0 -376.834 26.333 -510.501 79s-233.5 134.334 -299.5 245.001s-99 253.334 -99 428.001c0 256 76.833 445.333 230.5 568s379.834 184 678.501 184
c33.333 0 86.666 -2 159.999 -6c74.667 -4 130 -6 166 -6h800v-343h-662v-211h557v-342h-557v-241h672zM1013 1139c-30.667 2 -73.334 2.99902 -128.001 2.99902c-84 0 -153.167 -13.167 -207.5 -39.5s-95.333 -69.166 -123 -128.499s-41.5 -138 -41.5 -236
c0 -97.333 13.833 -175.333 41.5 -234s68.667 -101.167 123 -127.5s123.5 -39.5 207.5 -39.5c54.667 0 97.334 1 128.001 3v799z" />
    <glyph glyph-name="oe" unicode="&#x153;" horiz-adv-x="1892" 
d="M1849 431l-633.999 -0.000976562c4 -35.333 15 -62.666 33 -81.999s47.167 -33.333 87.5 -42s96.5 -13 168.5 -13c82 0 175.333 9.66699 280 29v-312c-114.667 -22 -228.334 -33 -341.001 -33c-108 0 -200.167 10.833 -276.5 32.5s-138.5 54.167 -186.5 97.5
c-90 -86.667 -212.333 -130 -367 -130c-113.333 0 -212.166 21.833 -296.499 65.5s-149.333 108 -195 193s-68.5 188.167 -68.5 309.5c0 123.333 22.167 227.833 66.5 313.5s108.333 150.167 192 193.5s184.167 65 301.5 65c169.333 0 298.666 -50 387.999 -150
c42.667 48 94.334 85 155.001 111s128.667 39 204 39c102.667 0 190.667 -22.667 264 -68s129.166 -111.5 167.499 -198.5s57.5 -191.833 57.5 -314.5v-106zM1244 814.999c-19.333 -28.667 -29.668 -78.667 -31.001 -150h243c-1.33301 71.333 -11.5 121.333 -30.5 150
s-49.167 43 -90.5 43s-71.666 -14.333 -90.999 -43zM719.499 317.499c22.333 15 39.167 40.834 50.5 77.501s17 87 17 151c0 65.333 -5.83301 116.666 -17.5 153.999s-28.5 63.5 -50.5 78.5s-50.667 22.5 -86 22.5c-34.667 0 -63.167 -7.5 -85.5 -22.5
s-39.166 -41 -50.499 -78s-17 -87.833 -17 -152.5s5.66699 -115.5 17 -152.5s28 -63 50 -78s50.667 -22.5 86 -22.5s64.166 7.5 86.499 22.5z" />
    <glyph glyph-name="Racute" unicode="&#x154;" horiz-adv-x="1425" 
d="M959 0l-327 496.997l-96 3v-500h-427v1441c76.667 18 160 32.333 250 43s176 16 258 16c226.667 0 397.334 -41.167 512.001 -123.5s172 -208.166 172 -377.499c0 -99.333 -22.333 -184.666 -67 -255.999s-108.334 -127.666 -191.001 -168.999l386 -574h-470z
M536 821.997c46 -5.33301 90.333 -8 133 -8c75.333 0 131.833 14.333 169.5 43s56.5 76 56.5 142c0 124.667 -76 187 -228 187c-44 0 -87.667 -4 -131 -12v-352zM516 1586l183 316h445l-246 -316h-382z" />
    <glyph glyph-name="racute" unicode="&#x155;" horiz-adv-x="868" 
d="M97 1100h347.001l33 -139h18c49.333 104.667 139.666 157 270.999 157c30 0 60.333 -2.66699 91 -8v-383c-30.667 6.66699 -70 10 -118 10c-42.667 0 -84 -6.5 -124 -19.5s-70.667 -30.5 -92 -52.5v-665h-426v1100zM284.001 1220l233 396h449l-294 -396h-388z" />
    <glyph glyph-name="Rcommaaccent" unicode="&#x156;" horiz-adv-x="1425" 
d="M959 0l-327 496.997l-96 3v-500h-427v1441c76.667 18 160 32.333 250 43s176 16 258 16c226.667 0 397.334 -41.167 512.001 -123.5s172 -208.166 172 -377.499c0 -99.333 -22.333 -184.666 -67 -255.999s-108.334 -127.666 -191.001 -168.999l386 -574h-470z
M536 821.997c46 -5.33301 90.333 -8 133 -8c75.333 0 131.833 14.333 169.5 43s56.5 76 56.5 142c0 124.667 -76 187 -228 187c-44 0 -87.667 -4 -131 -12v-352zM978 -280.003c0 -40 -8.66797 -82 -26.001 -126s-39.333 -81.333 -66 -112h-262c18 32 31.833 59.5 41.5 82.5
s16.834 45.167 21.501 66.5c-110 11.333 -165 55 -165 131c0 89.333 76 134 228 134s228 -58.667 228 -176z" />
    <glyph glyph-name="rcommaaccent" unicode="&#x157;" horiz-adv-x="868" 
d="M97 1100h347.001l33 -139h18c49.333 104.667 139.666 157 270.999 157c30 0 60.333 -2.66699 91 -8v-383c-30.667 6.66699 -70 10 -118 10c-42.667 0 -84 -6.5 -124 -19.5s-70.667 -30.5 -92 -52.5v-665h-426v1100zM538.001 -280c0 -40 -8.66797 -82 -26.001 -126
s-39.333 -81.333 -66 -112h-262c18 32 31.833 59.5 41.5 82.5s16.834 45.167 21.501 66.5c-110 11.333 -165 55 -165 131c0 89.333 76 134 228 134s228 -58.667 228 -176z" />
    <glyph glyph-name="Rcaron" unicode="&#x158;" horiz-adv-x="1425" 
d="M959 0l-327 496.997l-96 3v-500h-427v1441c76.667 18 160 32.333 250 43s176 16 258 16c226.667 0 397.334 -41.167 512.001 -123.5s172 -208.166 172 -377.499c0 -99.333 -22.333 -184.666 -67 -255.999s-108.334 -127.666 -191.001 -168.999l386 -574h-470z
M536 821.997c46 -5.33301 90.333 -8 133 -8c75.333 0 131.833 14.333 169.5 43s56.5 76 56.5 142c0 124.667 -76 187 -228 187c-44 0 -87.667 -4 -131 -12v-352zM838 1902h311l-263 -316h-354l-263 316h311l129 -166z" />
    <glyph glyph-name="rcaron" unicode="&#x159;" horiz-adv-x="868" 
d="M97 1100h347.001l33 -139h18c49.333 104.667 139.666 157 270.999 157c30 0 60.333 -2.66699 91 -8v-383c-30.667 6.66699 -70 10 -118 10c-42.667 0 -84 -6.5 -124 -19.5s-70.667 -30.5 -92 -52.5v-665h-426v1100zM592.001 1616h295l-239 -396h-340l-239 396h295
l114 -204z" />
    <glyph glyph-name="Sacute" unicode="&#x15a;" horiz-adv-x="1215" 
d="M296.5 -2.5c-77 11.667 -147.164 27.833 -210.497 48.5v348c62 -20.667 133.667 -37.167 215 -49.5s157 -18.5 227 -18.5c78 0 133.167 9.16699 165.5 27.5s48.5 44.166 48.5 77.499c0 18.667 -4.33301 34.334 -13 47.001s-24.667 24.5 -48 35.5
s-57.333 22.167 -102 33.5l-132 34c-134.667 32.667 -235.834 85.167 -303.501 157.5s-101.5 166.833 -101.5 283.5c0 152.667 56.667 270.5 170 353.5s281.666 124.5 504.999 124.5c139.333 0 263.333 -14.333 372 -43v-348c-45.333 14 -98.833 25 -160.5 33
s-122.5 12 -182.5 12c-100.667 0 -171.334 -9.83301 -212.001 -29.5s-61 -46.167 -61 -79.5c0 -16.667 3.66699 -30.667 11 -42s20.5 -21.833 39.5 -31.5s46.833 -19.5 83.5 -29.5l133 -34c148.667 -36 258 -90 328 -162s105 -167 105 -285
c0 -98 -25.667 -183.167 -77 -255.5s-125.333 -128 -222 -167s-211 -58.5 -343 -58.5c-79.333 0 -157.5 5.83301 -234.5 17.5zM427.003 1586l183 316h445l-246 -316h-382z" />
    <glyph glyph-name="sacute" unicode="&#x15b;" horiz-adv-x="1031" 
d="M78 29v304.999c54 -16 113.667 -28.667 179 -38s130.666 -14 195.999 -14c55.333 0 94 4.83301 116 14.5s33 23.834 33 42.501c0 12 -3.83301 21.167 -11.5 27.5s-21.5 11.166 -41.5 14.499l-198 34c-104.667 17.333 -182 53 -232 107s-75 128 -75 222
c0 77.333 21 143.833 63 199.5s105.667 98.667 191 129s191.333 45.5 318 45.5c56.667 0 113 -3.33301 169 -10s105.333 -15.667 148 -27v-305c-42 12 -89.833 21.333 -143.5 28s-107.167 10 -160.5 10c-74 0 -124.5 -5.66699 -151.5 -17s-40.5 -26 -40.5 -44
c0 -10.667 4 -18.834 12 -24.501s22 -10.167 42 -13.5l199 -34c101.333 -17.333 177.5 -51.166 228.5 -101.499s76.5 -125.833 76.5 -226.5c0 -77.333 -21.167 -144.166 -63.5 -200.499s-103.666 -99.5 -183.999 -129.5s-175.833 -45 -286.5 -45c-144 0 -271.667 17 -383 51
zM325 1220l233 396h449l-294 -396h-388z" />
    <glyph glyph-name="Scircumflex" unicode="&#x15c;" horiz-adv-x="1215" 
d="M296.5 -2.5c-77 11.667 -147.164 27.833 -210.497 48.5v348c62 -20.667 133.667 -37.167 215 -49.5s157 -18.5 227 -18.5c78 0 133.167 9.16699 165.5 27.5s48.5 44.166 48.5 77.499c0 18.667 -4.33301 34.334 -13 47.001s-24.667 24.5 -48 35.5
s-57.333 22.167 -102 33.5l-132 34c-134.667 32.667 -235.834 85.167 -303.501 157.5s-101.5 166.833 -101.5 283.5c0 152.667 56.667 270.5 170 353.5s281.666 124.5 504.999 124.5c139.333 0 263.333 -14.333 372 -43v-348c-45.333 14 -98.833 25 -160.5 33
s-122.5 12 -182.5 12c-100.667 0 -171.334 -9.83301 -212.001 -29.5s-61 -46.167 -61 -79.5c0 -16.667 3.66699 -30.667 11 -42s20.5 -21.833 39.5 -31.5s46.833 -19.5 83.5 -29.5l133 -34c148.667 -36 258 -90 328 -162s105 -167 105 -285
c0 -98 -25.667 -183.167 -77 -255.5s-125.333 -128 -222 -167s-211 -58.5 -343 -58.5c-79.333 0 -157.5 5.83301 -234.5 17.5zM1060 1586h-311l-129 166l-129 -166h-311l263 316h354z" />
    <glyph glyph-name="scircumflex" unicode="&#x15d;" horiz-adv-x="1031" 
d="M78 29v304.999c54 -16 113.667 -28.667 179 -38s130.666 -14 195.999 -14c55.333 0 94 4.83301 116 14.5s33 23.834 33 42.501c0 12 -3.83301 21.167 -11.5 27.5s-21.5 11.166 -41.5 14.499l-198 34c-104.667 17.333 -182 53 -232 107s-75 128 -75 222
c0 77.333 21 143.833 63 199.5s105.667 98.667 191 129s191.333 45.5 318 45.5c56.667 0 113 -3.33301 169 -10s105.333 -15.667 148 -27v-305c-42 12 -89.833 21.333 -143.5 28s-107.167 10 -160.5 10c-74 0 -124.5 -5.66699 -151.5 -17s-40.5 -26 -40.5 -44
c0 -10.667 4 -18.834 12 -24.501s22 -10.167 42 -13.5l199 -34c101.333 -17.333 177.5 -51.166 228.5 -101.499s76.5 -125.833 76.5 -226.5c0 -77.333 -21.167 -144.166 -63.5 -200.499s-103.666 -99.5 -183.999 -129.5s-175.833 -45 -286.5 -45c-144 0 -271.667 17 -383 51
zM928 1220h-295l-114 204l-114 -204h-295l239 396h340z" />
    <glyph glyph-name="Scedilla" unicode="&#x15e;" horiz-adv-x="1215" 
d="M1116 236.5c-38 -65.667 -93.1631 -119.499 -165.496 -161.499s-159.166 -70 -260.499 -84v-67c62.667 -10 109.667 -30.833 141 -62.5s47 -72.5 47 -122.5c0 -62.667 -25.167 -111.5 -75.5 -146.5s-127.5 -52.5 -231.5 -52.5c-74.667 0 -144.334 9.66699 -209.001 29
v152c27.333 -9.33301 58 -16.333 92 -21s65.667 -7 95 -7c39.333 0 68.166 4.66699 86.499 14s27.5 25 27.5 47c0 22.667 -9.66699 39.167 -29 49.5s-48 15.5 -86 15.5h-52v161c-74 2 -146.167 8.66699 -216.5 20s-134.833 26.666 -193.5 45.999v348
c62 -20.667 133.667 -37.167 215 -49.5s157 -18.5 227 -18.5c78 0 133.167 9.16699 165.5 27.5s48.5 44.166 48.5 77.499c0 18.667 -4.33301 34.334 -13 47.001s-24.667 24.5 -48 35.5s-57.333 22.167 -102 33.5l-132 34c-134.667 32.667 -235.834 85.167 -303.501 157.5
s-101.5 166.833 -101.5 283.5c0 152.667 56.667 270.5 170 353.5s281.666 124.5 504.999 124.5c139.333 0 263.333 -14.333 372 -43v-348c-45.333 14 -98.833 25 -160.5 33s-122.5 12 -182.5 12c-100.667 0 -171.334 -9.83301 -212.001 -29.5s-61 -46.167 -61 -79.5
c0 -16.667 3.66699 -30.667 11 -42s20.5 -21.833 39.5 -31.5s46.833 -19.5 83.5 -29.5l133 -34c148.667 -36 258 -90 328 -162s105 -167 105 -285c0 -84 -19 -158.833 -57 -224.5z" />
    <glyph glyph-name="scedilla" unicode="&#x15f;" horiz-adv-x="1031" 
d="M899 116c-64 -62.667 -153.998 -104 -269.998 -124v-69c55.333 -11.333 97.166 -33 125.499 -65s42.5 -72.667 42.5 -122c0 -62 -24 -110.167 -72 -144.5s-119.667 -51.5 -215 -51.5c-66.667 0 -129.667 9.66699 -189 29v152c24.667 -8.66699 52.5 -15.5 83.5 -20.5
s58.833 -7.5 83.5 -7.5c32 0 55.667 4.66699 71 14s23 25.333 23 48c0 42.667 -31.667 64 -95 64h-52v159c-134 2 -253 19 -357 51v305c54 -16 113.667 -28.667 179 -38s130.666 -14 195.999 -14c55.333 0 94 4.83301 116 14.5s33 23.834 33 42.501
c0 12 -3.83301 21.167 -11.5 27.5s-21.5 11.166 -41.5 14.499l-198 34c-104.667 17.333 -182 53 -232 107s-75 128 -75 222c0 77.333 21 143.833 63 199.5s105.667 98.667 191 129s191.333 45.5 318 45.5c56.667 0 113 -3.33301 169 -10s105.333 -15.667 148 -27v-305
c-42 12 -89.833 21.333 -143.5 28s-107.167 10 -160.5 10c-74 0 -124.5 -5.66699 -151.5 -17s-40.5 -26 -40.5 -44c0 -10.667 4 -18.834 12 -24.501s22 -10.167 42 -13.5l199 -34c101.333 -17.333 177.5 -51.166 228.5 -101.499s76.5 -125.833 76.5 -226.5
c0 -95.333 -32 -174.333 -96 -237z" />
    <glyph glyph-name="Scaron" unicode="&#x160;" horiz-adv-x="1215" 
d="M296.5 -2.5c-77 11.667 -147.164 27.833 -210.497 48.5v348c62 -20.667 133.667 -37.167 215 -49.5s157 -18.5 227 -18.5c78 0 133.167 9.16699 165.5 27.5s48.5 44.166 48.5 77.499c0 18.667 -4.33301 34.334 -13 47.001s-24.667 24.5 -48 35.5
s-57.333 22.167 -102 33.5l-132 34c-134.667 32.667 -235.834 85.167 -303.501 157.5s-101.5 166.833 -101.5 283.5c0 152.667 56.667 270.5 170 353.5s281.666 124.5 504.999 124.5c139.333 0 263.333 -14.333 372 -43v-348c-45.333 14 -98.833 25 -160.5 33
s-122.5 12 -182.5 12c-100.667 0 -171.334 -9.83301 -212.001 -29.5s-61 -46.167 -61 -79.5c0 -16.667 3.66699 -30.667 11 -42s20.5 -21.833 39.5 -31.5s46.833 -19.5 83.5 -29.5l133 -34c148.667 -36 258 -90 328 -162s105 -167 105 -285
c0 -98 -25.667 -183.167 -77 -255.5s-125.333 -128 -222 -167s-211 -58.5 -343 -58.5c-79.333 0 -157.5 5.83301 -234.5 17.5zM749.003 1902h311l-263 -316h-354l-263 316h311l129 -166z" />
    <glyph glyph-name="scaron" unicode="&#x161;" horiz-adv-x="1031" 
d="M78 29v304.999c54 -16 113.667 -28.667 179 -38s130.666 -14 195.999 -14c55.333 0 94 4.83301 116 14.5s33 23.834 33 42.501c0 12 -3.83301 21.167 -11.5 27.5s-21.5 11.166 -41.5 14.499l-198 34c-104.667 17.333 -182 53 -232 107s-75 128 -75 222
c0 77.333 21 143.833 63 199.5s105.667 98.667 191 129s191.333 45.5 318 45.5c56.667 0 113 -3.33301 169 -10s105.333 -15.667 148 -27v-305c-42 12 -89.833 21.333 -143.5 28s-107.167 10 -160.5 10c-74 0 -124.5 -5.66699 -151.5 -17s-40.5 -26 -40.5 -44
c0 -10.667 4 -18.834 12 -24.501s22 -10.167 42 -13.5l199 -34c101.333 -17.333 177.5 -51.166 228.5 -101.499s76.5 -125.833 76.5 -226.5c0 -77.333 -21.167 -144.166 -63.5 -200.499s-103.666 -99.5 -183.999 -129.5s-175.833 -45 -286.5 -45c-144 0 -271.667 17 -383 51
zM633 1616h295l-239 -396h-340l-239 396h295l114 -204z" />
    <glyph glyph-name="uni0162" unicode="&#x162;" horiz-adv-x="1360" 
d="M750 0l0.00195312 -76c62.667 -10 109.667 -30.833 141 -62.5s47 -72.5 47 -122.5c0 -62.667 -25.167 -111.5 -75.5 -146.5s-127.5 -52.5 -231.5 -52.5c-74.667 0 -144.334 9.66699 -209.001 29v152c27.333 -9.33301 58 -16.333 92 -21s65.667 -7 95 -7
c39.333 0 68.166 4.66699 86.499 14s27.5 25 27.5 47c0 22.667 -9.66699 39.167 -29 49.5s-48 15.5 -86 15.5h-52v181h-94v1122h-449v358h1334v-358h-449v-1122h-148z" />
    <glyph glyph-name="uni0163" unicode="&#x163;" horiz-adv-x="907" 
d="M607 769l0.00292969 -278c0 -42.667 4.66699 -75.834 14 -99.501s24.666 -40.5 45.999 -50.5s51 -15 89 -15c23.333 0 57.666 3.33301 102.999 10v-331c-32 -7.33301 -68.5 -13.5 -109.5 -18.5s-79.833 -7.5 -116.5 -7.5h-3v-56c55.333 -11.333 97.166 -33 125.499 -65
s42.5 -72.667 42.5 -122c0 -62 -24 -110.167 -72 -144.5s-119.667 -51.5 -215 -51.5c-66.667 0 -129.667 9.66699 -189 29v152c24.667 -8.66699 52.5 -15.5 83.5 -20.5s58.833 -7.5 83.5 -7.5c32 0 55.667 4.66699 71 14s23 25.333 23 48c0 42.667 -31.667 64 -95 64h-52
v187c-170 54.667 -255 194.334 -255 419.001v344h-160v331h160l79 380h347v-380h252v-331h-252z" />
    <glyph glyph-name="Tcaron" unicode="&#x164;" horiz-adv-x="1360" 
d="M462 0v1122h-449v358h1334v-358h-449v-1122h-436zM809 1902h311l-263 -316h-354l-263 316h311l129 -166z" />
    <glyph glyph-name="tcaron" unicode="&#x165;" horiz-adv-x="907" 
d="M607 769l0.00195312 -277.999c0 -42.667 4.66699 -75.834 14 -99.501s24.666 -40.5 45.999 -50.5s51 -15 89 -15c23.333 0 57.666 3.33301 102.999 10v-331c-32 -7.33301 -68.5 -13.5 -109.5 -18.5s-79.833 -7.5 -116.5 -7.5c-148.667 0 -261.167 36.333 -337.5 109
s-114.5 185 -114.5 337v344h-160v331h160l79 380h347v-380h252v-331h-252zM702.502 1393.5c5 65.667 7.5 139.832 7.5 222.499h277c0 -83.333 -7.5 -162.833 -22.5 -238.5s-35.833 -141.5 -62.5 -197.5h-226c12.667 76.667 21.5 147.834 26.5 213.501z" />
    <glyph glyph-name="Tbar" unicode="&#x166;" horiz-adv-x="1360" 
d="M1347 1122h-449v-287h284v-270h-284v-565h-436v565h-285v270h285v287h-449v358h1334v-358z" />
    <glyph glyph-name="tbar" unicode="&#x167;" horiz-adv-x="907" 
d="M607 769l0.000976562 -87h200v-250h-196c6 -39.333 20 -66.833 42 -82.5s56.333 -23.5 103 -23.5c23.333 0 57.666 3.33301 102.999 10v-331c-32 -7.33301 -68.5 -13.5 -109.5 -18.5s-79.833 -7.5 -116.5 -7.5c-148.667 0 -261.167 36.333 -337.5 109
s-114.5 185 -114.5 337v7h-105v250h105v87h-160v331h160l79 380h347v-380h252v-331h-252z" />
    <glyph glyph-name="Utilde" unicode="&#x168;" horiz-adv-x="1548" 
d="M266.5 145.5c-109 110.333 -163.5 278.166 -163.5 503.499v831h435v-872c0 -96 20 -165.833 60 -209.5s100 -65.5 180 -65.5s140 21.833 180 65.5s60 113.5 60 209.5v872h427v-831c0 -225.333 -54 -393.166 -162 -503.499s-276.333 -165.5 -505 -165.5
c-232 0 -402.5 55.167 -511.5 165.5zM864.5 1596.5c-30.333 7 -65.165 16.834 -104.498 29.501c-38.667 12 -70.5 21 -95.5 27s-51.167 9 -78.5 9c-43.333 0 -81.5 -5.5 -114.5 -16.5s-67.5 -28.833 -103.5 -53.5v233c30.667 26.667 63.667 46.167 99 58.5
s77.666 18.5 126.999 18.5c34 0 65.833 -3.5 95.5 -10.5s65.167 -17.167 106.5 -30.5c37.333 -12.667 68.666 -22 93.999 -28s52 -9 80 -9c43.333 0 81.5 5.5 114.5 16.5s67.5 28.833 103.5 53.5v-233c-30 -26.667 -62.667 -45.834 -98 -57.501s-78 -17.5 -128 -17.5
c-34.667 0 -67.167 3.5 -97.5 10.5z" />
    <glyph glyph-name="utilde" unicode="&#x169;" horiz-adv-x="1272" 
d="M197.5 92.5c-71 74.333 -106.5 189.833 -106.5 346.5v661h426v-630c0 -45.333 8.5 -77.5 25.5 -96.5s41.833 -28.5 74.5 -28.5c24 0 48.167 4.83301 72.5 14.5s44.166 22.167 59.499 37.5v703h426v-1100h-350l-28 104h-16c-40 -40 -84.667 -70.5 -134 -91.5
s-102.666 -31.5 -159.999 -31.5c-122 0 -218.5 37.167 -289.5 111.5zM713.5 1258.5c-27.667 9 -60.5 22.167 -98.5 39.5c-36.667 16 -66.167 27.667 -88.5 35s-45.5 11 -69.5 11c-40 0 -76.333 -7.16699 -109 -21.5s-66.334 -37.5 -101.001 -69.5v256
c30 29.333 62.333 50.666 97 63.999s75 20 121 20c30.667 0 59.834 -4.5 87.501 -13.5s60.5 -22.167 98.5 -39.5c36.667 -16 66.167 -27.667 88.5 -35s45.5 -11 69.5 -11c40 0 76.333 7.16699 109 21.5s66.334 37.5 101.001 69.5v-256
c-30 -29.333 -62.333 -50.666 -97 -63.999s-75 -20 -121 -20c-30.667 0 -59.834 4.5 -87.501 13.5z" />
    <glyph glyph-name="Umacron" unicode="&#x16a;" horiz-adv-x="1548" 
d="M266.5 145.5c-109 110.333 -163.5 278.166 -163.5 503.499v831h435v-872c0 -96 20 -165.833 60 -209.5s100 -65.5 180 -65.5s140 21.833 180 65.5s60 113.5 60 209.5v872h427v-831c0 -225.333 -54 -393.166 -162 -503.499s-276.333 -165.5 -505 -165.5
c-232 0 -402.5 55.167 -511.5 165.5zM368 1621v248h820v-248h-820z" />
    <glyph glyph-name="umacron" unicode="&#x16b;" horiz-adv-x="1272" 
d="M197.5 92.5c-71 74.333 -106.5 189.833 -106.5 346.5v661h426v-630c0 -45.333 8.5 -77.5 25.5 -96.5s41.833 -28.5 74.5 -28.5c24 0 48.167 4.83301 72.5 14.5s44.166 22.167 59.499 37.5v703h426v-1100h-350l-28 104h-16c-40 -40 -84.667 -70.5 -134 -91.5
s-102.666 -31.5 -159.999 -31.5c-122 0 -218.5 37.167 -289.5 111.5zM247 1295v248h772v-248h-772z" />
    <glyph glyph-name="Ubreve" unicode="&#x16c;" horiz-adv-x="1548" 
d="M266.5 145.5c-109 110.333 -163.5 278.166 -163.5 503.499v831h435v-872c0 -96 20 -165.833 60 -209.5s100 -65.5 180 -65.5s140 21.833 180 65.5s60 113.5 60 209.5v872h427v-831c0 -225.333 -54 -393.166 -162 -503.499s-276.333 -165.5 -505 -165.5
c-232 0 -402.5 55.167 -511.5 165.5zM479.5 1670c-71.667 56 -113.832 133.333 -126.499 232h253c8 -39.333 26 -69 54 -89s67.333 -30 118 -30s90 10 118 30s46 49.667 54 89h253c-12.667 -98.667 -54.834 -176 -126.501 -232s-171.167 -84 -298.5 -84
s-226.833 28 -298.5 84z" />
    <glyph glyph-name="ubreve" unicode="&#x16d;" horiz-adv-x="1272" 
d="M197.5 92.5c-71 74.333 -106.5 189.833 -106.5 346.5v661h426v-630c0 -45.333 8.5 -77.5 25.5 -96.5s41.833 -28.5 74.5 -28.5c24 0 48.167 4.83301 72.5 14.5s44.166 22.167 59.499 37.5v703h426v-1100h-350l-28 104h-16c-40 -40 -84.667 -70.5 -134 -91.5
s-102.666 -31.5 -159.999 -31.5c-122 0 -218.5 37.167 -289.5 111.5zM341.5 1321.5c-70.333 62.333 -108.835 153.833 -115.502 274.5h251c4.66699 -54.667 19.834 -95.167 45.501 -121.5s62.5 -39.5 110.5 -39.5s84.833 13.167 110.5 39.5s40.834 66.833 45.501 121.5h251
c-6.66699 -120.667 -45.167 -212.167 -115.5 -274.5s-167.5 -93.5 -291.5 -93.5s-221.167 31.167 -291.5 93.5z" />
    <glyph glyph-name="Uring" unicode="&#x16e;" horiz-adv-x="1548" 
d="M266.5 145.5c-109 110.333 -163.5 278.166 -163.5 503.499v831h435v-872c0 -96 20 -165.833 60 -209.5s100 -65.5 180 -65.5s140 21.833 180 65.5s60 113.5 60 209.5v872h427v-831c0 -225.333 -54 -393.166 -162 -503.499s-276.333 -165.5 -505 -165.5
c-232 0 -402.5 55.167 -511.5 165.5zM661 1598.5c-34.667 19 -61.834 45.167 -81.501 78.5s-29.5 71 -29.5 113s9.83301 79.667 29.5 113s46.834 59.5 81.501 78.5s73.667 28.5 117 28.5s82.333 -9.5 117 -28.5s61.834 -45.167 81.501 -78.5s29.5 -71 29.5 -113
s-9.83301 -79.667 -29.5 -113s-46.834 -59.5 -81.501 -78.5s-73.667 -28.5 -117 -28.5s-82.333 9.5 -117 28.5zM834.5 1730.5c14.333 15 21.5 34.833 21.5 59.5s-7.16699 44.5 -21.5 59.5s-33.166 22.5 -56.499 22.5s-42.166 -7.5 -56.499 -22.5s-21.5 -34.833 -21.5 -59.5
s7.16699 -44.5 21.5 -59.5s33.166 -22.5 56.499 -22.5s42.166 7.5 56.499 22.5z" />
    <glyph glyph-name="uring" unicode="&#x16f;" horiz-adv-x="1272" 
d="M197.5 92.5c-71 74.333 -106.5 189.833 -106.5 346.5v661h426v-630c0 -45.333 8.5 -77.5 25.5 -96.5s41.833 -28.5 74.5 -28.5c24 0 48.167 4.83301 72.5 14.5s44.166 22.167 59.499 37.5v703h426v-1100h-350l-28 104h-16c-40 -40 -84.667 -70.5 -134 -91.5
s-102.666 -31.5 -159.999 -31.5c-122 0 -218.5 37.167 -289.5 111.5zM516 1242.5c-34.667 19 -61.834 45.167 -81.501 78.5s-29.5 71 -29.5 113s9.83301 79.667 29.5 113s46.834 59.5 81.501 78.5s73.667 28.5 117 28.5s82.333 -9.5 117 -28.5s61.834 -45.167 81.501 -78.5
s29.5 -71 29.5 -113s-9.83301 -79.667 -29.5 -113s-46.834 -59.5 -81.501 -78.5s-73.667 -28.5 -117 -28.5s-82.333 9.5 -117 28.5zM689.5 1374.5c14.333 15 21.5 34.833 21.5 59.5s-7.16699 44.5 -21.5 59.5s-33.166 22.5 -56.499 22.5s-42.166 -7.5 -56.499 -22.5
s-21.5 -34.833 -21.5 -59.5s7.16699 -44.5 21.5 -59.5s33.166 -22.5 56.499 -22.5s42.166 7.5 56.499 22.5z" />
    <glyph glyph-name="Uhungarumlaut" unicode="&#x170;" horiz-adv-x="1548" 
d="M266.5 145.5c-109 110.333 -163.5 278.166 -163.5 503.499v831h435v-872c0 -96 20 -165.833 60 -209.5s100 -65.5 180 -65.5s140 21.833 180 65.5s60 113.5 60 209.5v872h427v-831c0 -225.333 -54 -393.166 -162 -503.499s-276.333 -165.5 -505 -165.5
c-232 0 -402.5 55.167 -511.5 165.5zM397 1586l142 316h330l-162 -316h-310zM849 1586l142 316h331l-163 -316h-310z" />
    <glyph glyph-name="uhungarumlaut" unicode="&#x171;" horiz-adv-x="1272" 
d="M197.5 92.5c-71 74.333 -106.5 189.833 -106.5 346.5v661h426v-630c0 -45.333 8.5 -77.5 25.5 -96.5s41.833 -28.5 74.5 -28.5c24 0 48.167 4.83301 72.5 14.5s44.166 22.167 59.499 37.5v703h426v-1100h-350l-28 104h-16c-40 -40 -84.667 -70.5 -134 -91.5
s-102.666 -31.5 -159.999 -31.5c-122 0 -218.5 37.167 -289.5 111.5zM251 1220l152 396h331l-172 -396h-311zM704 1220l152 396h331l-172 -396h-311z" />
    <glyph glyph-name="Uogonek" unicode="&#x172;" horiz-adv-x="1548" 
d="M1445 1480l-0.00195312 -831.002c0 -170 -30.167 -307 -90.5 -411s-153.166 -176.333 -278.499 -217c-76.667 -25.333 -136.167 -50.5 -178.5 -75.5s-71.333 -49.667 -87 -74s-23.5 -50.166 -23.5 -77.499c0 -62.667 46 -94 138 -94c39.333 0 83 8.33301 131 25v-155
c-61.333 -20 -125.666 -30 -192.999 -30c-104 0 -182 19.833 -234 59.5s-78 94.5 -78 164.5c0 43.333 10.5 83 31.5 119s54.833 69.333 101.5 100c-199.333 14.667 -346 76.834 -440 186.501s-141 269.5 -141 479.5v831h435v-872c0 -96 20 -165.833 60 -209.5
s100 -65.5 180 -65.5s140 21.833 180 65.5s60 113.5 60 209.5v872h427z" />
    <glyph glyph-name="uogonek" unicode="&#x173;" horiz-adv-x="1272" 
d="M1185 -275l0.00292969 -155c-28.667 -10 -56.834 -17.5 -84.501 -22.5s-59.834 -7.5 -96.501 -7.5c-95.333 0 -167.833 19.833 -217.5 59.5s-74.5 94.5 -74.5 164.5c0 48 11.667 91.5 35 130.5s61.666 74.167 114.999 105.5h-37l-28 104h-16
c-40 -40 -84.667 -70.5 -134 -91.5s-102.666 -31.5 -159.999 -31.5c-122 0 -218.5 37.167 -289.5 111.5s-106.5 189.833 -106.5 346.5v661h426v-630c0 -45.333 8.5 -77.5 25.5 -96.5s41.833 -28.5 74.5 -28.5c24 0 48.167 4.83301 72.5 14.5s44.166 22.167 59.499 37.5v703
h426v-1100c-85.333 -31.333 -144.333 -63.5 -177 -96.5s-49 -70.167 -49 -111.5c0 -28.667 10 -51.167 30 -67.5s49.333 -24.5 88 -24.5c36 0 75.333 8.33301 118 25z" />
    <glyph glyph-name="Wcircumflex" unicode="&#x174;" horiz-adv-x="2389" 
d="M1965 1480h410l-373 -1480h-555l-245 990l-260 -990h-555l-373 1480h438l247 -1065l272 1065h473l261 -1087zM1635 1586h-311l-129 166l-129 -166h-311l263 316h354z" />
    <glyph glyph-name="wcircumflex" unicode="&#x175;" horiz-adv-x="1891" 
d="M1476 1100h383l-277 -1100h-463l-170 697l-175 -697h-463l-279 1100h400l137 -641l155 641h463l146 -622zM1355 1220h-295l-114 204l-114 -204h-295l239 396h340z" />
    <glyph glyph-name="Ycircumflex" unicode="&#x176;" horiz-adv-x="1360" 
d="M1413 1480l-513 -871v-609h-435v605l-531 875h457l301 -509l298 509h423zM1120 1586h-311l-129 166l-129 -166h-311l263 316h354z" />
    <glyph glyph-name="ycircumflex" unicode="&#x177;" horiz-adv-x="1239" 
d="M834 1100h417l-515 -1540h-415l149 440h-116l-366 1100h443l202 -704zM1028 1220h-295l-114 204l-114 -204h-295l239 396h340z" />
    <glyph glyph-name="Ydieresis" unicode="&#x178;" horiz-adv-x="1360" 
d="M1413 1480l-513 -871v-609h-435v605l-531 875h457l301 -509l298 509h423zM243.5 1616.5c-37 31 -55.5 75.5 -55.5 133.5s18.5 102.5 55.5 133.5s91.5 46.5 163.5 46.5s126.333 -15.5 163 -46.5s55 -75.5 55 -133.5s-18.333 -102.5 -55 -133.5s-91 -46.5 -163 -46.5
s-126.5 15.5 -163.5 46.5zM790 1616.5c-36.667 31 -55 75.5 -55 133.5s18.333 102.5 55 133.5s91 46.5 163 46.5s126.5 -15.5 163.5 -46.5s55.5 -75.5 55.5 -133.5s-18.5 -102.5 -55.5 -133.5s-91.5 -46.5 -163.5 -46.5s-126.333 15.5 -163 46.5z" />
    <glyph glyph-name="Zacute" unicode="&#x179;" horiz-adv-x="1298" 
d="M619 358h621v-358h-1182v238l610 884h-600v358h1162v-238zM457 1586l183 316h445l-246 -316h-382z" />
    <glyph glyph-name="zacute" unicode="&#x17a;" horiz-adv-x="1076" 
d="M593 331h436v-331h-962v271l426 498h-416v331h942v-271zM354 1220l233 396h449l-294 -396h-388z" />
    <glyph glyph-name="Zdotaccent" unicode="&#x17b;" horiz-adv-x="1298" 
d="M619 358h621v-358h-1182v238l610 884h-600v358h1162v-238zM461 1616.5c-42.667 31 -64 75.5 -64 133.5s21.333 102.5 64 133.5s105.667 46.5 189 46.5s146.333 -15.5 189 -46.5s64 -75.5 64 -133.5s-21.333 -102.5 -64 -133.5s-105.667 -46.5 -189 -46.5
s-146.333 15.5 -189 46.5z" />
    <glyph glyph-name="zdotaccent" unicode="&#x17c;" horiz-adv-x="1076" 
d="M593 331h436v-331h-962v271l426 498h-416v331h942v-271zM293 1418c0 140 85 210 255 210s255 -70 255 -210s-85 -210 -255 -210s-255 70 -255 210z" />
    <glyph glyph-name="Zcaron" unicode="&#x17d;" horiz-adv-x="1298" 
d="M619 358h621v-358h-1182v238l610 884h-600v358h1162v-238zM779 1902h311l-263 -316h-354l-263 316h311l129 -166z" />
    <glyph glyph-name="zcaron" unicode="&#x17e;" horiz-adv-x="1076" 
d="M593 331h436v-331h-962v271l426 498h-416v331h942v-271zM662 1616h295l-239 -396h-340l-239 396h295l114 -204z" />
    <glyph glyph-name="uni018F" unicode="&#x18f;" horiz-adv-x="1615" 
d="M1316 1308c153.333 -128 230.002 -324.002 230.002 -588.002c0 -155.333 -30 -288.666 -90 -399.999s-145.167 -195.833 -255.5 -253.5s-239.5 -86.5 -387.5 -86.5c-152 0 -284.667 28.333 -398 85s-201 141.167 -263 253.5s-93 249.5 -93 411.5v135h1045
c-16.667 71.333 -46.667 128.333 -90 171s-100.333 73.334 -171 92.001s-157.667 28 -261 28c-67.333 0 -137.833 -3.83301 -211.5 -11.5s-141.834 -18.5 -204.501 -32.5v346c68.667 14 142.667 24.5 222 31.5s156.333 10.5 231 10.5c311.333 0 543.666 -64 696.999 -192z
M1016 366.498c46.667 37 77.334 100.5 92.001 190.5h-595c14.667 -88 46.167 -151 94.5 -189s118.166 -57 209.499 -57c86 0 152.333 18.5 199 55.5z" />
    <glyph glyph-name="florin" unicode="&#x192;" horiz-adv-x="861" 
d="M660.5 1263c-32.333 -26.667 -48.5 -67.334 -48.5 -122.001v-41h253v-331h-253v-714c0 -106 -21.5 -197.667 -64.5 -275s-106.167 -136.666 -189.5 -177.999s-184.333 -62 -303 -62c-57.333 0 -113.333 4 -168 12v327c36 -4 68.333 -6 97 -6
c72 0 124.167 13.333 156.5 40s48.5 67.334 48.5 122.001v734h-160v331h160v21c0 106 21.5 197.667 64.5 275s106.167 136.666 189.5 177.999s184 62 302 62c58 0 114.333 -4 169 -12v-327c-36 4 -68.333 6 -97 6c-72 0 -124.167 -13.333 -156.5 -40z" />
    <glyph glyph-name="Ohorn" unicode="&#x1a0;" horiz-adv-x="1645" 
d="M1523.5 1067.5c35 -95 52.5039 -204.168 52.5039 -327.501c0 -164.667 -30.5 -303.667 -91.5 -417s-148 -198.833 -261 -256.5s-246.833 -86.5 -401.5 -86.5s-288.334 28.667 -401.001 86s-199.5 142.833 -260.5 256.5s-91.5 252.834 -91.5 417.501
s30.667 303.834 92 417.501s148.333 199.167 261 256.5s246 86 400 86c35.333 0 71.166 -1.66699 107.499 -5s57.166 -5.33301 62.499 -6c57.333 -6 102.666 -9 135.999 -9c62.667 0 108.667 11.667 138 35s44 63.666 44 120.999c0 43.333 -4.66699 90 -14 140h279
c12.667 -45.333 19 -98 19 -158c0 -87.333 -19.5 -156.833 -58.5 -208.5s-93.833 -86.167 -164.5 -103.5c66.667 -64 117.5 -143.5 152.5 -238.5zM1053 425.999c52 66 77.999 168.001 77.999 306.001c0 145.333 -26.167 251.833 -78.5 319.5s-129.166 101.5 -230.499 101.5
c-100.667 0 -177.167 -32.833 -229.5 -98.5s-78.5 -167.834 -78.5 -306.501c0 -146.667 25.833 -253.5 77.5 -320.5s128.5 -100.5 230.5 -100.5s179 33 231 99z" />
    <glyph glyph-name="ohorn" unicode="&#x1a1;" horiz-adv-x="1267" 
d="M1222.5 1049.5c-32.333 -49 -78.165 -84.167 -137.498 -105.5c86 -95.333 129 -227.333 129 -396c0 -122.667 -23.333 -226.5 -70 -311.5s-113.334 -149.333 -200.001 -193s-190.334 -65.5 -311.001 -65.5c-120 0 -223.5 21.667 -310.5 65s-153.667 107.5 -200 192.5
s-69.5 188.5 -69.5 310.5c0 186.667 50.667 328.667 152 426s247.333 146 438 146c30 0 71.333 -2.33301 124 -7c34.667 -2.66699 57 -4 67 -4c58 0 101.167 11.5 129.5 34.5s42.5 61.833 42.5 116.5c0 42 -4.66699 88 -14 138h261c12 -45.333 18 -97.333 18 -156
c0 -78 -16.167 -141.5 -48.5 -190.5zM719.501 317.5c22.333 15 39.167 40.834 50.5 77.501s17 87 17 151c0 65.333 -5.83301 116.666 -17.5 153.999s-28.5 63.5 -50.5 78.5s-50.667 22.5 -86 22.5c-34.667 0 -63.167 -7.5 -85.5 -22.5s-39.166 -41 -50.499 -78
s-17 -87.833 -17 -152.5s5.66699 -115.5 17 -152.5s28 -63 50 -78s50.667 -22.5 86 -22.5s64.166 7.5 86.499 22.5z" />
    <glyph glyph-name="Uhorn" unicode="&#x1af;" horiz-adv-x="1553" 
d="M266.5 145.5c-109 110.333 -163.501 278.167 -163.501 503.5v831h435v-872c0 -96 20 -165.833 60 -209.5s100 -65.5 180 -65.5s140 21.833 180 65.5s60 113.5 60 209.5v872h135c62.667 0 108.667 11.667 138 35s44 63.666 44 120.999c0 43.333 -4.66699 90 -14 140h279
c12.667 -45.333 19 -98 19 -158c0 -76.667 -15.167 -139.667 -45.5 -189s-73.166 -85 -128.499 -107v-673c0 -225.333 -54 -393.166 -162 -503.499s-276.333 -165.5 -505 -165.5c-232 0 -402.5 55.167 -511.5 165.5z" />
    <glyph glyph-name="uhorn" unicode="&#x1b0;" horiz-adv-x="1312" 
d="M1303 1048.5c-30 -48.333 -72.667 -83.833 -128 -106.5v-942h-350l-28 104h-16c-40 -40 -84.667 -70.5 -134 -91.5s-102.666 -31.5 -159.999 -31.5c-122 0 -218.5 37.167 -289.5 111.5s-106.5 189.833 -106.5 346.5v661h426v-630c0 -45.333 8.5 -77.5 25.5 -96.5
s41.833 -28.5 74.5 -28.5c24 0 48.167 4.83301 72.5 14.5s44.166 22.167 59.499 37.5v703h162c58 0 101.167 11.5 129.5 34.5s42.5 61.833 42.5 116.5c0 42 -4.66699 88 -14 138h260c12.667 -45.333 19 -97.333 19 -156c0 -74.667 -15 -136.167 -45 -184.5z" />
    <glyph glyph-name="uni01C4" unicode="&#x1c4;" horiz-adv-x="2816" 
d="M328.5 -10.5c-79.667 4.33301 -152.833 10.498 -219.5 18.498v1433c75.333 17.333 159.5 31 252.5 41s183.5 15 271.5 15c288.667 0 505 -61.667 649 -185s216 -314 216 -572c0 -177.333 -34.5 -321.666 -103.5 -432.999s-172.833 -193.166 -311.5 -245.499
s-315.667 -78.5 -531 -78.5c-69.333 0 -143.833 2.16699 -223.5 6.5zM886.501 371.998c55.667 26.667 97.333 69.8301 125 129.497s41.5 139.834 41.5 240.501c0 99.333 -14.5 178.833 -43.5 238.5s-71.667 102.834 -128 129.501s-127.5 40 -213.5 40
c-18 0 -39 -1.16699 -63 -3.5s-44.333 -5.16602 -61 -8.49902v-803c30.667 -2 73 -3 127 -3c88 0 159.833 13.333 215.5 40zM2137 357.994h621v-358h-1182v238l610 884h-600v358h1162v-238zM2297 1901.99h311l-263 -316h-354l-263 316h311l129 -166z" />
    <glyph glyph-name="uni01C5" unicode="&#x1c5;" horiz-adv-x="2643" 
d="M328.5 -10.5c-79.667 4.33301 -152.833 10.498 -219.5 18.498v1433c75.333 17.333 159.5 31 252.5 41s183.5 15 271.5 15c288.667 0 505 -61.667 649 -185s216 -314 216 -572c0 -177.333 -34.5 -321.666 -103.5 -432.999s-172.833 -193.166 -311.5 -245.499
s-315.667 -78.5 -531 -78.5c-69.333 0 -143.833 2.16699 -223.5 6.5zM886.501 371.998c55.667 26.667 97.333 69.8301 125 129.497s41.5 139.834 41.5 240.501c0 99.333 -14.5 178.833 -43.5 238.5s-71.667 102.834 -128 129.501s-127.5 40 -213.5 40
c-18 0 -39 -1.16699 -63 -3.5s-44.333 -5.16602 -61 -8.49902v-803c30.667 -2 73 -3 127 -3c88 0 159.833 13.333 215.5 40zM2160 330.994h436v-331h-962v271l426 498h-416v331h942v-271zM2244 1581.99h311l-263 -316h-354l-263 316h311l129 -166z" />
    <glyph glyph-name="uni01C6" unicode="&#x1c6;" horiz-adv-x="2374" 
d="M282.5 39c-69.667 39.333 -125.335 99.834 -167.002 181.501s-62.5 183.834 -62.5 306.501c0 125.333 23.833 232.166 71.5 320.499s118.334 155.666 212.001 201.999s208.834 69.5 345.501 69.5c24.667 0 55.667 -1.33301 93 -4v501h426v-1616h-357l-25 113h-18
c-31.333 -42 -71 -74.667 -119 -98s-103.333 -35 -166 -35c-86 0 -163.833 19.667 -233.5 59zM716.499 332.501c22.333 5.66699 41.834 13.833 58.501 24.5v436c-34.667 5.33301 -65.334 8 -92.001 8c-70 0 -121.333 -18.5 -154 -55.5s-49 -99.167 -49 -186.5
c0 -86.667 14.333 -147.5 43 -182.5s70.334 -52.5 125.001 -52.5c23.333 0 46.166 2.83301 68.499 8.5zM1891 331h436v-331h-962v271l426 498h-416v331h942v-271zM1960 1616h295l-239 -396h-340l-239 396h295l114 -204z" />
    <glyph glyph-name="uni01C7" unicode="&#x1c7;" horiz-adv-x="1853" 
d="M109 0v1480h435v-1122h648v-358h-1083zM1169 -172c53.333 70.667 90.334 141.333 111.001 212s31 158.667 31 264v1176h433v-1160c0 -130 -22.833 -248.5 -68.5 -355.5s-122.834 -213.167 -231.501 -318.5z" />
    <glyph glyph-name="uni01C8" unicode="&#x1c8;" horiz-adv-x="1821" 
d="M109 0v1480h435v-1122h648v-358h-1083zM1155 -296c53.333 70.667 90.333 141.332 111 211.999s31 158.667 31 264v920h427v-904c0 -129.333 -22.5 -247.166 -67.5 -353.499s-121.167 -212.5 -228.5 -318.5zM1250 1418c0 140 85 210 255 210s255 -70 255 -210
s-85 -210 -255 -210s-255 70 -255 210z" />
    <glyph glyph-name="uni01C9" unicode="&#x1c9;" horiz-adv-x="1241" 
d="M97 0v1616h426v-1616h-426zM575 -296c53.333 70.667 90.333 141.332 111 211.999s31 158.667 31 264v920h427v-904c0 -129.333 -22.5 -247.166 -67.5 -353.499s-121.167 -212.5 -228.5 -318.5zM670 1418c0 140 85 210 255 210s255 -70 255 -210s-85 -210 -255 -210
s-255 70 -255 210z" />
    <glyph glyph-name="uni01CA" unicode="&#x1ca;" horiz-adv-x="2246" 
d="M1076 1480h408v-1480h-434l-533 828v-828h-408v1480h434l533 -828v828zM1562 -172c53.333 70.667 90.334 141.333 111.001 212s31 158.667 31 264v1176h433v-1160c0 -130 -22.833 -248.5 -68.5 -355.5s-122.834 -213.167 -231.501 -318.5z" />
    <glyph glyph-name="uni01CB" unicode="&#x1cb;" horiz-adv-x="2214" 
d="M1076 1480h408v-1480h-434l-533 828v-828h-408v1480h434l533 -828v828zM1548 -296c53.333 70.667 90.333 141.332 111 211.999s31 158.667 31 264v920h427v-904c0 -129.333 -22.5 -247.166 -67.5 -353.499s-121.167 -212.5 -228.5 -318.5zM1643 1418
c0 140 85 210 255 210s255 -70 255 -210s-85 -210 -255 -210s-255 70 -255 210z" />
    <glyph glyph-name="uni01CC" unicode="&#x1cc;" horiz-adv-x="1902" 
d="M97 1100l350 -0.000976562l28 -104h18c37.333 39.333 82.333 69.5 135 90.5s110.334 31.5 173.001 31.5c119.333 0 214 -37.333 284 -112s105 -190.667 105 -348v-658h-426v630c0 45.333 -8.83301 77.333 -26.5 96s-44.167 28 -79.5 28
c-26.667 0 -51.834 -4.66699 -75.501 -14s-43.5 -21.666 -59.5 -36.999v-703h-426v1100zM1236 -296.001c53.333 70.667 90.333 141.332 111 211.999s31 158.667 31 264v920h427v-904c0 -129.333 -22.5 -247.166 -67.5 -353.499s-121.167 -212.5 -228.5 -318.5zM1331 1418
c0 140 85 210 255 210s255 -70 255 -210s-85 -210 -255 -210s-255 70 -255 210z" />
    <glyph glyph-name="Gcaron" unicode="&#x1e6;" horiz-adv-x="1479" 
d="M1369 720v-704.997c-144.667 -23.333 -276.667 -35 -396 -35c-303.333 0 -529.833 62.667 -679.5 188s-224.5 314.666 -224.5 567.999c0 248 77.333 437.333 232 568s383 196 685 196c120 0 231.667 -11.333 335 -34v-353c-102 20.667 -200 31 -294 31
c-122.667 -0.666992 -220.667 -15.334 -294 -44.001s-126.833 -73 -160.5 -133s-50.5 -139.333 -50.5 -238c0 -134.667 34 -234.334 102 -299.001s172.333 -97 313 -97h29v387h403zM974 1902h311l-263 -316h-354l-263 316h311l129 -166z" />
    <glyph glyph-name="gcaron" unicode="&#x1e7;" horiz-adv-x="1298" 
d="M134 -418v327c62.667 -15.333 125.167 -27 187.5 -35s120.166 -12 173.499 -12c99.333 0 170.833 16.333 214.5 49s65.5 85.334 65.5 158.001v50h-19c-31.333 -40 -69.833 -70.167 -115.5 -90.5s-97.834 -30.5 -156.501 -30.5c-77.333 0 -148.666 20 -213.999 60
s-117.833 100 -157.5 180s-59.5 176.667 -59.5 290c0 188.667 55.5 334 166.5 436s278.167 153.333 501.5 154c81.333 0 165.166 -6 251.499 -18s162.5 -29 228.5 -51v-899c0 -142 -24.167 -257.833 -72.5 -347.5s-121.666 -155.834 -219.999 -198.501
s-224.166 -64 -377.499 -64c-144.667 0 -277 14 -397 42zM775 364v428c-31.333 6 -62 9 -92 9c-67.333 0 -118 -18.5 -152 -55.5s-51 -97.833 -51 -182.5c0 -82.667 14.333 -140.5 43 -173.5s72.667 -49.5 132 -49.5c45.333 0 85.333 8 120 24zM790 1616h295l-239 -396h-340
l-239 396h295l114 -204z" />
    <glyph glyph-name="uni01EA" unicode="&#x1ea;" horiz-adv-x="1645" 
d="M1222.5 1413.5c113 -57.667 200.165 -143.336 261.498 -257.003s92 -252.5 92 -416.5c0 -139.333 -21.833 -259 -65.5 -359s-102.5 -179.833 -176.5 -239.5s-158.333 -102.5 -253 -128.5c-101.333 -29.333 -173.166 -62.333 -215.499 -99s-63.5 -76.667 -63.5 -120
c0 -62.667 46 -94 138 -94c39.333 0 83 8.33301 131 25v-155c-61.333 -20 -125.666 -30 -192.999 -30c-104 0 -182 19.833 -234 59.5s-78 94.5 -78 164.5c0 44.667 10.667 85.334 32 122.001s55.666 70 102.999 100c-131.333 14 -244.166 51.667 -338.499 113
s-166.833 145.833 -217.5 253.5s-76 236.834 -76 387.501c0 164.667 30.667 303.834 92 417.501s148.333 199.167 261 256.5s246 86 400 86s287.5 -28.833 400.5 -86.5zM1053 425.998c52 66 77.999 168.001 77.999 306.001c0 145.333 -26.167 251.833 -78.5 319.5
s-129.166 101.5 -230.499 101.5c-100.667 0 -177.167 -32.833 -229.5 -98.5s-78.5 -167.834 -78.5 -306.501c0 -146.667 25.833 -253.5 77.5 -320.5s128.5 -100.5 230.5 -100.5s179 33 231 99z" />
    <glyph glyph-name="uni01EB" unicode="&#x1eb;" horiz-adv-x="1267" 
d="M948 1052c86.667 -44 152.668 -108.501 198.001 -193.501s68 -188.5 68 -310.5c0 -136 -28.333 -248.667 -85 -338s-138.334 -153.666 -245.001 -192.999c-66 -24.667 -117.333 -49 -154 -73s-61.667 -47.5 -75 -70.5s-20 -48.167 -20 -75.5c0 -30 10 -53.833 30 -71.5
s49.333 -26.5 88 -26.5c36.667 0 75.667 8.33301 117 25v-155c-28.667 -10 -56.667 -17.5 -84 -22.5s-59.333 -7.5 -96 -7.5c-95.333 0 -167.833 19.833 -217.5 59.5s-74.5 94.5 -74.5 164.5c0 46 10 87 30 123s51.667 68.667 95 98c-148.667 18.667 -264.167 76 -346.5 172
s-123.5 225.667 -123.5 389c0 186 50.167 327.833 150.5 425.5s243.5 146.5 429.5 146.5c123.333 0 228.333 -22 315 -66zM719.501 317.499c22.333 15 39.167 40.834 50.5 77.501s17 87 17 151c0 65.333 -5.83301 116.666 -17.5 153.999s-28.5 63.5 -50.5 78.5
s-50.667 22.5 -86 22.5c-34.667 0 -63.167 -7.5 -85.5 -22.5s-39.166 -41 -50.499 -78s-17 -87.833 -17 -152.5s5.66699 -115.5 17 -152.5s28 -63 50 -78s50.667 -22.5 86 -22.5s64.166 7.5 86.499 22.5z" />
    <glyph glyph-name="uni01F1" unicode="&#x1f1;" horiz-adv-x="2816" 
d="M328.5 -10.5c-79.667 4.33301 -152.833 10.498 -219.5 18.498v1433c75.333 17.333 159.5 31 252.5 41s183.5 15 271.5 15c288.667 0 505 -61.667 649 -185s216 -314 216 -572c0 -177.333 -34.5 -321.666 -103.5 -432.999s-172.833 -193.166 -311.5 -245.499
s-315.667 -78.5 -531 -78.5c-69.333 0 -143.833 2.16699 -223.5 6.5zM886.501 371.998c55.667 26.667 97.333 69.8301 125 129.497s41.5 139.834 41.5 240.501c0 99.333 -14.5 178.833 -43.5 238.5s-71.667 102.834 -128 129.501s-127.5 40 -213.5 40
c-18 0 -39 -1.16699 -63 -3.5s-44.333 -5.16602 -61 -8.49902v-803c30.667 -2 73 -3 127 -3c88 0 159.833 13.333 215.5 40zM2137 357.994h621v-358h-1182v238l610 884h-600v358h1162v-238z" />
    <glyph glyph-name="uni01F2" unicode="&#x1f2;" horiz-adv-x="2643" 
d="M328.5 -10.5c-79.667 4.33301 -152.833 10.498 -219.5 18.498v1433c75.333 17.333 159.5 31 252.5 41s183.5 15 271.5 15c288.667 0 505 -61.667 649 -185s216 -314 216 -572c0 -177.333 -34.5 -321.666 -103.5 -432.999s-172.833 -193.166 -311.5 -245.499
s-315.667 -78.5 -531 -78.5c-69.333 0 -143.833 2.16699 -223.5 6.5zM886.501 371.998c55.667 26.667 97.333 69.8301 125 129.497s41.5 139.834 41.5 240.501c0 99.333 -14.5 178.833 -43.5 238.5s-71.667 102.834 -128 129.501s-127.5 40 -213.5 40
c-18 0 -39 -1.16699 -63 -3.5s-44.333 -5.16602 -61 -8.49902v-803c30.667 -2 73 -3 127 -3c88 0 159.833 13.333 215.5 40zM2160 330.994h436v-331h-962v271l426 498h-416v331h942v-271z" />
    <glyph glyph-name="uni01F3" unicode="&#x1f3;" horiz-adv-x="2374" 
d="M282.5 39c-69.667 39.333 -125.335 99.834 -167.002 181.501s-62.5 183.834 -62.5 306.501c0 125.333 23.833 232.166 71.5 320.499s118.334 155.666 212.001 201.999s208.834 69.5 345.501 69.5c24.667 0 55.667 -1.33301 93 -4v501h426v-1616h-357l-25 113h-18
c-31.333 -42 -71 -74.667 -119 -98s-103.333 -35 -166 -35c-86 0 -163.833 19.667 -233.5 59zM716.499 332.501c22.333 5.66699 41.834 13.833 58.501 24.5v436c-34.667 5.33301 -65.334 8 -92.001 8c-70 0 -121.333 -18.5 -154 -55.5s-49 -99.167 -49 -186.5
c0 -86.667 14.333 -147.5 43 -182.5s70.334 -52.5 125.001 -52.5c23.333 0 46.166 2.83301 68.499 8.5zM1891 331h436v-331h-962v271l426 498h-416v331h942v-271z" />
    <glyph glyph-name="uni01F4" unicode="&#x1f4;" horiz-adv-x="1479" 
d="M1369 720v-704.997c-144.667 -23.333 -276.667 -35 -396 -35c-303.333 0 -529.833 62.667 -679.5 188s-224.5 314.666 -224.5 567.999c0 248 77.333 437.333 232 568s383 196 685 196c120 0 231.667 -11.333 335 -34v-353c-102 20.667 -200 31 -294 31
c-122.667 -0.666992 -220.667 -15.334 -294 -44.001s-126.833 -73 -160.5 -133s-50.5 -139.333 -50.5 -238c0 -134.667 34 -234.334 102 -299.001s172.333 -97 313 -97h29v387h403zM652 1586l183 316h445l-246 -316h-382z" />
    <glyph glyph-name="uni01F5" unicode="&#x1f5;" horiz-adv-x="1298" 
d="M134 -418v327c62.667 -15.333 125.167 -27 187.5 -35s120.166 -12 173.499 -12c99.333 0 170.833 16.333 214.5 49s65.5 85.334 65.5 158.001v50h-19c-31.333 -40 -69.833 -70.167 -115.5 -90.5s-97.834 -30.5 -156.501 -30.5c-77.333 0 -148.666 20 -213.999 60
s-117.833 100 -157.5 180s-59.5 176.667 -59.5 290c0 188.667 55.5 334 166.5 436s278.167 153.333 501.5 154c81.333 0 165.166 -6 251.499 -18s162.5 -29 228.5 -51v-899c0 -142 -24.167 -257.833 -72.5 -347.5s-121.666 -155.834 -219.999 -198.501
s-224.166 -64 -377.499 -64c-144.667 0 -277 14 -397 42zM775 364v428c-31.333 6 -62 9 -92 9c-67.333 0 -118 -18.5 -152 -55.5s-51 -97.833 -51 -182.5c0 -82.667 14.333 -140.5 43 -173.5s72.667 -49.5 132 -49.5c45.333 0 85.333 8 120 24zM482 1220l233 396h449
l-294 -396h-388z" />
    <glyph glyph-name="Aringacute" unicode="&#x1fa;" horiz-adv-x="1531" 
d="M1102 0l-94 339h-490l-93 -339h-421l442 1480h639l442 -1480h-425zM612 679h302l-152 547zM968 1893c16 -30 24.001 -64.333 24.001 -103c0 -42 -9.83301 -79.667 -29.5 -113s-46.834 -59.5 -81.501 -78.5s-73.667 -28.5 -117 -28.5s-82.333 9.5 -117 28.5
s-61.834 45.167 -81.501 78.5s-29.5 71 -29.5 113s9.83301 79.667 29.5 113s46.834 59.5 81.501 78.5s73.667 28.5 117 28.5c9.33301 0 16.333 -0.333008 21 -1l97 127h296zM820.501 1730.5c14.333 15 21.5 34.833 21.5 59.5s-7.16699 44.5 -21.5 59.5
s-33.166 22.5 -56.499 22.5s-42.166 -7.5 -56.499 -22.5s-21.5 -34.833 -21.5 -59.5s7.16699 -44.5 21.5 -59.5s33.166 -22.5 56.499 -22.5s42.166 7.5 56.499 22.5z" />
    <glyph glyph-name="aringacute" unicode="&#x1fb;" horiz-adv-x="1177" 
d="M849 1069.5c81.333 -32.333 141.167 -85.332 179.5 -158.999s57.5 -173.834 57.5 -300.501v-610h-349l-29 101h-18c-57.333 -82 -148.666 -123 -273.999 -123c-77.333 0 -144 14 -200 42s-98.667 67 -128 117s-44 107.333 -44 172c0 110.667 39.667 196.167 119 256.5
s204.666 95.166 375.999 104.499l130 7c-4 30 -13.833 54 -29.5 72s-39.167 31 -70.5 39s-73.333 12 -126 12c-44.667 0 -94 -3.5 -148 -10.5s-104.333 -17.167 -151 -30.5v314c57.333 14.667 119.833 25.834 187.5 33.501s131.834 11.5 192.501 11.5
c135.333 0 243.666 -16.167 324.999 -48.5zM671.001 292.001l-0.000976562 159l-85 -4c-83.333 -4.66699 -125 -37 -125 -97c0 -26.667 8.83301 -47.167 26.5 -61.5s42.834 -21.5 75.501 -21.5c44 0 80 8.33301 108 25zM789 1537c16 -30 24.001 -64.333 24.001 -103
c0 -42 -9.83301 -79.667 -29.5 -113s-46.834 -59.5 -81.501 -78.5s-73.667 -28.5 -117 -28.5s-82.333 9.5 -117 28.5s-61.834 45.167 -81.501 78.5s-29.5 71 -29.5 113s9.83301 79.667 29.5 113s46.834 59.5 81.501 78.5s73.667 28.5 117 28.5
c9.33301 0 16.333 -0.333008 21 -1l97 127h296zM641.501 1374.5c14.333 15 21.5 34.833 21.5 59.5s-7.16699 44.5 -21.5 59.5s-33.166 22.5 -56.499 22.5s-42.166 -7.5 -56.499 -22.5s-21.5 -34.833 -21.5 -59.5s7.16699 -44.5 21.5 -59.5s33.166 -22.5 56.499 -22.5
s42.166 7.5 56.499 22.5z" />
    <glyph glyph-name="AEacute" unicode="&#x1fc;" horiz-adv-x="2113" 
d="M1404 343h637v-343h-1038l-27 338h-455l-93 -338h-424l442 1480h1585v-343h-701l20 -211h576v-342h-544zM616 680h333l-37 457h-170zM903 1586l183 316h445l-246 -316h-382z" />
    <glyph glyph-name="aeacute" unicode="&#x1fd;" horiz-adv-x="1764" 
d="M1722 431l-633.999 -0.000976562c4 -35.333 15 -62.666 33 -81.999s47 -33.333 87 -42s96.333 -13 169 -13c82 0 175.333 9.66699 280 29v-312c-115.333 -22 -229 -33 -341 -33c-116 0 -215 11.667 -297 35s-148.667 59.333 -200 108
c-93.333 -95.333 -214.333 -143 -363 -143c-90 0 -165.833 13.833 -227.5 41.5s-107.834 66.667 -138.501 117s-46 109.166 -46 176.499c0 110.667 40.667 197 122 259s206 93 374 93h134c-3.33301 33.333 -13.166 59.833 -29.499 79.5s-40.833 33.834 -73.5 42.501
s-76 13 -130 13c-43.333 0 -92 -3.66699 -146 -11s-104 -17.333 -150 -30v314c119.333 30 239.333 45 360 45c93.333 0 172.5 -9.66699 237.5 -29s118.167 -49 159.5 -89c42 38 90.833 67.167 146.5 87.5s117.167 30.5 184.5 30.5c102.667 0 190.667 -22.667 264 -68
s129.166 -111.5 167.499 -198.5s57.5 -191.833 57.5 -314.5v-106zM1117 814.999c-19.333 -28.667 -29.668 -78.667 -31.001 -150h243c-1.33301 71.333 -11.5 121.333 -30.5 150s-49.167 43 -90.5 43s-71.666 -14.333 -90.999 -43zM487.999 288.499
c18 -13.667 44.332 -20.501 78.999 -20.501c26.667 0 50.834 3.33301 72.501 10s43.5 18.334 65.5 35.001c-12.667 44 -20.667 86.333 -24 127h-95c-83.333 0 -125 -31 -125 -93c0 -25.333 9 -44.833 27 -58.5zM692.998 1220l233 396h449l-294 -396h-388z" />
    <glyph glyph-name="Oslashacute" unicode="&#x1fe;" horiz-adv-x="1645" 
d="M1529.5 1050c31 -90.667 46.499 -193.999 46.499 -309.999c0 -164 -30.667 -302.833 -92 -416.5s-148.5 -199.334 -261.5 -257.001s-246.5 -86.5 -400.5 -86.5s-287.333 28.667 -400 86l-103 -128l-169 134l100 125c-58.667 64 -103.5 141.5 -134.5 232.5
s-46.5 194.5 -46.5 310.5c0 164.667 30.667 303.834 92 417.501s148.333 199.167 261 256.5s246 86 400 86c154.667 0 288.334 -28.667 401.001 -86l102 128l170 -134l-100 -125c58.667 -64.667 103.5 -142.334 134.5 -233.001zM534.999 553.001l448 561.001
c-43.333 26 -97 39 -161 39c-100.667 0 -177.167 -32.833 -229.5 -98.5s-78.5 -167.834 -78.5 -306.501c0 -76 7 -141 21 -195zM1053 426.002c52 66 77.999 168 77.999 306c0 75.333 -7 140 -21 194l-449 -561c42.667 -25.333 96.334 -38 161.001 -38c102 0 179 33 231 99z
M627.998 1586l183 316h445l-246 -316h-382z" />
    <glyph glyph-name="oslashacute" unicode="&#x1ff;" horiz-adv-x="1267" 
d="M1214 548c0 -122.667 -23.3311 -226.5 -69.998 -311.5s-113.334 -149.333 -200.001 -193s-190.334 -65.5 -311.001 -65.5c-98.667 0 -185 14.333 -259 43l-72 -97l-164 122l63 85c-48.667 48 -85.5 106.833 -110.5 176.5s-37.5 149.167 -37.5 238.5
c0 186 50.167 327.833 150.5 425.5s243.5 146.5 429.5 146.5c95.333 0 180.333 -13.333 255 -40l73 98l164 -122l-62 -84c100.667 -97.333 151 -238 151 -422zM541.002 784c-24 -15.333 -42.333 -42 -55 -80s-19 -90 -19 -156c0 -32 1.33301 -58.667 4 -80l236 326
c-21.333 8.66699 -46 13 -74 13c-37.333 0 -68 -7.66699 -92 -23zM727.002 312c24 15.333 42.167 41.833 54.5 79.5s18.5 89.167 18.5 154.5c0 31.333 -1.66699 61.333 -5 90l-240 -332c20 -10 46 -15 78 -15c38.667 0 70 7.66699 94 23zM437.002 1220l233 396h449
l-294 -396h-388z" />
    <glyph glyph-name="uni0200" unicode="&#x200;" horiz-adv-x="1531" 
d="M1102 0l-94 339h-490l-93 -339h-421l442 1480h639l442 -1480h-425zM612 679h302l-152 547zM383 1586l-163 316h331l142 -316h-310zM835 1586l-162 316h330l142 -316h-310z" />
    <glyph glyph-name="uni0201" unicode="&#x201;" horiz-adv-x="1177" 
d="M849 1069.5c81.333 -32.333 141.167 -85.332 179.5 -158.999s57.5 -173.834 57.5 -300.501v-610h-349l-29 101h-18c-57.333 -82 -148.666 -123 -273.999 -123c-77.333 0 -144 14 -200 42s-98.667 67 -128 117s-44 107.333 -44 172c0 110.667 39.667 196.167 119 256.5
s204.666 95.166 375.999 104.499l130 7c-4 30 -13.833 54 -29.5 72s-39.167 31 -70.5 39s-73.333 12 -126 12c-44.667 0 -94 -3.5 -148 -10.5s-104.333 -17.167 -151 -30.5v314c57.333 14.667 119.833 25.834 187.5 33.501s131.834 11.5 192.501 11.5
c135.333 0 243.666 -16.167 324.999 -48.5zM671.001 292.001l-0.000976562 159l-85 -4c-83.333 -4.66699 -125 -37 -125 -97c0 -26.667 8.83301 -47.167 26.5 -61.5s42.834 -21.5 75.501 -21.5c44 0 80 8.33301 108 25zM204 1220l-172 396h330l152 -396h-310zM656 1220
l-172 396h331l151 -396h-310z" />
    <glyph glyph-name="uni0202" unicode="&#x202;" horiz-adv-x="1531" 
d="M1102 0l-94 339h-490l-93 -339h-421l442 1480h639l442 -1480h-425zM612 679h302l-152 547zM465.5 1818c71.667 56 171.165 84 298.498 84s226.833 -28 298.5 -84s113.834 -133.333 126.501 -232h-253c-8 39.333 -26 69 -54 89s-67.333 30 -118 30s-90 -10 -118 -30
s-46 -49.667 -54 -89h-253c12.667 98.667 54.834 176 126.501 232z" />
    <glyph glyph-name="uni0203" unicode="&#x203;" horiz-adv-x="1177" 
d="M849 1069.5c81.333 -32.333 141.167 -85.332 179.5 -158.999s57.5 -173.834 57.5 -300.501v-610h-349l-29 101h-18c-57.333 -82 -148.666 -123 -273.999 -123c-77.333 0 -144 14 -200 42s-98.667 67 -128 117s-44 107.333 -44 172c0 110.667 39.667 196.167 119 256.5
s204.666 95.166 375.999 104.499l130 7c-4 30 -13.833 54 -29.5 72s-39.167 31 -70.5 39s-73.333 12 -126 12c-44.667 0 -94 -3.5 -148 -10.5s-104.333 -17.167 -151 -30.5v314c57.333 14.667 119.833 25.834 187.5 33.501s131.834 11.5 192.501 11.5
c135.333 0 243.666 -16.167 324.999 -48.5zM671.001 292.001l-0.000976562 159l-85 -4c-83.333 -4.66699 -125 -37 -125 -97c0 -26.667 8.83301 -47.167 26.5 -61.5s42.834 -21.5 75.501 -21.5c44 0 80 8.33301 108 25zM293 1523c70 62 167.334 93 292.001 93
c123.333 0 220.333 -31.167 291 -93.5s109.334 -153.833 116.001 -274.5h-251c-4.66699 56 -19.834 97.333 -45.501 124s-62.5 40 -110.5 40c-50 0 -87.333 -13.167 -112 -39.5s-39.334 -67.833 -44.001 -124.5h-251c6.66699 121.333 45 213 115 275z" />
    <glyph glyph-name="uni0204" unicode="&#x204;" horiz-adv-x="1314" 
d="M538 343h704v-343h-1133v1480h1123v-343h-694v-211h589v-342h-589v-241zM311 1586l-163 316h331l142 -316h-310zM763 1586l-162 316h330l142 -316h-310z" />
    <glyph glyph-name="uni0205" unicode="&#x205;" horiz-adv-x="1163" 
d="M1120 431l-641.998 -0.00195312c4 -35.333 15.333 -62.666 34 -81.999s48.5 -33.333 89.5 -42s98.833 -13 173.5 -13c82 0 175.333 9.66699 280 29v-312c-114.667 -22 -229 -33 -343 -33c-154.667 0 -280.334 20.167 -377.001 60.5s-167.834 102.333 -213.501 186
s-68.5 192.5 -68.5 326.5c0 117.333 21.167 218.333 63.5 303s105 149.834 188 195.501s183.833 68.5 302.5 68.5c168 0 295.5 -50.667 382.5 -152s130.5 -244.333 130.5 -429v-106zM531.502 839.998c-17.667 -12 -31.167 -32 -40.5 -60s-14.333 -66.333 -15 -115h251
c-0.666992 48.667 -5.5 87 -14.5 115s-22.333 48 -40 60s-41.167 18 -70.5 18s-52.833 -6 -70.5 -18zM217.002 1220l-172 396h330l152 -396h-310zM669.002 1220l-172 396h331l151 -396h-310z" />
    <glyph glyph-name="uni0206" unicode="&#x206;" horiz-adv-x="1314" 
d="M538 343h704v-343h-1133v1480h1123v-343h-694v-211h589v-342h-589v-241zM393.5 1818c71.667 56 171.165 84 298.498 84s226.833 -28 298.5 -84s113.834 -133.333 126.501 -232h-253c-8 39.333 -26 69 -54 89s-67.333 30 -118 30s-90 -10 -118 -30s-46 -49.667 -54 -89
h-253c12.667 98.667 54.834 176 126.501 232z" />
    <glyph glyph-name="uni0207" unicode="&#x207;" horiz-adv-x="1163" 
d="M1120 431l-641.998 -0.00195312c4 -35.333 15.333 -62.666 34 -81.999s48.5 -33.333 89.5 -42s98.833 -13 173.5 -13c82 0 175.333 9.66699 280 29v-312c-114.667 -22 -229 -33 -343 -33c-154.667 0 -280.334 20.167 -377.001 60.5s-167.834 102.333 -213.501 186
s-68.5 192.5 -68.5 326.5c0 117.333 21.167 218.333 63.5 303s105 149.834 188 195.501s183.833 68.5 302.5 68.5c168 0 295.5 -50.667 382.5 -152s130.5 -244.333 130.5 -429v-106zM531.502 839.998c-17.667 -12 -31.167 -32 -40.5 -60s-14.333 -66.333 -15 -115h251
c-0.666992 48.667 -5.5 87 -14.5 115s-22.333 48 -40 60s-41.167 18 -70.5 18s-52.833 -6 -70.5 -18zM306.002 1523c70 62 167.334 93 292.001 93c123.333 0 220.333 -31.167 291 -93.5s109.334 -153.833 116.001 -274.5h-251c-4.66699 56 -19.834 97.333 -45.501 124
s-62.5 40 -110.5 40c-50 0 -87.333 -13.167 -112 -39.5s-39.334 -67.833 -44.001 -124.5h-251c6.66699 121.333 45 213 115 275z" />
    <glyph glyph-name="uni0208" unicode="&#x208;" horiz-adv-x="653" 
d="M109 0v1480h435v-1480h-435zM-55 1586l-163 316h331l142 -316h-310zM397 1586l-162 316h330l142 -316h-310z" />
    <glyph glyph-name="uni0209" unicode="&#x209;" horiz-adv-x="621" 
d="M97 0v1100h427v-1100h-427zM-71 1220l-172 396h330l152 -396h-310zM381 1220l-172 396h331l151 -396h-310z" />
    <glyph glyph-name="uni020A" unicode="&#x20a;" horiz-adv-x="653" 
d="M109 0v1480h435v-1480h-435zM27.5 1818c71.667 56 171.165 84 298.498 84s226.833 -28 298.5 -84s113.834 -133.333 126.501 -232h-253c-8 39.333 -26 69 -54 89s-67.333 30 -118 30s-90 -10 -118 -30s-46 -49.667 -54 -89h-253c12.667 98.667 54.834 176 126.501 232z
" />
    <glyph glyph-name="uni020B" unicode="&#x20b;" horiz-adv-x="621" 
d="M97 0v1100h427v-1100h-427zM18 1523c70 62 167.334 93 292.001 93c123.333 0 220.333 -31.167 291 -93.5s109.334 -153.833 116.001 -274.5h-251c-4.66699 56 -19.834 97.333 -45.501 124s-62.5 40 -110.5 40c-50 0 -87.333 -13.167 -112 -39.5
s-39.334 -67.833 -44.001 -124.5h-251c6.66699 121.333 45 213 115 275z" />
    <glyph glyph-name="uni020C" unicode="&#x20c;" horiz-adv-x="1645" 
d="M422 66c-112.667 57.333 -199.667 142.833 -261 256.5s-92 252.834 -92 417.501s30.667 303.834 92 417.501s148.333 199.167 261 256.5s246 86 400 86s287.5 -28.833 400.5 -86.5s200.167 -143.334 261.5 -257.001s92 -252.5 92 -416.5s-30.667 -302.833 -92 -416.5
s-148.5 -199.334 -261.5 -257.001s-246.5 -86.5 -400.5 -86.5s-287.333 28.667 -400 86zM1053 426c52 66 77.999 168.001 77.999 306.001c0 145.333 -26.167 251.833 -78.5 319.5s-129.166 101.5 -230.499 101.5c-100.667 0 -177.167 -32.833 -229.5 -98.5
s-78.5 -167.834 -78.5 -306.501c0 -146.667 25.833 -253.5 77.5 -320.5s128.5 -100.5 230.5 -100.5s179 33 231 99zM440.999 1586l-163 316h331l142 -316h-310zM892.999 1586l-162 316h330l142 -316h-310z" />
    <glyph glyph-name="uni020D" unicode="&#x20d;" horiz-adv-x="1267" 
d="M322.5 43c-87 43.333 -153.665 107.5 -199.998 192.5s-69.5 188.5 -69.5 310.5c0 186 50.167 327.833 150.5 425.5s243.5 146.5 429.5 146.5c123.333 0 228.333 -22 315 -66s152.667 -108.5 198 -193.5s68 -188.5 68 -310.5c0 -122.667 -23.333 -226.5 -70 -311.5
s-113.334 -149.333 -200.001 -193s-190.334 -65.5 -311.001 -65.5c-120 0 -223.5 21.667 -310.5 65zM719.502 317.5c22.333 15 39.167 40.834 50.5 77.501s17 87 17 151c0 65.333 -5.83301 116.666 -17.5 153.999s-28.5 63.5 -50.5 78.5s-50.667 22.5 -86 22.5
c-34.667 0 -63.167 -7.5 -85.5 -22.5s-39.166 -41 -50.499 -78s-17 -87.833 -17 -152.5s5.66699 -115.5 17 -152.5s28 -63 50 -78s50.667 -22.5 86 -22.5s64.166 7.5 86.499 22.5zM252.003 1220l-172 396h330l152 -396h-310zM704.003 1220l-172 396h331l151 -396h-310z" />
    <glyph glyph-name="uni020E" unicode="&#x20e;" horiz-adv-x="1645" 
d="M422 66c-112.667 57.333 -199.667 142.833 -261 256.5s-92 252.834 -92 417.501s30.667 303.834 92 417.501s148.333 199.167 261 256.5s246 86 400 86s287.5 -28.833 400.5 -86.5s200.167 -143.334 261.5 -257.001s92 -252.5 92 -416.5s-30.667 -302.833 -92 -416.5
s-148.5 -199.334 -261.5 -257.001s-246.5 -86.5 -400.5 -86.5s-287.333 28.667 -400 86zM1053 426c52 66 77.999 168.001 77.999 306.001c0 145.333 -26.167 251.833 -78.5 319.5s-129.166 101.5 -230.499 101.5c-100.667 0 -177.167 -32.833 -229.5 -98.5
s-78.5 -167.834 -78.5 -306.501c0 -146.667 25.833 -253.5 77.5 -320.5s128.5 -100.5 230.5 -100.5s179 33 231 99zM523.499 1818c71.667 56 171.165 84 298.498 84s226.833 -28 298.5 -84s113.834 -133.333 126.501 -232h-253c-8 39.333 -26 69 -54 89s-67.333 30 -118 30
s-90 -10 -118 -30s-46 -49.667 -54 -89h-253c12.667 98.667 54.834 176 126.501 232z" />
    <glyph glyph-name="uni020F" unicode="&#x20f;" horiz-adv-x="1267" 
d="M322.5 43c-87 43.333 -153.665 107.5 -199.998 192.5s-69.5 188.5 -69.5 310.5c0 186 50.167 327.833 150.5 425.5s243.5 146.5 429.5 146.5c123.333 0 228.333 -22 315 -66s152.667 -108.5 198 -193.5s68 -188.5 68 -310.5c0 -122.667 -23.333 -226.5 -70 -311.5
s-113.334 -149.333 -200.001 -193s-190.334 -65.5 -311.001 -65.5c-120 0 -223.5 21.667 -310.5 65zM719.502 317.5c22.333 15 39.167 40.834 50.5 77.501s17 87 17 151c0 65.333 -5.83301 116.666 -17.5 153.999s-28.5 63.5 -50.5 78.5s-50.667 22.5 -86 22.5
c-34.667 0 -63.167 -7.5 -85.5 -22.5s-39.166 -41 -50.499 -78s-17 -87.833 -17 -152.5s5.66699 -115.5 17 -152.5s28 -63 50 -78s50.667 -22.5 86 -22.5s64.166 7.5 86.499 22.5zM341.003 1523c70 62 167.334 93 292.001 93c123.333 0 220.333 -31.167 291 -93.5
s109.334 -153.833 116.001 -274.5h-251c-4.66699 56 -19.834 97.333 -45.501 124s-62.5 40 -110.5 40c-50 0 -87.333 -13.167 -112 -39.5s-39.334 -67.833 -44.001 -124.5h-251c6.66699 121.333 45 213 115 275z" />
    <glyph glyph-name="uni0210" unicode="&#x210;" horiz-adv-x="1425" 
d="M959 0l-327 496.997l-96 3v-500h-427v1441c76.667 18 160 32.333 250 43s176 16 258 16c226.667 0 397.334 -41.167 512.001 -123.5s172 -208.166 172 -377.499c0 -99.333 -22.333 -184.666 -67 -255.999s-108.334 -127.666 -191.001 -168.999l386 -574h-470z
M536 821.997c46 -5.33301 90.333 -8 133 -8c75.333 0 131.833 14.333 169.5 43s56.5 76 56.5 142c0 124.667 -76 187 -228 187c-44 0 -87.667 -4 -131 -12v-352zM328 1586l-163 316h331l142 -316h-310zM780 1586l-162 316h330l142 -316h-310z" />
    <glyph glyph-name="uni0211" unicode="&#x211;" horiz-adv-x="868" 
d="M97 1100h347.001l33 -139h18c49.333 104.667 139.666 157 270.999 157c30 0 60.333 -2.66699 91 -8v-383c-30.667 6.66699 -70 10 -118 10c-42.667 0 -84 -6.5 -124 -19.5s-70.667 -30.5 -92 -52.5v-665h-426v1100zM97.001 1220l-172 396h330l152 -396h-310z
M549.001 1220l-172 396h331l151 -396h-310z" />
    <glyph glyph-name="uni0212" unicode="&#x212;" horiz-adv-x="1425" 
d="M959 0l-327 496.997l-96 3v-500h-427v1441c76.667 18 160 32.333 250 43s176 16 258 16c226.667 0 397.334 -41.167 512.001 -123.5s172 -208.166 172 -377.499c0 -99.333 -22.333 -184.666 -67 -255.999s-108.334 -127.666 -191.001 -168.999l386 -574h-470z
M536 821.997c46 -5.33301 90.333 -8 133 -8c75.333 0 131.833 14.333 169.5 43s56.5 76 56.5 142c0 124.667 -76 187 -228 187c-44 0 -87.667 -4 -131 -12v-352zM410.5 1818c71.667 56 171.165 84 298.498 84s226.833 -28 298.5 -84s113.834 -133.333 126.501 -232h-253
c-8 39.333 -26 69 -54 89s-67.333 30 -118 30s-90 -10 -118 -30s-46 -49.667 -54 -89h-253c12.667 98.667 54.834 176 126.501 232z" />
    <glyph glyph-name="uni0213" unicode="&#x213;" horiz-adv-x="868" 
d="M97 1100h347.001l33 -139h18c49.333 104.667 139.666 157 270.999 157c30 0 60.333 -2.66699 91 -8v-383c-30.667 6.66699 -70 10 -118 10c-42.667 0 -84 -6.5 -124 -19.5s-70.667 -30.5 -92 -52.5v-665h-426v1100zM186.001 1523c70 62 167.334 93 292.001 93
c123.333 0 220.333 -31.167 291 -93.5s109.334 -153.833 116.001 -274.5h-251c-4.66699 56 -19.834 97.333 -45.501 124s-62.5 40 -110.5 40c-50 0 -87.333 -13.167 -112 -39.5s-39.334 -67.833 -44.001 -124.5h-251c6.66699 121.333 45 213 115 275z" />
    <glyph glyph-name="uni0214" unicode="&#x214;" horiz-adv-x="1548" 
d="M266.5 145.5c-109 110.333 -163.5 278.166 -163.5 503.499v831h435v-872c0 -96 20 -165.833 60 -209.5s100 -65.5 180 -65.5s140 21.833 180 65.5s60 113.5 60 209.5v872h427v-831c0 -225.333 -54 -393.166 -162 -503.499s-276.333 -165.5 -505 -165.5
c-232 0 -402.5 55.167 -511.5 165.5zM397 1586l-163 316h331l142 -316h-310zM849 1586l-162 316h330l142 -316h-310z" />
    <glyph glyph-name="uni0215" unicode="&#x215;" horiz-adv-x="1272" 
d="M197.5 92.5c-71 74.333 -106.5 189.833 -106.5 346.5v661h426v-630c0 -45.333 8.5 -77.5 25.5 -96.5s41.833 -28.5 74.5 -28.5c24 0 48.167 4.83301 72.5 14.5s44.166 22.167 59.499 37.5v703h426v-1100h-350l-28 104h-16c-40 -40 -84.667 -70.5 -134 -91.5
s-102.666 -31.5 -159.999 -31.5c-122 0 -218.5 37.167 -289.5 111.5zM252 1220l-172 396h330l152 -396h-310zM704 1220l-172 396h331l151 -396h-310z" />
    <glyph glyph-name="uni0216" unicode="&#x216;" horiz-adv-x="1548" 
d="M266.5 145.5c-109 110.333 -163.5 278.166 -163.5 503.499v831h435v-872c0 -96 20 -165.833 60 -209.5s100 -65.5 180 -65.5s140 21.833 180 65.5s60 113.5 60 209.5v872h427v-831c0 -225.333 -54 -393.166 -162 -503.499s-276.333 -165.5 -505 -165.5
c-232 0 -402.5 55.167 -511.5 165.5zM479.5 1818c71.667 56 171.165 84 298.498 84s226.833 -28 298.5 -84s113.834 -133.333 126.501 -232h-253c-8 39.333 -26 69 -54 89s-67.333 30 -118 30s-90 -10 -118 -30s-46 -49.667 -54 -89h-253
c12.667 98.667 54.834 176 126.501 232z" />
    <glyph glyph-name="uni0217" unicode="&#x217;" horiz-adv-x="1272" 
d="M197.5 92.5c-71 74.333 -106.5 189.833 -106.5 346.5v661h426v-630c0 -45.333 8.5 -77.5 25.5 -96.5s41.833 -28.5 74.5 -28.5c24 0 48.167 4.83301 72.5 14.5s44.166 22.167 59.499 37.5v703h426v-1100h-350l-28 104h-16c-40 -40 -84.667 -70.5 -134 -91.5
s-102.666 -31.5 -159.999 -31.5c-122 0 -218.5 37.167 -289.5 111.5zM341 1523c70 62 167.334 93 292.001 93c123.333 0 220.333 -31.167 291 -93.5s109.334 -153.833 116.001 -274.5h-251c-4.66699 56 -19.834 97.333 -45.501 124s-62.5 40 -110.5 40
c-50 0 -87.333 -13.167 -112 -39.5s-39.334 -67.833 -44.001 -124.5h-251c6.66699 121.333 45 213 115 275z" />
    <glyph glyph-name="Scommaaccent" unicode="&#x218;" horiz-adv-x="1215" 
d="M296.5 -2.5c-77 11.667 -147.164 27.833 -210.497 48.5v348c62 -20.667 133.667 -37.167 215 -49.5s157 -18.5 227 -18.5c78 0 133.167 9.16699 165.5 27.5s48.5 44.166 48.5 77.499c0 18.667 -4.33301 34.334 -13 47.001s-24.667 24.5 -48 35.5
s-57.333 22.167 -102 33.5l-132 34c-134.667 32.667 -235.834 85.167 -303.501 157.5s-101.5 166.833 -101.5 283.5c0 152.667 56.667 270.5 170 353.5s281.666 124.5 504.999 124.5c139.333 0 263.333 -14.333 372 -43v-348c-45.333 14 -98.833 25 -160.5 33
s-122.5 12 -182.5 12c-100.667 0 -171.334 -9.83301 -212.001 -29.5s-61 -46.167 -61 -79.5c0 -16.667 3.66699 -30.667 11 -42s20.5 -21.833 39.5 -31.5s46.833 -19.5 83.5 -29.5l133 -34c148.667 -36 258 -90 328 -162s105 -167 105 -285
c0 -98 -25.667 -183.167 -77 -255.5s-125.333 -128 -222 -167s-211 -58.5 -343 -58.5c-79.333 0 -157.5 5.83301 -234.5 17.5zM848.003 -280.001c0 -40 -8.66797 -82 -26.001 -126s-39.333 -81.333 -66 -112h-262c18 32 31.833 59.5 41.5 82.5s16.834 45.167 21.501 66.5
c-110 11.333 -165 55 -165 131c0 89.333 76 134 228 134s228 -58.667 228 -176z" />
    <glyph glyph-name="scommaaccent" unicode="&#x219;" horiz-adv-x="1031" 
d="M78 29v304.999c54 -16 113.667 -28.667 179 -38s130.666 -14 195.999 -14c55.333 0 94 4.83301 116 14.5s33 23.834 33 42.501c0 12 -3.83301 21.167 -11.5 27.5s-21.5 11.166 -41.5 14.499l-198 34c-104.667 17.333 -182 53 -232 107s-75 128 -75 222
c0 77.333 21 143.833 63 199.5s105.667 98.667 191 129s191.333 45.5 318 45.5c56.667 0 113 -3.33301 169 -10s105.333 -15.667 148 -27v-305c-42 12 -89.833 21.333 -143.5 28s-107.167 10 -160.5 10c-74 0 -124.5 -5.66699 -151.5 -17s-40.5 -26 -40.5 -44
c0 -10.667 4 -18.834 12 -24.501s22 -10.167 42 -13.5l199 -34c101.333 -17.333 177.5 -51.166 228.5 -101.499s76.5 -125.833 76.5 -226.5c0 -77.333 -21.167 -144.166 -63.5 -200.499s-103.666 -99.5 -183.999 -129.5s-175.833 -45 -286.5 -45c-144 0 -271.667 17 -383 51
zM747 -280.001c0 -40 -8.66797 -82 -26.001 -126s-39.333 -81.333 -66 -112h-262c18 32 31.833 59.5 41.5 82.5s16.834 45.167 21.501 66.5c-110 11.333 -165 55 -165 131c0 89.333 76 134 228 134s228 -58.667 228 -176z" />
    <glyph glyph-name="uni021A" unicode="&#x21a;" horiz-adv-x="1360" 
d="M462 0v1122h-449v358h1334v-358h-449v-1122h-436zM908 -280c0 -40 -8.66797 -82 -26.001 -126s-39.333 -81.333 -66 -112h-262c18 32 31.833 59.5 41.5 82.5s16.834 45.167 21.501 66.5c-110 11.333 -165 55 -165 131c0 89.333 76 134 228 134s228 -58.667 228 -176z" />
    <glyph glyph-name="uni021B" unicode="&#x21b;" horiz-adv-x="907" 
d="M607 769l0.00195312 -277.999c0 -42.667 4.66699 -75.834 14 -99.501s24.666 -40.5 45.999 -50.5s51 -15 89 -15c23.333 0 57.666 3.33301 102.999 10v-331c-32 -7.33301 -68.5 -13.5 -109.5 -18.5s-79.833 -7.5 -116.5 -7.5c-148.667 0 -261.167 36.333 -337.5 109
s-114.5 185 -114.5 337v344h-160v331h160l79 380h347v-380h252v-331h-252zM748.002 -279.999c0 -40 -8.66797 -82 -26.001 -126s-39.333 -81.333 -66 -112h-262c18 32 31.833 59.5 41.5 82.5s16.834 45.167 21.501 66.5c-110 11.333 -165 55 -165 131
c0 89.333 76 134 228 134s228 -58.667 228 -176z" />
    <glyph glyph-name="uni022A" unicode="&#x22a;" horiz-adv-x="1645" 
d="M422 66c-112.667 57.333 -199.667 142.833 -261 256.5s-92 252.834 -92 417.501s30.667 303.834 92 417.501s148.333 199.167 261 256.5s246 86 400 86s287.5 -28.833 400.5 -86.5s200.167 -143.334 261.5 -257.001s92 -252.5 92 -416.5s-30.667 -302.833 -92 -416.5
s-148.5 -199.334 -261.5 -257.001s-246.5 -86.5 -400.5 -86.5s-287.333 28.667 -400 86zM1053 426c52 66 77.999 168.001 77.999 306.001c0 145.333 -26.167 251.833 -78.5 319.5s-129.166 101.5 -230.499 101.5c-100.667 0 -177.167 -32.833 -229.5 -98.5
s-78.5 -167.834 -78.5 -306.501c0 -146.667 25.833 -253.5 77.5 -320.5s128.5 -100.5 230.5 -100.5s179 33 231 99zM385.499 1616.5c-37 31 -55.5 75.5 -55.5 133.5s18.5 102.5 55.5 133.5s91.5 46.5 163.5 46.5s126.333 -15.5 163 -46.5s55 -75.5 55 -133.5
s-18.333 -102.5 -55 -133.5s-91 -46.5 -163 -46.5s-126.5 15.5 -163.5 46.5zM931.999 1616.5c-36.667 31 -55 75.5 -55 133.5s18.333 102.5 55 133.5s91 46.5 163 46.5s126.5 -15.5 163.5 -46.5s55.5 -75.5 55.5 -133.5s-18.5 -102.5 -55.5 -133.5s-91.5 -46.5 -163.5 -46.5
s-126.333 15.5 -163 46.5zM411.999 2021v248h820v-248h-820z" />
    </font>
</defs>
</svg>
